Cuprum-BoldItalic.ufo
<glyph name="exclam" format="2">
  <advance width="260"/>
  <unicode hex="0021"/>
  <outline>
    <contour>
      <point x="112" y="185" type="line"/>
      <point x="212" y="185" type="line"/>
      <point x="323" y="700" type="line"/>
      <point x="183" y="700" type="line"/>
    </contour>
    <contour>
      <point x="68" y="-10" type="line"/>
      <point x="188" y="-10" type="line"/>
      <point x="209" y="110" type="line"/>
      <point x="89" y="110" type="line"/>
    </contour>
  </outline>
</glyph>
<glyph name="numbersign" format="2">
  <advance width="590"/>
  <unicode hex="0023"/>
  <outline>
    <contour>
      <point x="80" y="0" type="line"/>
      <point x="195" y="0" type="line"/>
      <point x="259" y="195" type="line"/>
      <point x="349" y="195" type="line"/>
      <point x="285" y="0" type="line"/>
      <point x="400" y="0" type="line"/>
      <point x="464" y="195" type="line"/>
      <point x="574" y="195" type="line"/>
      <point x="588" y="275" type="line"/>
      <point x="491" y="275" type="line"/>
      <point x="540" y="425" type="line"/>
      <point x="644" y="425" type="line"/>
      <point x="659" y="505" type="line"/>
      <point x="569" y="505" type="line"/>
      <point x="633" y="700" type="line"/>
      <point x="518" y="700" type="line"/>
      <point x="454" y="505" type="line"/>
      <point x="364" y="505" type="line"/>
      <point x="428" y="700" type="line"/>
      <point x="313" y="700" type="line"/>
      <point x="249" y="505" type="line"/>
      <point x="139" y="505" type="line"/>
      <point x="124" y="425" type="line"/>
      <point x="221" y="425" type="line"/>
      <point x="172" y="275" type="line"/>
      <point x="68" y="275" type="line"/>
      <point x="54" y="195" type="line"/>
      <point x="144" y="195" type="line"/>
    </contour>
    <contour>
      <point x="276" y="275" type="line"/>
      <point x="325" y="425" type="line"/>
      <point x="436" y="425" type="line"/>
      <point x="387" y="275" type="line"/>
    </contour>
  </outline>
</glyph>
<glyph name="dollar" format="2">
  <advance width="465"/>
  <unicode hex="0024"/>
  <outline>
    <contour>
      <point x="184" y="-90" type="line"/>
      <point x="254" y="-90" type="line"/>
      <point x="269" y="-4" type="line"/>
      <point x="388" y="14"/>
      <point x="448" y="79"/>
      <point x="466" y="180" type="curve" smooth="yes"/>
      <point x="490" y="315"/>
      <point x="410" y="354"/>
      <point x="339" y="392" type="curve"/>
      <point x="381" y="635" type="line"/>
      <point x="506" y="635" type="line"/>
      <point x="516" y="690" type="line"/>
      <point x="493" y="698"/>
      <point x="448" y="707"/>
      <point x="395" y="709" type="curve"/>
      <point x="409" y="790" type="line"/>
      <point x="339" y="790" type="line"/>
      <point x="324" y="708" type="line"/>
      <point x="210" y="697"/>
      <point x="141" y="630"/>
      <point x="123" y="530" type="curve" smooth="yes"/>
      <point x="98" y="386"/>
      <point x="181" y="345"/>
      <point x="254" y="308" type="curve"/>
      <point x="211" y="66" type="line"/>
      <point x="46" y="65" type="line"/>
      <point x="36" y="10" type="line"/>
      <point x="65" y="0"/>
      <point x="123" y="-10"/>
      <point x="193" y="-10" type="curve" smooth="yes"/>
      <point x="198" y="-10" type="line"/>
    </contour>
    <contour>
      <point x="284" y="85" type="curve"/>
      <point x="317" y="269" type="line"/>
      <point x="340" y="248"/>
      <point x="353" y="221"/>
      <point x="346" y="180" type="curve" smooth="yes"/>
      <point x="338" y="136"/>
      <point x="319" y="104"/>
    </contour>
    <contour>
      <point x="276" y="432" type="line"/>
      <point x="250" y="454"/>
      <point x="235" y="483"/>
      <point x="243" y="530" type="curve" smooth="yes"/>
      <point x="251" y="574"/>
      <point x="274" y="606"/>
      <point x="309" y="623" type="curve"/>
    </contour>
  </outline>
</glyph>
<glyph name="ampersand" format="2">
  <advance width="545"/>
  <unicode hex="0026"/>
  <outline>
    <contour>
      <point x="208" y="-10" type="curve" smooth="yes"/>
      <point x="282" y="-10"/>
      <point x="326" y="16"/>
      <point x="369" y="68" type="curve"/>
      <point x="405" y="0" type="line"/>
      <point x="535" y="0" type="line"/>
      <point x="444" y="170" type="line"/>
      <point x="573" y="390" type="line"/>
      <point x="453" y="390" type="line"/>
      <point x="388" y="275" type="line"/>
      <point x="325" y="400"/>
      <point x="321" y="462"/>
      <point x="333" y="530" type="curve" smooth="yes"/>
      <point x="344" y="595"/>
      <point x="391" y="635"/>
      <point x="436" y="635" type="curve" smooth="yes"/>
      <point x="576" y="635" type="line"/>
      <point x="586" y="690" type="line"/>
      <point x="558" y="700"/>
      <point x="500" y="710"/>
      <point x="430" y="710" type="curve" smooth="yes"/>
      <point x="315" y="710"/>
      <point x="232" y="640"/>
      <point x="213" y="530" type="curve" smooth="yes"/>
      <point x="195" y="430"/>
      <point x="221" y="350"/>
      <point x="323" y="160" type="curve"/>
      <point x="291" y="95"/>
      <point x="256" y="65"/>
      <point x="226" y="65" type="curve" smooth="yes"/>
      <point x="201" y="65"/>
      <point x="164" y="85"/>
      <point x="181" y="180" type="curve" smooth="yes"/>
      <point x="208" y="330" type="line"/>
      <point x="113" y="330" type="line"/>
      <point x="97" y="300"/>
      <point x="77" y="240"/>
      <point x="66" y="180" type="curve" smooth="yes"/>
      <point x="45" y="60"/>
      <point x="103" y="-10"/>
    </contour>
  </outline>
</glyph>
<glyph name="quotesingle" format="2">
  <advance width="200"/>
  <unicode hex="0027"/>
  <outline>
    <contour>
      <point x="146" y="465" type="line"/>
      <point x="216" y="465" type="line"/>
      <point x="283" y="700" type="line"/>
      <point x="163" y="700" type="line"/>
    </contour>
  </outline>
</glyph>
<glyph name="parenleft" format="2">
  <advance width="266"/>
  <unicode hex="0028"/>
  <outline>
    <contour>
      <point x="176" y="-190" type="curve"/>
      <point x="237" y="-160" type="line"/>
      <point x="201" y="-20"/>
      <point x="199" y="110"/>
      <point x="229" y="280" type="curve"/>
      <point x="259" y="450"/>
      <point x="307" y="580"/>
      <point x="392" y="720" type="curve"/>
      <point x="342" y="750" type="line"/>
      <point x="195" y="600"/>
      <point x="122" y="410"/>
      <point x="99" y="280" type="curve"/>
      <point x="76" y="150"/>
      <point x="82" y="-40"/>
    </contour>
  </outline>
</glyph>
<glyph name="parenright" format="2">
  <advance width="266"/>
  <unicode hex="0029"/>
  <outline>
    <contour>
      <point x="22" y="-190" type="line"/>
      <point x="168" y="-40"/>
      <point x="242" y="150"/>
      <point x="265" y="280" type="curve" smooth="yes"/>
      <point x="288" y="410"/>
      <point x="281" y="600"/>
      <point x="188" y="750" type="curve"/>
      <point x="126" y="720" type="line"/>
      <point x="163" y="580"/>
      <point x="165" y="450"/>
      <point x="135" y="280" type="curve" smooth="yes"/>
      <point x="105" y="110"/>
      <point x="57" y="-20"/>
      <point x="-28" y="-160" type="curve"/>
    </contour>
  </outline>
</glyph>
<glyph name="asterisk" format="2">
  <advance width="450"/>
  <unicode hex="002A"/>
  <outline>
    <contour>
      <point x="217" y="310" type="line"/>
      <point x="300" y="428" type="line"/>
      <point x="341" y="310" type="line"/>
      <point x="435" y="357" type="line"/>
      <point x="394" y="474" type="line"/>
      <point x="518" y="500" type="line"/>
      <point x="512" y="592" type="line"/>
      <point x="374" y="563" type="line"/>
      <point x="398" y="700" type="line"/>
      <point x="298" y="700" type="line"/>
      <point x="274" y="563" type="line"/>
      <point x="146" y="592" type="line"/>
      <point x="108" y="500" type="line"/>
      <point x="222" y="474" type="line"/>
      <point x="139" y="357" type="line"/>
    </contour>
  </outline>
</glyph>
<glyph name="plus" format="2">
  <advance width="450"/>
  <unicode hex="002B"/>
  <outline>
    <contour>
      <point x="195" y="90" type="line"/>
      <point x="285" y="90" type="line"/>
      <point x="315" y="260" type="line"/>
      <point x="465" y="260" type="line"/>
      <point x="479" y="340" type="line"/>
      <point x="329" y="340" type="line"/>
      <point x="359" y="510" type="line"/>
      <point x="269" y="510" type="line"/>
      <point x="239" y="340" type="line"/>
      <point x="89" y="340" type="line"/>
      <point x="75" y="260" type="line"/>
      <point x="225" y="260" type="line"/>
    </contour>
  </outline>
</glyph>
<glyph name="hyphen" format="2">
  <advance width="380"/>
  <unicode hex="002D"/>
  <outline>
    <contour>
      <point x="75" y="260" type="line"/>
      <point x="395" y="260" type="line"/>
      <point x="409" y="340" type="line"/>
      <point x="89" y="340" type="line"/>
    </contour>
  </outline>
</glyph>
<glyph name="period" format="2">
  <advance width="200"/>
  <unicode hex="002E"/>
  <outline>
    <contour>
      <point x="38" y="-10" type="line"/>
      <point x="158" y="-10" type="line"/>
      <point x="179" y="110" type="line"/>
      <point x="59" y="110" type="line"/>
    </contour>
  </outline>
</glyph>
<glyph name="slash" format="2">
  <advance width="420"/>
  <unicode hex="002F"/>
  <outline>
    <contour>
      <point x="0" y="0" type="line"/>
      <point x="120" y="0" type="line"/>
      <point x="543" y="700" type="line"/>
      <point x="423" y="700" type="line"/>
    </contour>
  </outline>
</glyph>
<glyph name="zero" format="2">
  <advance width="530"/>
  <unicode hex="0030"/>
  <outline>
    <contour>
      <point x="263" y="-10" type="curve"/>
      <point x="393" y="-10"/>
      <point x="499" y="80"/>
      <point x="546" y="350" type="curve"/>
      <point x="594" y="620"/>
      <point x="520" y="710"/>
      <point x="390" y="710" type="curve" smooth="yes"/>
      <point x="260" y="710"/>
      <point x="154" y="620"/>
      <point x="106" y="350" type="curve" smooth="yes"/>
      <point x="59" y="80"/>
      <point x="133" y="-10"/>
    </contour>
    <contour>
      <point x="275" y="60" type="curve"/>
      <point x="230" y="60"/>
      <point x="185" y="115"/>
      <point x="226" y="350" type="curve"/>
      <point x="268" y="585"/>
      <point x="332" y="640"/>
      <point x="377" y="640" type="curve" smooth="yes"/>
      <point x="422" y="640"/>
      <point x="468" y="585"/>
      <point x="426" y="350" type="curve"/>
      <point x="385" y="115"/>
      <point x="320" y="60"/>
    </contour>
  </outline>
</glyph>
<glyph name="one" format="2">
  <advance width="305"/>
  <unicode hex="0031"/>
  <outline>
    <contour>
      <point x="115" y="0" type="line"/>
      <point x="235" y="0" type="line"/>
      <point x="358" y="700" type="line"/>
      <point x="293" y="700" type="line"/>
      <point x="223" y="700"/>
      <point x="161" y="690"/>
      <point x="129" y="680" type="curve"/>
      <point x="119" y="620" type="line"/>
      <point x="224" y="620" type="line"/>
    </contour>
  </outline>
</glyph>
<glyph name="two" format="2">
  <advance width="420"/>
  <unicode hex="0032"/>
  <outline>
    <contour>
      <point x="15" y="0" type="line"/>
      <point x="385" y="0" type="line"/>
      <point x="399" y="80" type="line"/>
      <point x="149" y="80" type="line"/>
      <point x="317" y="240"/>
      <point x="456" y="375"/>
      <point x="478" y="500" type="curve" smooth="yes"/>
      <point x="502" y="640"/>
      <point x="445" y="710"/>
      <point x="310" y="710" type="curve" smooth="yes"/>
      <point x="240" y="710"/>
      <point x="178" y="700"/>
      <point x="146" y="690" type="curve"/>
      <point x="136" y="635" type="line"/>
      <point x="276" y="635" type="line" smooth="yes"/>
      <point x="341" y="635"/>
      <point x="374" y="595"/>
      <point x="358" y="500" type="curve" smooth="yes"/>
      <point x="337" y="385"/>
      <point x="247" y="295"/>
      <point x="30" y="90" type="curve"/>
    </contour>
  </outline>
</glyph>
<glyph name="three" format="2">
  <advance width="435"/>
  <unicode hex="0033"/>
  <outline>
    <contour>
      <point x="173" y="-10" type="curve" smooth="yes"/>
      <point x="328" y="-10"/>
      <point x="410" y="60"/>
      <point x="433" y="190" type="curve" smooth="yes"/>
      <point x="447" y="270"/>
      <point x="415" y="345"/>
      <point x="349" y="368" type="curve"/>
      <point x="350" y="372" type="line"/>
      <point x="410" y="400"/>
      <point x="459" y="450"/>
      <point x="472" y="525" type="curve" smooth="yes"/>
      <point x="492" y="640"/>
      <point x="435" y="710"/>
      <point x="310" y="710" type="curve" smooth="yes"/>
      <point x="240" y="710"/>
      <point x="178" y="700"/>
      <point x="146" y="690" type="curve"/>
      <point x="136" y="635" type="line"/>
      <point x="266" y="635" type="line" smooth="yes"/>
      <point x="331" y="635"/>
      <point x="364" y="595"/>
      <point x="352" y="525" type="curve" smooth="yes"/>
      <point x="338" y="445"/>
      <point x="291" y="405"/>
      <point x="216" y="405" type="curve" smooth="yes"/>
      <point x="146" y="405" type="line"/>
      <point x="132" y="326" type="line"/>
      <point x="212" y="326" type="line" smooth="yes"/>
      <point x="297" y="326"/>
      <point x="330" y="285"/>
      <point x="313" y="190" type="curve" smooth="yes"/>
      <point x="298" y="105"/>
      <point x="251" y="65"/>
      <point x="166" y="65" type="curve" smooth="yes"/>
      <point x="26" y="65" type="line"/>
      <point x="16" y="10" type="line"/>
      <point x="45" y="0"/>
      <point x="103" y="-10"/>
    </contour>
  </outline>
</glyph>
<glyph name="four" format="2">
  <advance width="485"/>
  <unicode hex="0034"/>
  <outline>
    <contour>
      <point x="285" y="0" type="line"/>
      <point x="405" y="0" type="line"/>
      <point x="434" y="170" type="line"/>
      <point x="489" y="170" type="line"/>
      <point x="504" y="250" type="line"/>
      <point x="449" y="250" type="line"/>
      <point x="528" y="700" type="line"/>
      <point x="398" y="700" type="line"/>
      <point x="70" y="260" type="line"/>
      <point x="54" y="170" type="line"/>
      <point x="314" y="170" type="line"/>
    </contour>
    <contour>
      <point x="179" y="250" type="line"/>
      <point x="372" y="520" type="line"/>
      <point x="376" y="520" type="line"/>
      <point x="329" y="250" type="line"/>
    </contour>
  </outline>
</glyph>
<glyph name="five" format="2">
  <advance width="465"/>
  <unicode hex="0035"/>
  <outline>
    <contour>
      <point x="203" y="-10" type="curve" smooth="yes"/>
      <point x="358" y="-10"/>
      <point x="440" y="60"/>
      <point x="465" y="200" type="curve" smooth="yes"/>
      <point x="490" y="345"/>
      <point x="433" y="415"/>
      <point x="278" y="415" type="curve" smooth="yes"/>
      <point x="248" y="415" type="line"/>
      <point x="285" y="625" type="line"/>
      <point x="515" y="625" type="line"/>
      <point x="528" y="700" type="line"/>
      <point x="178" y="700" type="line"/>
      <point x="114" y="340" type="line"/>
      <point x="244" y="340" type="line" smooth="yes"/>
      <point x="329" y="340"/>
      <point x="362" y="300"/>
      <point x="345" y="200" type="curve" smooth="yes"/>
      <point x="328" y="105"/>
      <point x="281" y="65"/>
      <point x="196" y="65" type="curve" smooth="yes"/>
      <point x="56" y="65" type="line"/>
      <point x="46" y="10" type="line"/>
      <point x="75" y="0"/>
      <point x="133" y="-10"/>
    </contour>
  </outline>
</glyph>
<glyph name="seven" format="2">
  <advance width="430"/>
  <unicode hex="0037"/>
  <outline>
    <contour>
      <point x="105" y="0" type="curve"/>
      <point x="225" y="0" type="line"/>
      <point x="288" y="190"/>
      <point x="377" y="380"/>
      <point x="507" y="610" type="curve"/>
      <point x="523" y="700" type="line"/>
      <point x="143" y="700" type="line"/>
      <point x="129" y="620" type="line"/>
      <point x="394" y="620" type="line"/>
      <point x="263" y="390"/>
      <point x="168" y="190"/>
    </contour>
  </outline>
</glyph>
<glyph name="eight" format="2">
  <advance width="500"/>
  <unicode hex="0038"/>
  <outline>
    <contour>
      <point x="248" y="-10" type="curve"/>
      <point x="393" y="-10"/>
      <point x="475" y="60"/>
      <point x="496" y="180" type="curve" smooth="yes"/>
      <point x="513" y="277"/>
      <point x="464" y="335"/>
      <point x="399" y="363" type="curve"/>
      <point x="399" y="367" type="line"/>
      <point x="457" y="385"/>
      <point x="527" y="440"/>
      <point x="544" y="535" type="curve" smooth="yes"/>
      <point x="562" y="640"/>
      <point x="505" y="710"/>
      <point x="375" y="710" type="curve"/>
      <point x="245" y="710"/>
      <point x="162" y="640"/>
      <point x="144" y="535" type="curve" smooth="yes"/>
      <point x="127" y="440"/>
      <point x="177" y="385"/>
      <point x="229" y="367" type="curve"/>
      <point x="229" y="363" type="line"/>
      <point x="154" y="335"/>
      <point x="83" y="277"/>
      <point x="66" y="180" type="curve" smooth="yes"/>
      <point x="45" y="60"/>
      <point x="103" y="-10"/>
    </contour>
    <contour>
      <point x="260" y="60" type="curve"/>
      <point x="205" y="60"/>
      <point x="172" y="100"/>
      <point x="186" y="180" type="curve" smooth="yes"/>
      <point x="199" y="255"/>
      <point x="246" y="290"/>
      <point x="306" y="320" type="curve"/>
      <point x="356" y="290"/>
      <point x="389" y="255"/>
      <point x="376" y="180" type="curve" smooth="yes"/>
      <point x="362" y="100"/>
      <point x="315" y="60"/>
    </contour>
    <contour>
      <point x="322" y="409" type="curve"/>
      <point x="279" y="425"/>
      <point x="251" y="465"/>
      <point x="264" y="535" type="curve" smooth="yes"/>
      <point x="275" y="600"/>
      <point x="322" y="640"/>
      <point x="362" y="640" type="curve"/>
      <point x="402" y="640"/>
      <point x="435" y="600"/>
      <point x="424" y="535" type="curve" smooth="yes"/>
      <point x="411" y="465"/>
      <point x="369" y="425"/>
    </contour>
  </outline>
</glyph>
<glyph name="nine" format="2">
  <advance width="475"/>
  <unicode hex="0039"/>
  <outline>
    <contour>
      <point x="218" y="-10" type="curve"/>
      <point x="348" y="-10"/>
      <point x="444" y="80"/>
      <point x="479" y="280" type="curve" smooth="yes"/>
      <point x="518" y="500" type="line" smooth="yes"/>
      <point x="542" y="640"/>
      <point x="485" y="710"/>
      <point x="355" y="710" type="curve" smooth="yes"/>
      <point x="225" y="710"/>
      <point x="142" y="640"/>
      <point x="117" y="495" type="curve" smooth="yes"/>
      <point x="90" y="345"/>
      <point x="148" y="275"/>
      <point x="263" y="275" type="curve" smooth="yes"/>
      <point x="288" y="275"/>
      <point x="329" y="280"/>
      <point x="361" y="290" type="curve"/>
      <point x="330" y="115"/>
      <point x="271" y="65"/>
      <point x="201" y="65" type="curve" smooth="yes"/>
      <point x="71" y="65" type="line"/>
      <point x="61" y="10" type="line"/>
      <point x="90" y="0"/>
      <point x="148" y="-10"/>
    </contour>
    <contour>
      <point x="320" y="345" type="line"/>
      <point x="235" y="345"/>
      <point x="217" y="385"/>
      <point x="237" y="495" type="curve" smooth="yes"/>
      <point x="255" y="600"/>
      <point x="297" y="640"/>
      <point x="342" y="640" type="curve" smooth="yes"/>
      <point x="387" y="640"/>
      <point x="415" y="600"/>
      <point x="398" y="500" type="curve" smooth="yes"/>
      <point x="370" y="345" type="line"/>
    </contour>
  </outline>
</glyph>
<glyph name="colon" format="2">
  <advance width="200"/>
  <unicode hex="003A"/>
  <outline>
    <contour>
      <point x="107" y="380" type="line"/>
      <point x="227" y="380" type="line"/>
      <point x="248" y="500" type="line"/>
      <point x="128" y="500" type="line"/>
    </contour>
    <contour>
      <point x="38" y="-10" type="line"/>
      <point x="158" y="-10" type="line"/>
      <point x="179" y="110" type="line"/>
      <point x="59" y="110" type="line"/>
    </contour>
  </outline>
</glyph>
<glyph name="semicolon" format="2">
  <advance width="190"/>
  <unicode hex="003B"/>
  <outline>
    <contour>
      <point x="18" y="-120" type="line"/>
      <point x="98" y="-120" type="line"/>
      <point x="179" y="110" type="line"/>
      <point x="59" y="110" type="line"/>
    </contour>
    <contour>
      <point x="107" y="380" type="line"/>
      <point x="227" y="380" type="line"/>
      <point x="248" y="500" type="line"/>
      <point x="128" y="500" type="line"/>
    </contour>
  </outline>
</glyph>
<glyph name="less" format="2">
  <advance width="405"/>
  <unicode hex="003C"/>
  <outline>
    <contour>
      <point x="365" y="5" type="line"/>
      <point x="387" y="125" type="line"/>
      <point x="199" y="252" type="line"/>
      <point x="200" y="257" type="line"/>
      <point x="432" y="380" type="line"/>
      <point x="453" y="500" type="line"/>
      <point x="93" y="305" type="line"/>
      <point x="75" y="200" type="line"/>
    </contour>
  </outline>
</glyph>
<glyph name="equal" format="2">
  <advance width="450"/>
  <unicode hex="003D"/>
  <outline>
    <contour>
      <point x="59" y="170" type="line"/>
      <point x="449" y="170" type="line"/>
      <point x="464" y="255" type="line"/>
      <point x="74" y="255" type="line"/>
    </contour>
    <contour>
      <point x="90" y="345" type="line"/>
      <point x="480" y="345" type="line"/>
      <point x="495" y="430" type="line"/>
      <point x="105" y="430" type="line"/>
    </contour>
  </outline>
</glyph>
<glyph name="greater" format="2">
  <advance width="405"/>
  <unicode hex="003E"/>
  <outline>
    <contour>
      <point x="40" y="5" type="line"/>
      <point x="400" y="200" type="line"/>
      <point x="418" y="305" type="line"/>
      <point x="128" y="500" type="line"/>
      <point x="107" y="380" type="line"/>
      <point x="295" y="257" type="line"/>
      <point x="294" y="252" type="line"/>
      <point x="62" y="125" type="line"/>
    </contour>
  </outline>
</glyph>
<glyph name="question" format="2">
  <advance width="395"/>
  <unicode hex="003F"/>
  <outline>
    <contour>
      <point x="137" y="185" type="curve"/>
      <point x="237" y="185" type="line"/>
      <point x="273" y="330"/>
      <point x="426" y="350"/>
      <point x="456" y="520" type="curve" smooth="yes"/>
      <point x="477" y="640"/>
      <point x="420" y="710"/>
      <point x="295" y="710" type="curve" smooth="yes"/>
      <point x="225" y="710"/>
      <point x="163" y="700"/>
      <point x="131" y="690" type="curve"/>
      <point x="121" y="635" type="line"/>
      <point x="251" y="635" type="line" smooth="yes"/>
      <point x="316" y="635"/>
      <point x="349" y="595"/>
      <point x="336" y="520" type="curve" smooth="yes"/>
      <point x="312" y="380"/>
      <point x="170" y="370"/>
    </contour>
    <contour>
      <point x="93" y="-10" type="line"/>
      <point x="213" y="-10" type="line"/>
      <point x="234" y="110" type="line"/>
      <point x="114" y="110" type="line"/>
    </contour>
  </outline>
</glyph>
<glyph name="A" format="2">
  <advance width="540"/>
  <unicode hex="0041"/>
  <anchor x="284" y="0" name="bottom"/>
  <anchor x="442" y="10" name="ogonek"/>
  <anchor x="390" y="700" name="top"/>
  <outline>
    <contour>
      <point x="15" y="0" type="line"/>
      <point x="140" y="0" type="line"/>
      <point x="214" y="175" type="line"/>
      <point x="386" y="175" type="line"/>
      <point x="400" y="0" type="line"/>
      <point x="525" y="0" type="line"/>
      <point x="468" y="700" type="line"/>
      <point x="318" y="700" type="line"/>
    </contour>
    <contour>
      <point x="244" y="255" type="line"/>
      <point x="363" y="540" type="line"/>
      <point x="367" y="540" type="line"/>
      <point x="383" y="255" type="line"/>
    </contour>
  </outline>
</glyph>
<glyph name="B" format="2">
  <advance width="530"/>
  <unicode hex="0042"/>
  <outline>
    <contour>
      <point x="243" y="-10" type="curve" smooth="yes"/>
      <point x="423" y="-10"/>
      <point x="505" y="60"/>
      <point x="528" y="190" type="curve" smooth="yes"/>
      <point x="544" y="280"/>
      <point x="510" y="345"/>
      <point x="435" y="373" type="curve"/>
      <point x="436" y="377" type="line"/>
      <point x="501" y="405"/>
      <point x="546" y="465"/>
      <point x="557" y="525" type="curve" smooth="yes"/>
      <point x="577" y="640"/>
      <point x="520" y="710"/>
      <point x="370" y="710" type="curve" smooth="yes"/>
      <point x="295" y="710"/>
      <point x="244" y="705"/>
      <point x="191" y="690" type="curve"/>
      <point x="71" y="10" type="line"/>
      <point x="119" y="-5"/>
      <point x="168" y="-10"/>
    </contour>
    <contour>
      <point x="201" y="65" type="line"/>
      <point x="248" y="330" type="line"/>
      <point x="303" y="330" type="line"/>
      <point x="388" y="330"/>
      <point x="421" y="290"/>
      <point x="404" y="195" type="curve" smooth="yes"/>
      <point x="388" y="105"/>
      <point x="341" y="65"/>
      <point x="256" y="65" type="curve" smooth="yes"/>
    </contour>
    <contour>
      <point x="261" y="405" type="line"/>
      <point x="301" y="635" type="line"/>
      <point x="346" y="635" type="line" smooth="yes"/>
      <point x="411" y="635"/>
      <point x="444" y="595"/>
      <point x="431" y="520" type="curve" smooth="yes"/>
      <point x="418" y="445"/>
      <point x="371" y="405"/>
      <point x="306" y="405" type="curve" smooth="yes"/>
    </contour>
  </outline>
</glyph>
<glyph name="C" format="2">
  <advance width="455"/>
  <unicode hex="0043"/>
  <outline>
    <contour>
      <point x="278" y="-10" type="curve" smooth="yes"/>
      <point x="348" y="-10"/>
      <point x="410" y="0"/>
      <point x="441" y="10" type="curve"/>
      <point x="451" y="65" type="line"/>
      <point x="331" y="65" type="line" smooth="yes"/>
      <point x="236" y="65"/>
      <point x="187" y="125"/>
      <point x="226" y="350" type="curve" smooth="yes"/>
      <point x="266" y="575"/>
      <point x="336" y="635"/>
      <point x="421" y="635" type="curve" smooth="yes"/>
      <point x="541" y="635" type="line"/>
      <point x="551" y="690" type="line"/>
      <point x="523" y="700"/>
      <point x="465" y="710"/>
      <point x="395" y="710" type="curve" smooth="yes"/>
      <point x="250" y="710"/>
      <point x="156" y="630"/>
      <point x="106" y="350" type="curve" smooth="yes"/>
      <point x="57" y="70"/>
      <point x="123" y="-10"/>
    </contour>
  </outline>
</glyph>
<glyph name="D" format="2">
  <advance width="545"/>
  <unicode hex="0044"/>
  <outline>
    <contour>
      <point x="243" y="-10" type="curve" smooth="yes"/>
      <point x="408" y="-10"/>
      <point x="514" y="80"/>
      <point x="561" y="350" type="curve" smooth="yes"/>
      <point x="609" y="620"/>
      <point x="535" y="710"/>
      <point x="370" y="710" type="curve" smooth="yes"/>
      <point x="295" y="710"/>
      <point x="244" y="705"/>
      <point x="191" y="690" type="curve"/>
      <point x="71" y="10" type="line"/>
      <point x="119" y="-5"/>
      <point x="168" y="-10"/>
    </contour>
    <contour>
      <point x="201" y="65" type="line"/>
      <point x="301" y="635" type="line"/>
      <point x="356" y="635" type="line" smooth="yes"/>
      <point x="436" y="635"/>
      <point x="481" y="575"/>
      <point x="441" y="350" type="curve" smooth="yes"/>
      <point x="402" y="125"/>
      <point x="336" y="65"/>
      <point x="256" y="65" type="curve" smooth="yes"/>
    </contour>
  </outline>
</glyph>
<glyph name="E" format="2">
  <advance width="475"/>
  <unicode hex="0045"/>
  <anchor x="247" y="0" name="bottom"/>
  <anchor x="383" y="10" name="ogonek"/>
  <anchor x="369" y="700" name="top"/>
  <anchor x="99" y="700" name="topleft"/>
  <outline>
    <contour>
      <point x="70" y="0" type="line"/>
      <point x="435" y="0" type="line"/>
      <point x="449" y="80" type="line"/>
      <point x="204" y="80" type="line"/>
      <point x="247" y="325" type="line"/>
      <point x="462" y="325" type="line"/>
      <point x="476" y="405" type="line"/>
      <point x="261" y="405" type="line"/>
      <point x="299" y="620" type="line"/>
      <point x="544" y="620" type="line"/>
      <point x="558" y="700" type="line"/>
      <point x="193" y="700" type="line"/>
    </contour>
  </outline>
</glyph>
<glyph name="F" format="2">
  <advance width="455"/>
  <unicode hex="0046"/>
  <outline>
    <contour>
      <point x="70" y="0" type="line"/>
      <point x="190" y="0" type="line"/>
      <point x="244" y="310" type="line"/>
      <point x="449" y="310" type="line"/>
      <point x="463" y="390" type="line"/>
      <point x="258" y="390" type="line"/>
      <point x="299" y="620" type="line"/>
      <point x="544" y="620" type="line"/>
      <point x="558" y="700" type="line"/>
      <point x="193" y="700" type="line"/>
    </contour>
  </outline>
</glyph>
<glyph name="H" format="2">
  <advance width="560"/>
  <unicode hex="0048"/>
  <outline>
    <contour>
      <point x="70" y="0" type="line"/>
      <point x="190" y="0" type="line"/>
      <point x="245" y="315" type="line"/>
      <point x="425" y="315" type="line"/>
      <point x="370" y="0" type="line"/>
      <point x="490" y="0" type="line"/>
      <point x="613" y="700" type="line"/>
      <point x="493" y="700" type="line"/>
      <point x="439" y="395" type="line"/>
      <point x="259" y="395" type="line"/>
      <point x="313" y="700" type="line"/>
      <point x="193" y="700" type="line"/>
    </contour>
  </outline>
</glyph>
<glyph name="I" format="2">
  <advance width="260"/>
  <unicode hex="0049"/>
  <anchor x="127" y="0" name="bottom"/>
  <anchor x="167" y="0" name="ogonek"/>
  <anchor x="258" y="700" name="top"/>
  <anchor x="193" y="700" name="topleft"/>
  <outline>
    <contour>
      <point x="70" y="0" type="line"/>
      <point x="190" y="0" type="line"/>
      <point x="313" y="700" type="line"/>
      <point x="193" y="700" type="line"/>
    </contour>
  </outline>
</glyph>
<glyph name="J" format="2">
  <advance width="375"/>
  <unicode hex="004A"/>
  <outline>
    <contour>
      <point x="98" y="-10" type="curve" smooth="yes"/>
      <point x="243" y="-10"/>
      <point x="325" y="60"/>
      <point x="357" y="240" type="curve" smooth="yes"/>
      <point x="438" y="700" type="line"/>
      <point x="318" y="700" type="line"/>
      <point x="237" y="240" type="line" smooth="yes"/>
      <point x="213" y="105"/>
      <point x="166" y="65"/>
      <point x="111" y="65" type="curve" smooth="yes"/>
      <point x="11" y="65" type="line"/>
      <point x="1" y="10" type="line"/>
      <point x="25" y="0"/>
      <point x="58" y="-10"/>
    </contour>
  </outline>
</glyph>
<glyph name="K" format="2">
  <advance width="520"/>
  <unicode hex="004B"/>
  <anchor x="269" y="0" name="bottom"/>
  <outline>
    <contour>
      <point x="70" y="0" type="line"/>
      <point x="190" y="0" type="line"/>
      <point x="248" y="330" type="line"/>
      <point x="375" y="0" type="line"/>
      <point x="510" y="0" type="line"/>
      <point x="367" y="355" type="line"/>
      <point x="613" y="700" type="line"/>
      <point x="478" y="700" type="line"/>
      <point x="257" y="380" type="line"/>
      <point x="313" y="700" type="line"/>
      <point x="193" y="700" type="line"/>
    </contour>
  </outline>
</glyph>
<glyph name="L" format="2">
  <advance width="445"/>
  <unicode hex="004C"/>
  <outline>
    <contour>
      <point x="70" y="0" type="line"/>
      <point x="435" y="0" type="line"/>
      <point x="449" y="80" type="line"/>
      <point x="204" y="80" type="line"/>
      <point x="313" y="700" type="line"/>
      <point x="193" y="700" type="line"/>
    </contour>
  </outline>
</glyph>
<glyph name="M" format="2">
  <advance width="760"/>
  <unicode hex="004D"/>
  <outline>
    <contour>
      <point x="50" y="0" type="line"/>
      <point x="165" y="0" type="line"/>
      <point x="275" y="474" type="line"/>
      <point x="279" y="474" type="line"/>
      <point x="339" y="85" type="line"/>
      <point x="449" y="85" type="line"/>
      <point x="647" y="474" type="line"/>
      <point x="651" y="474" type="line"/>
      <point x="595" y="0" type="line"/>
      <point x="710" y="0" type="line"/>
      <point x="793" y="700" type="line"/>
      <point x="663" y="700" type="line"/>
      <point x="421" y="225" type="line"/>
      <point x="417" y="225" type="line"/>
      <point x="343" y="700" type="line"/>
      <point x="213" y="700" type="line"/>
    </contour>
  </outline>
</glyph>
<glyph name="N" format="2">
  <advance width="570"/>
  <unicode hex="004E"/>
  <anchor x="280" y="0" name="bottom"/>
  <anchor x="430" y="700" name="top"/>
  <outline>
    <contour>
      <point x="70" y="0" type="line"/>
      <point x="185" y="0" type="line"/>
      <point x="266" y="460" type="line"/>
      <point x="271" y="460" type="line"/>
      <point x="380" y="0" type="line"/>
      <point x="500" y="0" type="line"/>
      <point x="623" y="700" type="line"/>
      <point x="508" y="700" type="line"/>
      <point x="427" y="240" type="line"/>
      <point x="422" y="240" type="line"/>
      <point x="313" y="700" type="line"/>
      <point x="193" y="700" type="line"/>
    </contour>
  </outline>
</glyph>
<glyph name="O" format="2">
  <advance width="550"/>
  <unicode hex="004F"/>
  <anchor x="275" y="0" name="bottom"/>
  <anchor x="336" y="350" name="center"/>
  <anchor x="275" y="0" name="ogonek"/>
  <anchor x="400" y="700" name="top"/>
  <anchor x="99" y="700" name="topleft"/>
  <anchor x="543" y="700" name="topright"/>
  <outline>
    <contour>
      <point x="273" y="-10" type="curve"/>
      <point x="413" y="-10"/>
      <point x="519" y="80"/>
      <point x="566" y="350" type="curve" smooth="yes"/>
      <point x="614" y="620"/>
      <point x="540" y="710"/>
      <point x="400" y="710" type="curve"/>
      <point x="260" y="710"/>
      <point x="154" y="620"/>
      <point x="106" y="350" type="curve"/>
      <point x="59" y="80"/>
      <point x="133" y="-10"/>
    </contour>
    <contour>
      <point x="285" y="60" type="curve" smooth="yes"/>
      <point x="230" y="60"/>
      <point x="186" y="120"/>
      <point x="226" y="350" type="curve"/>
      <point x="267" y="580"/>
      <point x="332" y="640"/>
      <point x="387" y="640" type="curve"/>
      <point x="442" y="640"/>
      <point x="487" y="580"/>
      <point x="446" y="350" type="curve" smooth="yes"/>
      <point x="406" y="120"/>
      <point x="340" y="60"/>
    </contour>
  </outline>
</glyph>
<glyph name="P" format="2">
  <advance width="515"/>
  <unicode hex="0050"/>
  <outline>
    <contour>
      <point x="70" y="0" type="line"/>
      <point x="190" y="0" type="line"/>
      <point x="227" y="210" type="line"/>
      <point x="251" y="205"/>
      <point x="295" y="200"/>
      <point x="310" y="200" type="curve" smooth="yes"/>
      <point x="445" y="200"/>
      <point x="527" y="270"/>
      <point x="561" y="460" type="curve" smooth="yes"/>
      <point x="592" y="640"/>
      <point x="535" y="710"/>
      <point x="370" y="710" type="curve" smooth="yes"/>
      <point x="295" y="710"/>
      <point x="244" y="705"/>
      <point x="191" y="690" type="curve"/>
    </contour>
    <contour>
      <point x="239" y="280" type="line"/>
      <point x="301" y="635" type="line"/>
      <point x="356" y="635" type="line" smooth="yes"/>
      <point x="431" y="635"/>
      <point x="464" y="595"/>
      <point x="441" y="460" type="curve" smooth="yes"/>
      <point x="416" y="320"/>
      <point x="369" y="280"/>
      <point x="294" y="280" type="curve" smooth="yes"/>
    </contour>
  </outline>
</glyph>
<glyph name="Q" format="2">
  <advance width="555"/>
  <unicode hex="0051"/>
  <outline>
    <contour>
      <point x="273" y="-10" type="curve" smooth="yes"/>
      <point x="548" y="-10" type="line"/>
      <point x="557" y="40" type="line"/>
      <point x="528" y="50"/>
      <point x="500" y="60"/>
      <point x="440" y="60" type="curve"/>
      <point x="489" y="110"/>
      <point x="540" y="200"/>
      <point x="566" y="350" type="curve" smooth="yes"/>
      <point x="614" y="620"/>
      <point x="540" y="710"/>
      <point x="400" y="710" type="curve" smooth="yes"/>
      <point x="260" y="710"/>
      <point x="154" y="620"/>
      <point x="106" y="350" type="curve" smooth="yes"/>
      <point x="59" y="80"/>
      <point x="133" y="-10"/>
    </contour>
    <contour>
      <point x="285" y="60" type="curve" smooth="yes"/>
      <point x="235" y="60"/>
      <point x="184" y="110"/>
      <point x="226" y="350" type="curve" smooth="yes"/>
      <point x="267" y="580"/>
      <point x="332" y="640"/>
      <point x="387" y="640" type="curve" smooth="yes"/>
      <point x="442" y="640"/>
      <point x="487" y="580"/>
      <point x="446" y="350" type="curve" smooth="yes"/>
      <point x="406" y="120"/>
      <point x="340" y="60"/>
    </contour>
  </outline>
</glyph>
<glyph name="T" format="2">
  <advance width="450"/>
  <unicode hex="0054"/>
  <outline>
    <contour>
      <point x="165" y="0" type="line"/>
      <point x="285" y="0" type="line"/>
      <point x="394" y="620" type="line"/>
      <point x="549" y="620" type="line"/>
      <point x="563" y="700" type="line"/>
      <point x="133" y="700" type="line"/>
      <point x="119" y="620" type="line"/>
      <point x="274" y="620" type="line"/>
    </contour>
  </outline>
</glyph>
<glyph name="U" format="2">
  <advance width="550"/>
  <unicode hex="0055"/>
  <anchor x="273" y="0" name="bottom"/>
  <anchor x="451" y="10" name="ogonek"/>
  <anchor x="393" y="700" name="top"/>
  <anchor x="641" y="700" name="topright"/>
  <outline>
    <contour>
      <point x="273" y="-10" type="curve" smooth="yes"/>
      <point x="418" y="-10"/>
      <point x="500" y="60"/>
      <point x="532" y="240" type="curve" smooth="yes"/>
      <point x="613" y="700" type="line"/>
      <point x="493" y="700" type="line"/>
      <point x="412" y="240" type="line" smooth="yes"/>
      <point x="387" y="100"/>
      <point x="340" y="60"/>
      <point x="285" y="60" type="curve" smooth="yes"/>
      <point x="230" y="60"/>
      <point x="197" y="100"/>
      <point x="222" y="240" type="curve" smooth="yes"/>
      <point x="303" y="700" type="line"/>
      <point x="183" y="700" type="line"/>
      <point x="102" y="240" type="line" smooth="yes"/>
      <point x="70" y="60"/>
      <point x="128" y="-10"/>
    </contour>
  </outline>
</glyph>
<glyph name="V" format="2">
  <advance width="520"/>
  <unicode hex="0056"/>
  <outline>
    <contour>
      <point x="185" y="0" type="line"/>
      <point x="335" y="0" type="line"/>
      <point x="628" y="700" type="line"/>
      <point x="503" y="700" type="line"/>
      <point x="289" y="155" type="line"/>
      <point x="285" y="155" type="line"/>
      <point x="263" y="700" type="line"/>
      <point x="138" y="700" type="line"/>
    </contour>
  </outline>
</glyph>
<glyph name="W" format="2">
  <advance width="750"/>
  <unicode hex="0057"/>
  <outline>
    <contour>
      <point x="140" y="0" type="line"/>
      <point x="270" y="0" type="line"/>
      <point x="441" y="390" type="line"/>
      <point x="445" y="390" type="line"/>
      <point x="480" y="0" type="line"/>
      <point x="610" y="0" type="line"/>
      <point x="858" y="700" type="line"/>
      <point x="733" y="700" type="line"/>
      <point x="559" y="195" type="line"/>
      <point x="555" y="195" type="line"/>
      <point x="525" y="570" type="line"/>
      <point x="425" y="570" type="line"/>
      <point x="263" y="195" type="line"/>
      <point x="259" y="195" type="line"/>
      <point x="263" y="700" type="line"/>
      <point x="138" y="700" type="line"/>
    </contour>
  </outline>
</glyph>
<glyph name="X" format="2">
  <advance width="490"/>
  <unicode hex="0058"/>
  <outline>
    <contour>
      <point x="10" y="0" type="line"/>
      <point x="135" y="0" type="line"/>
      <point x="295" y="285" type="line"/>
      <point x="355" y="0" type="line"/>
      <point x="480" y="0" type="line"/>
      <point x="398" y="360" type="line"/>
      <point x="588" y="700" type="line"/>
      <point x="463" y="700" type="line"/>
      <point x="322" y="440" type="line"/>
      <point x="273" y="700" type="line"/>
      <point x="148" y="700" type="line"/>
      <point x="218" y="360" type="line"/>
    </contour>
  </outline>
</glyph>
<glyph name="Y" format="2">
  <advance width="480"/>
  <unicode hex="0059"/>
  <anchor x="242" y="0" name="bottom"/>
  <anchor x="363" y="700" name="top"/>
  <anchor x="99" y="700" name="topleft"/>
  <outline>
    <contour>
      <point x="180" y="0" type="line"/>
      <point x="300" y="0" type="line"/>
      <point x="337" y="210" type="line"/>
      <point x="598" y="700" type="line"/>
      <point x="473" y="700" type="line"/>
      <point x="303" y="358" type="line"/>
      <point x="253" y="700" type="line"/>
      <point x="128" y="700" type="line"/>
      <point x="217" y="210" type="line"/>
    </contour>
  </outline>
</glyph>
<glyph name="Z" format="2">
  <advance width="435"/>
  <unicode hex="005A"/>
  <outline>
    <contour>
      <point x="20" y="0" type="line"/>
      <point x="410" y="0" type="line"/>
      <point x="424" y="80" type="line"/>
      <point x="169" y="80" type="line"/>
      <point x="525" y="625" type="line"/>
      <point x="538" y="700" type="line"/>
      <point x="148" y="700" type="line"/>
      <point x="134" y="620" type="line"/>
      <point x="389" y="620" type="line"/>
      <point x="33" y="75" type="line"/>
    </contour>
  </outline>
</glyph>
<glyph name="bracketleft" format="2">
  <advance width="285"/>
  <unicode hex="005B"/>
  <outline>
    <contour>
      <point x="38" y="-180" type="line"/>
      <point x="253" y="-180" type="line"/>
      <point x="265" y="-110" type="line"/>
      <point x="170" y="-110" type="line"/>
      <point x="308" y="670" type="line"/>
      <point x="403" y="670" type="line"/>
      <point x="415" y="740" type="line"/>
      <point x="200" y="740" type="line"/>
    </contour>
  </outline>
</glyph>
<glyph name="backslash" format="2">
  <advance width="420"/>
  <unicode hex="005C"/>
  <outline>
    <contour>
      <point x="300" y="0" type="line"/>
      <point x="420" y="0" type="line"/>
      <point x="243" y="700" type="line"/>
      <point x="123" y="700" type="line"/>
    </contour>
  </outline>
</glyph>
<glyph name="bracketright" format="2">
  <advance width="285"/>
  <unicode hex="005D"/>
  <outline>
    <contour>
      <point x="-31" y="-180" type="line"/>
      <point x="183" y="-180" type="line"/>
      <point x="345" y="740" type="line"/>
      <point x="130" y="740" type="line"/>
      <point x="118" y="670" type="line"/>
      <point x="213" y="670" type="line"/>
      <point x="75" y="-110" type="line"/>
      <point x="-19" y="-110" type="line"/>
    </contour>
  </outline>
</glyph>
<glyph name="asciicircum" format="2">
  <advance width="475"/>
  <unicode hex="005E"/>
  <outline>
    <contour>
      <point x="184" y="395" type="line"/>
      <point x="339" y="595" type="line"/>
      <point x="344" y="595" type="line"/>
      <point x="429" y="395" type="line"/>
      <point x="524" y="450" type="line"/>
      <point x="413" y="700" type="line"/>
      <point x="308" y="700" type="line"/>
      <point x="109" y="450" type="line"/>
    </contour>
  </outline>
</glyph>
<glyph name="underscore" format="2">
  <advance width="320"/>
  <unicode hex="005F"/>
  <outline>
    <contour>
      <point x="-14" y="-80" type="line"/>
      <point x="305" y="-80" type="line"/>
      <point x="320" y="0" type="line"/>
      <point x="0" y="0" type="line"/>
    </contour>
  </outline>
</glyph>
<glyph name="grave" format="2">
  <advance width="200"/>
  <unicode hex="0060"/>
  <outline>
    <contour>
      <point x="183" y="560" type="line"/>
      <point x="253" y="560" type="line"/>
      <point x="220" y="690" type="line"/>
      <point x="115" y="690" type="line"/>
    </contour>
  </outline>
</glyph>
<glyph name="a" format="2">
  <advance width="490"/>
  <unicode hex="0061"/>
  <anchor x="249" y="0" name="bottom"/>
  <anchor x="397" y="10" name="ogonek"/>
  <anchor x="363" y="500" name="top"/>
  <outline>
    <contour>
      <point x="208" y="-10" type="curve"/>
      <point x="263" y="-10"/>
      <point x="300" y="10"/>
      <point x="325" y="30" type="curve"/>
      <point x="330" y="30" type="line"/>
      <point x="340" y="0" type="line"/>
      <point x="425" y="0" type="line"/>
      <point x="509" y="480" type="line"/>
      <point x="463" y="500"/>
      <point x="419" y="510"/>
      <point x="349" y="510" type="curve" smooth="yes"/>
      <point x="199" y="510"/>
      <point x="117" y="440"/>
      <point x="84" y="250" type="curve" smooth="yes"/>
      <point x="50" y="60"/>
      <point x="108" y="-10"/>
    </contour>
    <contour>
      <point x="260" y="60" type="curve" smooth="yes"/>
      <point x="210" y="60"/>
      <point x="177" y="100"/>
      <point x="204" y="250" type="curve" smooth="yes"/>
      <point x="230" y="400"/>
      <point x="277" y="440"/>
      <point x="337" y="440" type="curve" smooth="yes"/>
      <point x="382" y="440" type="line"/>
      <point x="319" y="80" type="line"/>
      <point x="307" y="70"/>
      <point x="285" y="60"/>
    </contour>
  </outline>
</glyph>
<glyph name="b" format="2">
  <advance width="495"/>
  <unicode hex="0062"/>
  <outline>
    <contour>
      <point x="233" y="-10" type="curve" smooth="yes"/>
      <point x="383" y="-10"/>
      <point x="465" y="60"/>
      <point x="499" y="250" type="curve" smooth="yes"/>
      <point x="532" y="440"/>
      <point x="474" y="510"/>
      <point x="364" y="510" type="curve" smooth="yes"/>
      <point x="329" y="510"/>
      <point x="299" y="500"/>
      <point x="275" y="485" type="curve"/>
      <point x="313" y="700" type="line"/>
      <point x="193" y="700" type="line"/>
      <point x="73" y="20" type="line"/>
      <point x="120" y="0"/>
      <point x="163" y="-10"/>
    </contour>
    <contour>
      <point x="200" y="60" type="line"/>
      <point x="264" y="420" type="line"/>
      <point x="275" y="430"/>
      <point x="297" y="440"/>
      <point x="322" y="440" type="curve" smooth="yes"/>
      <point x="372" y="440"/>
      <point x="405" y="400"/>
      <point x="379" y="250" type="curve" smooth="yes"/>
      <point x="352" y="100"/>
      <point x="305" y="60"/>
      <point x="245" y="60" type="curve" smooth="yes"/>
    </contour>
  </outline>
</glyph>
<glyph name="c" format="2">
  <advance width="395"/>
  <unicode hex="0063"/>
  <anchor x="209" y="0" name="bottom"/>
  <anchor x="337" y="500" name="top"/>
  <outline>
    <contour>
      <point x="248" y="-10" type="curve" smooth="yes"/>
      <point x="298" y="-10"/>
      <point x="350" y="0"/>
      <point x="381" y="10" type="curve"/>
      <point x="390" y="60" type="line"/>
      <point x="280" y="60" type="line" smooth="yes"/>
      <point x="210" y="60"/>
      <point x="177" y="100"/>
      <point x="204" y="250" type="curve" smooth="yes"/>
      <point x="230" y="400"/>
      <point x="277" y="440"/>
      <point x="337" y="440" type="curve" smooth="yes"/>
      <point x="447" y="440" type="line"/>
      <point x="456" y="490" type="line"/>
      <point x="428" y="500"/>
      <point x="379" y="510"/>
      <point x="329" y="510" type="curve" smooth="yes"/>
      <point x="199" y="510"/>
      <point x="117" y="440"/>
      <point x="84" y="250" type="curve" smooth="yes"/>
      <point x="50" y="60"/>
      <point x="108" y="-10"/>
    </contour>
  </outline>
</glyph>
<glyph name="d" format="2">
  <advance width="495"/>
  <unicode hex="0064"/>
  <anchor x="204" y="0" name="bottom"/>
  <anchor x="433" y="600" name="center"/>
  <anchor x="292" y="500" name="top"/>
  <anchor x="519" y="500" name="topright"/>
  <outline>
    <contour>
      <point x="208" y="-10" type="curve" smooth="yes"/>
      <point x="263" y="-10"/>
      <point x="300" y="10"/>
      <point x="325" y="30" type="curve"/>
      <point x="330" y="30" type="line"/>
      <point x="340" y="0" type="line"/>
      <point x="425" y="0" type="line"/>
      <point x="548" y="700" type="line"/>
      <point x="428" y="700" type="line"/>
      <point x="390" y="485" type="line"/>
      <point x="372" y="500"/>
      <point x="344" y="510"/>
      <point x="309" y="510" type="curve" smooth="yes"/>
      <point x="199" y="510"/>
      <point x="117" y="440"/>
      <point x="84" y="250" type="curve" smooth="yes"/>
      <point x="50" y="60"/>
      <point x="108" y="-10"/>
    </contour>
    <contour>
      <point x="260" y="60" type="curve" smooth="yes"/>
      <point x="210" y="60"/>
      <point x="177" y="100"/>
      <point x="204" y="250" type="curve" smooth="yes"/>
      <point x="230" y="400"/>
      <point x="277" y="440"/>
      <point x="327" y="440" type="curve" smooth="yes"/>
      <point x="352" y="440"/>
      <point x="370" y="430"/>
      <point x="379" y="420" type="curve"/>
      <point x="319" y="80" type="line"/>
      <point x="302" y="70"/>
      <point x="285" y="60"/>
    </contour>
  </outline>
</glyph>
<glyph name="h" format="2">
  <advance width="510"/>
  <unicode hex="0068"/>
  <outline>
    <contour>
      <point x="70" y="0" type="line"/>
      <point x="190" y="0" type="line"/>
      <point x="264" y="420" type="line"/>
      <point x="275" y="430"/>
      <point x="297" y="440"/>
      <point x="322" y="440" type="curve" smooth="yes"/>
      <point x="362" y="440"/>
      <point x="399" y="420"/>
      <point x="386" y="350" type="curve" smooth="yes"/>
      <point x="325" y="0" type="line"/>
      <point x="445" y="0" type="line"/>
      <point x="506" y="350" type="line" smooth="yes"/>
      <point x="529" y="480"/>
      <point x="464" y="510"/>
      <point x="379" y="510" type="curve" smooth="yes"/>
      <point x="339" y="510"/>
      <point x="303" y="500"/>
      <point x="274" y="480" type="curve"/>
      <point x="313" y="700" type="line"/>
      <point x="193" y="700" type="line"/>
    </contour>
  </outline>
</glyph>
<glyph name="i" format="2">
  <advance width="260"/>
  <unicode hex="0069"/>
  <anchor x="128" y="0" name="bottom"/>
  <outline>
    <contour>
      <point x="70" y="0" type="line"/>
      <point x="190" y="0" type="line"/>
      <point x="278" y="500" type="line"/>
      <point x="158" y="500" type="line"/>
    </contour>
    <contour>
      <point x="168" y="560" type="line"/>
      <point x="288" y="560" type="line"/>
      <point x="309" y="680" type="line"/>
      <point x="189" y="680" type="line"/>
    </contour>
  </outline>
</glyph>
<glyph name="j" format="2">
  <advance width="265"/>
  <unicode hex="006A"/>
  <outline>
    <contour>
      <point x="2" y="-210" type="curve" smooth="yes"/>
      <point x="87" y="-210"/>
      <point x="163" y="-180"/>
      <point x="187" y="-40" type="curve" smooth="yes"/>
      <point x="283" y="500" type="line"/>
      <point x="163" y="500" type="line"/>
      <point x="67" y="-40" type="line" smooth="yes"/>
      <point x="55" y="-110"/>
      <point x="20" y="-140"/>
      <point x="-14" y="-140" type="curve" smooth="yes"/>
      <point x="-84" y="-140" type="line"/>
      <point x="-93" y="-190" type="line"/>
      <point x="-70" y="-200"/>
      <point x="-37" y="-210"/>
    </contour>
    <contour>
      <point x="173" y="560" type="line"/>
      <point x="293" y="560" type="line"/>
      <point x="314" y="680" type="line"/>
      <point x="194" y="680" type="line"/>
    </contour>
  </outline>
</glyph>
<glyph name="m" format="2">
  <advance width="740"/>
  <unicode hex="006D"/>
  <outline>
    <contour>
      <point x="65" y="0" type="line"/>
      <point x="185" y="0" type="line"/>
      <point x="259" y="420" type="line"/>
      <point x="270" y="430"/>
      <point x="292" y="440"/>
      <point x="317" y="440" type="curve" smooth="yes"/>
      <point x="347" y="440"/>
      <point x="384" y="420"/>
      <point x="371" y="350" type="curve" smooth="yes"/>
      <point x="310" y="0" type="line"/>
      <point x="430" y="0" type="line"/>
      <point x="491" y="350" type="line"/>
      <point x="497" y="380"/>
      <point x="497" y="410"/>
      <point x="494" y="425" type="curve"/>
      <point x="511" y="433"/>
      <point x="532" y="440"/>
      <point x="557" y="440" type="curve" smooth="yes"/>
      <point x="592" y="440"/>
      <point x="629" y="420"/>
      <point x="616" y="350" type="curve" smooth="yes"/>
      <point x="555" y="0" type="line"/>
      <point x="675" y="0" type="line"/>
      <point x="736" y="350" type="line" smooth="yes"/>
      <point x="759" y="480"/>
      <point x="694" y="510"/>
      <point x="614" y="510" type="curve" smooth="yes"/>
      <point x="554" y="510"/>
      <point x="512" y="495"/>
      <point x="477" y="470" type="curve"/>
      <point x="457" y="495"/>
      <point x="424" y="510"/>
      <point x="374" y="510" type="curve" smooth="yes"/>
      <point x="314" y="510"/>
      <point x="277" y="490"/>
      <point x="252" y="470" type="curve"/>
      <point x="247" y="470" type="line"/>
      <point x="238" y="500" type="line"/>
      <point x="153" y="500" type="line"/>
    </contour>
  </outline>
</glyph>
<glyph name="n" format="2">
  <advance width="505"/>
  <unicode hex="006E"/>
  <anchor x="256" y="0" name="bottom"/>
  <anchor x="355" y="500" name="top"/>
  <outline>
    <contour>
      <point x="65" y="0" type="line"/>
      <point x="185" y="0" type="line"/>
      <point x="259" y="420" type="line"/>
      <point x="270" y="430"/>
      <point x="292" y="440"/>
      <point x="317" y="440" type="curve" smooth="yes"/>
      <point x="357" y="440"/>
      <point x="394" y="420"/>
      <point x="381" y="350" type="curve" smooth="yes"/>
      <point x="320" y="0" type="line"/>
      <point x="440" y="0" type="line"/>
      <point x="501" y="350" type="line" smooth="yes"/>
      <point x="524" y="480"/>
      <point x="459" y="510"/>
      <point x="374" y="510" type="curve" smooth="yes"/>
      <point x="314" y="510"/>
      <point x="277" y="490"/>
      <point x="252" y="470" type="curve"/>
      <point x="247" y="470" type="line"/>
      <point x="238" y="500" type="line"/>
      <point x="153" y="500" type="line"/>
    </contour>
  </outline>
</glyph>
<glyph name="o" format="2">
  <advance width="480"/>
  <unicode hex="006F"/>
  <anchor x="244" y="0" name="bottom"/>
  <anchor x="240" y="250" name="center"/>
  <anchor x="388" y="10" name="ogonek"/>
  <anchor x="329" y="500" name="top"/>
  <anchor x="504" y="500" name="topright"/>
  <outline>
    <contour>
      <point x="238" y="-10" type="curve"/>
      <point x="368" y="-10"/>
      <point x="450" y="60"/>
      <point x="484" y="250" type="curve"/>
      <point x="517" y="440"/>
      <point x="459" y="510"/>
      <point x="329" y="510" type="curve"/>
      <point x="199" y="510"/>
      <point x="117" y="440"/>
      <point x="84" y="250" type="curve" smooth="yes"/>
      <point x="50" y="60"/>
      <point x="108" y="-10"/>
    </contour>
    <contour>
      <point x="249" y="55" type="curve"/>
      <point x="204" y="55"/>
      <point x="176" y="95"/>
      <point x="204" y="250" type="curve" smooth="yes"/>
      <point x="231" y="405"/>
      <point x="273" y="445"/>
      <point x="318" y="445" type="curve"/>
      <point x="363" y="445"/>
      <point x="391" y="405"/>
      <point x="364" y="250" type="curve"/>
      <point x="336" y="95"/>
      <point x="294" y="55"/>
    </contour>
  </outline>
</glyph>
<glyph name="p" format="2">
  <advance width="490"/>
  <unicode hex="0070"/>
  <outline>
    <contour>
      <point x="29" y="-200" type="line"/>
      <point x="149" y="-200" type="line"/>
      <point x="187" y="15" type="line"/>
      <point x="206" y="0"/>
      <point x="233" y="-10"/>
      <point x="268" y="-10" type="curve" smooth="yes"/>
      <point x="378" y="-10"/>
      <point x="460" y="60"/>
      <point x="494" y="250" type="curve" smooth="yes"/>
      <point x="527" y="440"/>
      <point x="469" y="510"/>
      <point x="369" y="510" type="curve" smooth="yes"/>
      <point x="314" y="510"/>
      <point x="277" y="490"/>
      <point x="252" y="470" type="curve"/>
      <point x="247" y="470" type="line"/>
      <point x="238" y="500" type="line"/>
      <point x="153" y="500" type="line"/>
    </contour>
    <contour>
      <point x="250" y="60" type="curve" smooth="yes"/>
      <point x="225" y="60"/>
      <point x="207" y="70"/>
      <point x="199" y="80" type="curve"/>
      <point x="259" y="420" type="line"/>
      <point x="275" y="430"/>
      <point x="292" y="440"/>
      <point x="317" y="440" type="curve" smooth="yes"/>
      <point x="367" y="440"/>
      <point x="400" y="400"/>
      <point x="374" y="250" type="curve" smooth="yes"/>
      <point x="347" y="100"/>
      <point x="300" y="60"/>
    </contour>
  </outline>
</glyph>
<glyph name="q" format="2">
  <advance width="490"/>
  <unicode hex="0071"/>
  <outline>
    <contour>
      <point x="269" y="-200" type="line"/>
      <point x="389" y="-200" type="line"/>
      <point x="509" y="480" type="line"/>
      <point x="463" y="500"/>
      <point x="419" y="510"/>
      <point x="349" y="510" type="curve" smooth="yes"/>
      <point x="199" y="510"/>
      <point x="117" y="440"/>
      <point x="84" y="250" type="curve" smooth="yes"/>
      <point x="50" y="60"/>
      <point x="108" y="-10"/>
      <point x="218" y="-10" type="curve" smooth="yes"/>
      <point x="253" y="-10"/>
      <point x="284" y="0"/>
      <point x="307" y="15" type="curve"/>
    </contour>
    <contour>
      <point x="260" y="60" type="curve" smooth="yes"/>
      <point x="210" y="60"/>
      <point x="177" y="100"/>
      <point x="204" y="250" type="curve" smooth="yes"/>
      <point x="230" y="400"/>
      <point x="277" y="440"/>
      <point x="337" y="440" type="curve" smooth="yes"/>
      <point x="382" y="440" type="line"/>
      <point x="319" y="80" type="line"/>
      <point x="307" y="70"/>
      <point x="285" y="60"/>
    </contour>
  </outline>
</glyph>
<glyph name="r" format="2">
  <advance width="360"/>
  <unicode hex="0072"/>
  <anchor x="124" y="0" name="bottom"/>
  <anchor x="297" y="500" name="top"/>
  <outline>
    <contour>
      <point x="65" y="0" type="line"/>
      <point x="185" y="0" type="line"/>
      <point x="254" y="395" type="line"/>
      <point x="266" y="405"/>
      <point x="288" y="415"/>
      <point x="313" y="415" type="curve" smooth="yes"/>
      <point x="423" y="415" type="line"/>
      <point x="438" y="500" type="line"/>
      <point x="373" y="500" type="line"/>
      <point x="313" y="500"/>
      <point x="275" y="480"/>
      <point x="251" y="460" type="curve"/>
      <point x="246" y="460" type="line"/>
      <point x="238" y="500" type="line"/>
      <point x="153" y="500" type="line"/>
    </contour>
  </outline>
</glyph>
<glyph name="t" format="2">
  <advance width="365"/>
  <unicode hex="0074"/>
  <outline>
    <contour>
      <point x="228" y="-10" type="curve" smooth="yes"/>
      <point x="268" y="-10"/>
      <point x="325" y="0"/>
      <point x="351" y="10" type="curve"/>
      <point x="360" y="60" type="line"/>
      <point x="270" y="60" type="line" smooth="yes"/>
      <point x="240" y="60"/>
      <point x="209" y="80"/>
      <point x="223" y="160" type="curve" smooth="yes"/>
      <point x="268" y="415" type="line"/>
      <point x="273" y="415" type="line"/>
      <point x="323" y="415"/>
      <point x="374" y="425"/>
      <point x="406" y="435" type="curve"/>
      <point x="416" y="490" type="line"/>
      <point x="281" y="490" type="line"/>
      <point x="302" y="610" type="line"/>
      <point x="182" y="610" type="line"/>
      <point x="161" y="490" type="line"/>
      <point x="106" y="490" type="line"/>
      <point x="93" y="415" type="line"/>
      <point x="148" y="415" type="line"/>
      <point x="103" y="160" type="line" smooth="yes"/>
      <point x="78" y="20"/>
      <point x="143" y="-10"/>
    </contour>
  </outline>
</glyph>
<glyph name="u" format="2">
  <advance width="505"/>
  <unicode hex="0075"/>
  <anchor x="249" y="0" name="bottom"/>
  <anchor x="410" y="10" name="ogonek"/>
  <anchor x="339" y="500" name="top"/>
  <anchor x="560" y="500" name="topright"/>
  <outline>
    <contour>
      <point x="218" y="-10" type="curve" smooth="yes"/>
      <point x="278" y="-10"/>
      <point x="315" y="10"/>
      <point x="340" y="30" type="curve"/>
      <point x="345" y="30" type="line"/>
      <point x="355" y="0" type="line"/>
      <point x="440" y="0" type="line"/>
      <point x="528" y="500" type="line"/>
      <point x="408" y="500" type="line"/>
      <point x="334" y="80" type="line"/>
      <point x="322" y="70"/>
      <point x="300" y="60"/>
      <point x="275" y="60" type="curve" smooth="yes"/>
      <point x="235" y="60"/>
      <point x="199" y="80"/>
      <point x="211" y="150" type="curve" smooth="yes"/>
      <point x="273" y="500" type="line"/>
      <point x="153" y="500" type="line"/>
      <point x="91" y="150" type="line" smooth="yes"/>
      <point x="68" y="20"/>
      <point x="133" y="-10"/>
    </contour>
  </outline>
</glyph>
<glyph name="v" format="2">
  <advance width="470"/>
  <unicode hex="0076"/>
  <outline>
    <contour>
      <point x="160" y="0" type="line"/>
      <point x="310" y="0" type="line"/>
      <point x="543" y="500" type="line"/>
      <point x="423" y="500" type="line"/>
      <point x="259" y="125" type="line"/>
      <point x="255" y="125" type="line"/>
      <point x="223" y="500" type="line"/>
      <point x="103" y="500" type="line"/>
    </contour>
  </outline>
</glyph>
<glyph name="w" format="2">
  <advance width="650"/>
  <unicode hex="0077"/>
  <outline>
    <contour>
      <point x="115" y="0" type="line"/>
      <point x="245" y="0" type="line"/>
      <point x="366" y="245" type="line"/>
      <point x="370" y="245" type="line"/>
      <point x="405" y="0" type="line"/>
      <point x="535" y="0" type="line"/>
      <point x="723" y="500" type="line"/>
      <point x="603" y="500" type="line"/>
      <point x="480" y="150" type="line"/>
      <point x="476" y="150" type="line"/>
      <point x="440" y="400" type="line"/>
      <point x="350" y="400" type="line"/>
      <point x="226" y="150" type="line"/>
      <point x="222" y="150" type="line"/>
      <point x="223" y="500" type="line"/>
      <point x="103" y="500" type="line"/>
    </contour>
  </outline>
</glyph>
<glyph name="x" format="2">
  <advance width="430"/>
  <unicode hex="0078"/>
  <outline>
    <contour>
      <point x="10" y="0" type="line"/>
      <point x="135" y="0" type="line"/>
      <point x="247" y="185" type="line"/>
      <point x="295" y="0" type="line"/>
      <point x="420" y="0" type="line"/>
      <point x="344" y="255" type="line"/>
      <point x="503" y="500" type="line"/>
      <point x="378" y="500" type="line"/>
      <point x="272" y="325" type="line"/>
      <point x="228" y="500" type="line"/>
      <point x="103" y="500" type="line"/>
      <point x="174" y="255" type="line"/>
    </contour>
  </outline>
</glyph>
<glyph name="z" format="2">
  <advance width="400"/>
  <unicode hex="007A"/>
  <outline>
    <contour>
      <point x="20" y="0" type="line"/>
      <point x="375" y="0" type="line"/>
      <point x="388" y="75" type="line"/>
      <point x="173" y="75" type="line"/>
      <point x="455" y="430" type="line"/>
      <point x="468" y="500" type="line"/>
      <point x="118" y="500" type="line"/>
      <point x="104" y="425" type="line"/>
      <point x="314" y="425" type="line"/>
      <point x="32" y="70" type="line"/>
    </contour>
  </outline>
</glyph>
<glyph name="braceleft" format="2">
  <advance width="300"/>
  <unicode hex="007B"/>
  <outline>
    <contour>
      <point x="268" y="-180" type="curve"/>
      <point x="280" y="-110" type="line"/>
      <point x="235" y="-110"/>
      <point x="197" y="-99"/>
      <point x="213" y="-10" type="curve" smooth="yes"/>
      <point x="232" y="100" type="line" smooth="yes"/>
      <point x="252" y="210"/>
      <point x="218" y="245"/>
      <point x="174" y="278" type="curve"/>
      <point x="174" y="282" type="line"/>
      <point x="230" y="315"/>
      <point x="276" y="350"/>
      <point x="296" y="460" type="curve" smooth="yes"/>
      <point x="315" y="570" type="line"/>
      <point x="329" y="650"/>
      <point x="373" y="670"/>
      <point x="418" y="670" type="curve"/>
      <point x="430" y="740" type="line"/>
      <point x="295" y="740"/>
      <point x="220" y="710"/>
      <point x="195" y="570" type="curve" smooth="yes"/>
      <point x="172" y="440" type="line" smooth="yes"/>
      <point x="158" y="360"/>
      <point x="123" y="330"/>
      <point x="75" y="315" type="curve"/>
      <point x="63" y="245" type="line"/>
      <point x="105" y="230"/>
      <point x="130" y="200"/>
      <point x="116" y="120" type="curve" smooth="yes"/>
      <point x="93" y="-10" type="line" smooth="yes"/>
      <point x="68" y="-150"/>
      <point x="133" y="-180"/>
    </contour>
  </outline>
</glyph>
<glyph name="bar" format="2">
  <advance width="260"/>
  <unicode hex="007C"/>
  <outline>
    <contour>
      <point x="34" y="-200" type="line"/>
      <point x="154" y="-200" type="line"/>
      <point x="313" y="700" type="line"/>
      <point x="193" y="700" type="line"/>
    </contour>
  </outline>
</glyph>
<glyph name="braceright" format="2">
  <advance width="300"/>
  <unicode hex="007D"/>
  <outline>
    <contour>
      <point x="-31" y="-180" type="line"/>
      <point x="103" y="-180"/>
      <point x="178" y="-150"/>
      <point x="203" y="-10" type="curve" smooth="yes"/>
      <point x="226" y="120" type="line" smooth="yes"/>
      <point x="240" y="200"/>
      <point x="275" y="230"/>
      <point x="323" y="245" type="curve"/>
      <point x="335" y="315" type="line"/>
      <point x="293" y="330"/>
      <point x="268" y="360"/>
      <point x="282" y="440" type="curve" smooth="yes"/>
      <point x="305" y="570" type="line" smooth="yes"/>
      <point x="330" y="710"/>
      <point x="265" y="740"/>
      <point x="130" y="740" type="curve"/>
      <point x="118" y="670" type="line"/>
      <point x="163" y="670"/>
      <point x="199" y="650"/>
      <point x="185" y="570" type="curve"/>
      <point x="166" y="460" type="line" smooth="yes"/>
      <point x="146" y="350"/>
      <point x="180" y="315"/>
      <point x="224" y="282" type="curve"/>
      <point x="224" y="278" type="line"/>
      <point x="168" y="245"/>
      <point x="122" y="210"/>
      <point x="102" y="100" type="curve" smooth="yes"/>
      <point x="83" y="-10" type="line" smooth="yes"/>
      <point x="67" y="-99"/>
      <point x="25" y="-110"/>
      <point x="-19" y="-110" type="curve"/>
    </contour>
  </outline>
</glyph>
<glyph name="asciitilde" format="2">
  <advance width="460"/>
  <unicode hex="007E"/>
  <outline>
    <contour>
      <point x="67" y="194" type="curve"/>
      <point x="147" y="194" type="line"/>
      <point x="153" y="239"/>
      <point x="167" y="269"/>
      <point x="197" y="269" type="curve" smooth="yes"/>
      <point x="239" y="269"/>
      <point x="272" y="189"/>
      <point x="347" y="189" type="curve" smooth="yes"/>
      <point x="438" y="189"/>
      <point x="476" y="251"/>
      <point x="492" y="366" type="curve"/>
      <point x="412" y="366" type="line"/>
      <point x="406" y="321"/>
      <point x="391" y="291"/>
      <point x="361" y="291" type="curve" smooth="yes"/>
      <point x="316" y="291"/>
      <point x="291" y="373"/>
      <point x="211" y="373" type="curve" smooth="yes"/>
      <point x="119" y="373"/>
      <point x="85" y="304"/>
    </contour>
  </outline>
</glyph>
<glyph name="exclamdown" format="2">
  <advance width="260"/>
  <unicode hex="00A1"/>
  <outline>
    <contour>
      <point x="60" y="0" type="line"/>
      <point x="200" y="0" type="line"/>
      <point x="270" y="515" type="line"/>
      <point x="170" y="515" type="line"/>
    </contour>
    <contour>
      <point x="174" y="590" type="line"/>
      <point x="294" y="590" type="line"/>
      <point x="315" y="710" type="line"/>
      <point x="195" y="710" type="line"/>
    </contour>
  </outline>
</glyph>
<glyph name="cent" format="2">
  <advance width="395"/>
  <unicode hex="00A2"/>
  <outline>
    <contour>
      <point x="214" y="-60" type="line"/>
      <point x="284" y="-60" type="line"/>
      <point x="293" y="-7" type="line"/>
      <point x="327" y="-4"/>
      <point x="359" y="3"/>
      <point x="381" y="10" type="curve"/>
      <point x="390" y="60" type="line"/>
      <point x="305" y="60" type="line"/>
      <point x="372" y="440" type="line"/>
      <point x="447" y="440" type="line"/>
      <point x="456" y="490" type="line"/>
      <point x="438" y="496"/>
      <point x="412" y="502"/>
      <point x="384" y="506" type="curve"/>
      <point x="395" y="570" type="line"/>
      <point x="325" y="570" type="line"/>
      <point x="314" y="509" type="line"/>
      <point x="192" y="504"/>
      <point x="116" y="432"/>
      <point x="84" y="250" type="curve" smooth="yes"/>
      <point x="52" y="71"/>
      <point x="100" y="-1"/>
      <point x="223" y="-9" type="curve"/>
    </contour>
    <contour>
      <point x="236" y="68" type="line"/>
      <point x="197" y="85"/>
      <point x="183" y="136"/>
      <point x="204" y="250" type="curve" smooth="yes"/>
      <point x="224" y="368"/>
      <point x="258" y="418"/>
      <point x="301" y="434" type="curve"/>
    </contour>
  </outline>
</glyph>
<glyph name="sterling" format="2">
  <advance width="435"/>
  <unicode hex="00A3"/>
  <outline>
    <contour>
      <point x="45" y="0" type="line"/>
      <point x="415" y="0" type="line"/>
      <point x="429" y="80" type="line"/>
      <point x="174" y="80" type="line"/>
      <point x="174" y="84" type="line"/>
      <point x="203" y="105"/>
      <point x="235" y="144"/>
      <point x="251" y="234" type="curve" smooth="yes"/>
      <point x="265" y="315" type="line"/>
      <point x="410" y="315" type="line"/>
      <point x="424" y="395" type="line"/>
      <point x="279" y="395" type="line"/>
      <point x="298" y="500" type="line" smooth="yes"/>
      <point x="318" y="615"/>
      <point x="361" y="635"/>
      <point x="416" y="635" type="curve" smooth="yes"/>
      <point x="516" y="635" type="line"/>
      <point x="526" y="690" type="line"/>
      <point x="503" y="700"/>
      <point x="470" y="710"/>
      <point x="430" y="710" type="curve" smooth="yes"/>
      <point x="285" y="710"/>
      <point x="209" y="680"/>
      <point x="178" y="500" type="curve" smooth="yes"/>
      <point x="159" y="395" type="line"/>
      <point x="104" y="395" type="line"/>
      <point x="90" y="315" type="line"/>
      <point x="145" y="315" type="line"/>
      <point x="127" y="210" type="line" smooth="yes"/>
      <point x="109" y="110"/>
      <point x="89" y="80"/>
      <point x="55" y="60" type="curve"/>
    </contour>
  </outline>
</glyph>
<glyph name="currency" format="2">
  <advance width="520"/>
  <unicode hex="00A4"/>
  <outline>
    <contour>
      <point x="102" y="125" type="line"/>
      <point x="183" y="190" type="line"/>
      <point x="200" y="175"/>
      <point x="238" y="160"/>
      <point x="288" y="160" type="curve"/>
      <point x="338" y="160"/>
      <point x="380" y="175"/>
      <point x="403" y="190" type="curve"/>
      <point x="462" y="125" type="line"/>
      <point x="532" y="185" type="line"/>
      <point x="474" y="255" type="line"/>
      <point x="493" y="275"/>
      <point x="510" y="315"/>
      <point x="516" y="350" type="curve"/>
      <point x="522" y="385"/>
      <point x="519" y="425"/>
      <point x="508" y="445" type="curve"/>
      <point x="590" y="515" type="line"/>
      <point x="541" y="575" type="line"/>
      <point x="459" y="510" type="line"/>
      <point x="442" y="525"/>
      <point x="405" y="540"/>
      <point x="355" y="540" type="curve" smooth="yes"/>
      <point x="305" y="540"/>
      <point x="262" y="525"/>
      <point x="239" y="510" type="curve"/>
      <point x="181" y="575" type="line"/>
      <point x="110" y="515" type="line"/>
      <point x="168" y="445" type="line"/>
      <point x="149" y="425"/>
      <point x="132" y="385"/>
      <point x="126" y="350" type="curve"/>
      <point x="120" y="315"/>
      <point x="123" y="275"/>
      <point x="134" y="255" type="curve"/>
      <point x="52" y="185" type="line"/>
    </contour>
    <contour>
      <point x="301" y="235" type="curve"/>
      <point x="261" y="235"/>
      <point x="228" y="275"/>
      <point x="241" y="350" type="curve"/>
      <point x="254" y="425"/>
      <point x="301" y="465"/>
      <point x="341" y="465" type="curve" smooth="yes"/>
      <point x="381" y="465"/>
      <point x="414" y="425"/>
      <point x="401" y="350" type="curve"/>
      <point x="388" y="275"/>
      <point x="341" y="235"/>
    </contour>
  </outline>
</glyph>
<glyph name="yen" format="2">
  <advance width="480"/>
  <unicode hex="00A5"/>
  <outline>
    <contour>
      <point x="180" y="0" type="line"/>
      <point x="300" y="0" type="line"/>
      <point x="334" y="195" type="line"/>
      <point x="449" y="195" type="line"/>
      <point x="463" y="275" type="line"/>
      <point x="371" y="275" type="line"/>
      <point x="398" y="325" type="line"/>
      <point x="472" y="325" type="line"/>
      <point x="486" y="405" type="line"/>
      <point x="440" y="405" type="line"/>
      <point x="598" y="700" type="line"/>
      <point x="473" y="700" type="line"/>
      <point x="306" y="365" type="line"/>
      <point x="302" y="365" type="line"/>
      <point x="253" y="700" type="line"/>
      <point x="128" y="700" type="line"/>
      <point x="181" y="405" type="line"/>
      <point x="136" y="405" type="line"/>
      <point x="122" y="325" type="line"/>
      <point x="196" y="325" type="line"/>
      <point x="205" y="275" type="line"/>
      <point x="113" y="275" type="line"/>
      <point x="99" y="195" type="line"/>
      <point x="214" y="195" type="line"/>
    </contour>
  </outline>
</glyph>
<glyph name="brokenbar" format="2">
  <advance width="260"/>
  <unicode hex="00A6"/>
  <outline>
    <contour>
      <point x="34" y="-200" type="line"/>
      <point x="154" y="-200" type="line"/>
      <point x="219" y="170" type="line"/>
      <point x="99" y="170" type="line"/>
    </contour>
    <contour>
      <point x="124" y="310" type="line"/>
      <point x="244" y="310" type="line"/>
      <point x="309" y="680" type="line"/>
      <point x="189" y="680" type="line"/>
    </contour>
  </outline>
</glyph>
<glyph name="section" format="2">
  <advance width="465"/>
  <unicode hex="00A7"/>
  <outline>
    <contour>
      <point x="167" y="-210" type="curve" smooth="yes"/>
      <point x="317" y="-210"/>
      <point x="400" y="-140"/>
      <point x="416" y="-50" type="curve" smooth="yes"/>
      <point x="430" y="30"/>
      <point x="392" y="70"/>
      <point x="347" y="100" type="curve"/>
      <point x="402" y="125"/>
      <point x="455" y="174"/>
      <point x="469" y="250" type="curve" smooth="yes"/>
      <point x="505" y="455"/>
      <point x="244" y="425"/>
      <point x="266" y="550" type="curve" smooth="yes"/>
      <point x="275" y="600"/>
      <point x="322" y="640"/>
      <point x="392" y="640" type="curve" smooth="yes"/>
      <point x="517" y="640" type="line"/>
      <point x="526" y="690" type="line"/>
      <point x="498" y="700"/>
      <point x="445" y="710"/>
      <point x="385" y="710" type="curve" smooth="yes"/>
      <point x="245" y="710"/>
      <point x="162" y="640"/>
      <point x="146" y="550" type="curve" smooth="yes"/>
      <point x="132" y="470"/>
      <point x="166" y="435"/>
      <point x="211" y="405" type="curve"/>
      <point x="151" y="375"/>
      <point x="97" y="324"/>
      <point x="84" y="250" type="curve" smooth="yes"/>
      <point x="47" y="45"/>
      <point x="318" y="75"/>
      <point x="296" y="-50" type="curve" smooth="yes"/>
      <point x="287" y="-100"/>
      <point x="240" y="-140"/>
      <point x="160" y="-140" type="curve" smooth="yes"/>
      <point x="35" y="-140" type="line"/>
      <point x="26" y="-190" type="line"/>
      <point x="54" y="-200"/>
      <point x="107" y="-210"/>
    </contour>
    <contour>
      <point x="278" y="135" type="curve"/>
      <point x="233" y="160"/>
      <point x="194" y="195"/>
      <point x="204" y="250" type="curve" smooth="yes"/>
      <point x="214" y="310"/>
      <point x="240" y="345"/>
      <point x="274" y="365" type="curve"/>
      <point x="319" y="340"/>
      <point x="358" y="305"/>
      <point x="349" y="250" type="curve" smooth="yes"/>
      <point x="338" y="190"/>
      <point x="312" y="155"/>
    </contour>
  </outline>
</glyph>
<glyph name="dieresis" format="2">
  <advance width="310"/>
  <unicode hex="00A8"/>
  <outline>
    <contour>
      <point x="280" y="570" type="line"/>
      <point x="390" y="570" type="line"/>
      <point x="411" y="690" type="line"/>
      <point x="301" y="690" type="line"/>
    </contour>
    <contour>
      <point x="120" y="570" type="line"/>
      <point x="230" y="570" type="line"/>
      <point x="251" y="690" type="line"/>
      <point x="141" y="690" type="line"/>
    </contour>
  </outline>
</glyph>
<glyph name="copyright" format="2">
  <advance width="840"/>
  <unicode hex="00A9"/>
  <outline>
    <contour>
      <point x="416" y="-20" type="curve" smooth="yes"/>
      <point x="641" y="-20"/>
      <point x="817" y="130"/>
      <point x="856" y="350" type="curve" smooth="yes"/>
      <point x="895" y="570"/>
      <point x="771" y="720"/>
      <point x="546" y="720" type="curve" smooth="yes"/>
      <point x="321" y="720"/>
      <point x="145" y="570"/>
      <point x="106" y="350" type="curve" smooth="yes"/>
      <point x="67" y="130"/>
      <point x="191" y="-20"/>
    </contour>
    <contour>
      <point x="452" y="130" type="curve" smooth="yes"/>
      <point x="507" y="130"/>
      <point x="559" y="140"/>
      <point x="591" y="150" type="curve"/>
      <point x="600" y="200" type="line"/>
      <point x="485" y="200" type="line" smooth="yes"/>
      <point x="430" y="200"/>
      <point x="393" y="220"/>
      <point x="416" y="350" type="curve" smooth="yes"/>
      <point x="439" y="480"/>
      <point x="483" y="500"/>
      <point x="538" y="500" type="curve" smooth="yes"/>
      <point x="643" y="500" type="line"/>
      <point x="651" y="550" type="line"/>
      <point x="623" y="560"/>
      <point x="585" y="570"/>
      <point x="530" y="570" type="curve" smooth="yes"/>
      <point x="415" y="570"/>
      <point x="338" y="530"/>
      <point x="306" y="350" type="curve" smooth="yes"/>
      <point x="274" y="170"/>
      <point x="337" y="130"/>
    </contour>
    <contour>
      <point x="428" y="50" type="curve" smooth="yes"/>
      <point x="263" y="50"/>
      <point x="173" y="160"/>
      <point x="206" y="350" type="curve" smooth="yes"/>
      <point x="240" y="540"/>
      <point x="369" y="650"/>
      <point x="534" y="650" type="curve" smooth="yes"/>
      <point x="699" y="650"/>
      <point x="790" y="540"/>
      <point x="756" y="350" type="curve" smooth="yes"/>
      <point x="723" y="160"/>
      <point x="593" y="50"/>
    </contour>
  </outline>
</glyph>
<glyph name="ordfeminine" format="2">
  <advance width="305"/>
  <unicode hex="00AA"/>
  <outline>
    <contour>
      <point x="194" y="395" type="curve" smooth="yes"/>
      <point x="224" y="395"/>
      <point x="246" y="405"/>
      <point x="269" y="420" type="curve"/>
      <point x="275" y="400" type="line"/>
      <point x="345" y="400" type="line"/>
      <point x="380" y="600" type="line" smooth="yes"/>
      <point x="395" y="685"/>
      <point x="354" y="705"/>
      <point x="269" y="705" type="curve" smooth="yes"/>
      <point x="234" y="705"/>
      <point x="198" y="700"/>
      <point x="177" y="693" type="curve"/>
      <point x="168" y="645" type="line"/>
      <point x="248" y="645" type="line" smooth="yes"/>
      <point x="283" y="645"/>
      <point x="301" y="630"/>
      <point x="295" y="600" type="curve" smooth="yes"/>
      <point x="293" y="585" type="line"/>
      <point x="293" y="585"/>
      <point x="264" y="590"/>
      <point x="239" y="590" type="curve" smooth="yes"/>
      <point x="179" y="590"/>
      <point x="129" y="565"/>
      <point x="116" y="490" type="curve" smooth="yes"/>
      <point x="104" y="420"/>
      <point x="144" y="395"/>
    </contour>
    <contour>
      <point x="235" y="455" type="curve" smooth="yes"/>
      <point x="210" y="455"/>
      <point x="197" y="470"/>
      <point x="201" y="490" type="curve" smooth="yes"/>
      <point x="205" y="515"/>
      <point x="223" y="530"/>
      <point x="248" y="530" type="curve" smooth="yes"/>
      <point x="283" y="530" type="line"/>
      <point x="271" y="460" type="line"/>
      <point x="271" y="460"/>
      <point x="255" y="455"/>
    </contour>
  </outline>
</glyph>
<glyph name="guillemetleft" format="2">
  <advance width="510"/>
  <unicode hex="00AB"/>
  <outline>
    <contour>
      <point x="398" y="20" type="line"/>
      <point x="493" y="75" type="line"/>
      <point x="393" y="247" type="line"/>
      <point x="394" y="253" type="line"/>
      <point x="554" y="425" type="line"/>
      <point x="479" y="480" type="line"/>
      <point x="264" y="250" type="line"/>
    </contour>
    <contour>
      <point x="198" y="20" type="line"/>
      <point x="293" y="75" type="line"/>
      <point x="193" y="247" type="line"/>
      <point x="194" y="253" type="line"/>
      <point x="354" y="425" type="line"/>
      <point x="279" y="480" type="line"/>
      <point x="64" y="250" type="line"/>
    </contour>
  </outline>
</glyph>
<glyph name="logicalnot" format="2">
  <advance width="445"/>
  <unicode hex="00AC"/>
  <outline>
    <contour>
      <point x="372" y="240" type="line"/>
      <point x="457" y="240" type="line"/>
      <point x="488" y="415" type="line"/>
      <point x="103" y="415" type="line"/>
      <point x="89" y="335" type="line"/>
      <point x="374" y="335" type="line"/>
    </contour>
  </outline>
</glyph>
<glyph name="registered" format="2">
  <advance width="840"/>
  <unicode hex="00AE"/>
  <outline>
    <contour>
      <point x="416" y="-20" type="curve"/>
      <point x="641" y="-20"/>
      <point x="817" y="130"/>
      <point x="856" y="350" type="curve"/>
      <point x="895" y="570"/>
      <point x="771" y="720"/>
      <point x="546" y="720" type="curve" smooth="yes"/>
      <point x="321" y="720"/>
      <point x="145" y="570"/>
      <point x="106" y="350" type="curve"/>
      <point x="67" y="130"/>
      <point x="191" y="-20"/>
    </contour>
    <contour>
      <point x="428" y="50" type="curve"/>
      <point x="263" y="50"/>
      <point x="173" y="160"/>
      <point x="206" y="350" type="curve"/>
      <point x="240" y="540"/>
      <point x="369" y="650"/>
      <point x="534" y="650" type="curve" smooth="yes"/>
      <point x="699" y="650"/>
      <point x="790" y="540"/>
      <point x="756" y="350" type="curve"/>
      <point x="723" y="160"/>
      <point x="593" y="50"/>
    </contour>
    <contour>
      <point x="289" y="140" type="line"/>
      <point x="399" y="140" type="line"/>
      <point x="425" y="285" type="line"/>
      <point x="465" y="285" type="line"/>
      <point x="509" y="140" type="line"/>
      <point x="624" y="140" type="line"/>
      <point x="568" y="305" type="line"/>
      <point x="602" y="320"/>
      <point x="650" y="345"/>
      <point x="665" y="430" type="curve" smooth="yes"/>
      <point x="683" y="530"/>
      <point x="630" y="570"/>
      <point x="510" y="570" type="curve" smooth="yes"/>
      <point x="440" y="570"/>
      <point x="398" y="560"/>
      <point x="361" y="550" type="curve"/>
    </contour>
    <contour>
      <point x="437" y="355" type="line"/>
      <point x="463" y="500" type="line"/>
      <point x="498" y="500" type="line" smooth="yes"/>
      <point x="538" y="500"/>
      <point x="564" y="480"/>
      <point x="555" y="430" type="curve" smooth="yes"/>
      <point x="546" y="375"/>
      <point x="512" y="355"/>
      <point x="472" y="355" type="curve" smooth="yes"/>
    </contour>
  </outline>
</glyph>
<glyph name="macron" format="2">
  <advance width="280"/>
  <unicode hex="00AF"/>
  <outline>
    <contour>
      <point x="131" y="630" type="line"/>
      <point x="371" y="630" type="line"/>
      <point x="383" y="700" type="line"/>
      <point x="143" y="700" type="line"/>
    </contour>
  </outline>
</glyph>
<glyph name="plusminus" format="2">
  <advance width="450"/>
  <unicode hex="00B1"/>
  <outline>
    <contour>
      <point x="206" y="150" type="line"/>
      <point x="296" y="150" type="line"/>
      <point x="322" y="300" type="line"/>
      <point x="472" y="300" type="line"/>
      <point x="487" y="380" type="line"/>
      <point x="337" y="380" type="line"/>
      <point x="365" y="540" type="line"/>
      <point x="275" y="540" type="line"/>
      <point x="247" y="380" type="line"/>
      <point x="97" y="380" type="line"/>
      <point x="82" y="300" type="line"/>
      <point x="232" y="300" type="line"/>
    </contour>
    <contour>
      <point x="37" y="45" type="line"/>
      <point x="427" y="45" type="line"/>
      <point x="442" y="125" type="line"/>
      <point x="52" y="125" type="line"/>
    </contour>
  </outline>
</glyph>
<glyph name="twosuperior" format="2">
  <advance width="270"/>
  <unicode hex="00B2"/>
  <outline>
    <contour>
      <point x="100" y="400" type="line"/>
      <point x="310" y="400" type="line"/>
      <point x="321" y="460" type="line"/>
      <point x="206" y="460" type="line"/>
      <point x="296" y="520"/>
      <point x="338" y="560"/>
      <point x="346" y="605" type="curve" smooth="yes"/>
      <point x="358" y="670"/>
      <point x="329" y="705"/>
      <point x="249" y="705" type="curve" smooth="yes"/>
      <point x="219" y="705"/>
      <point x="183" y="700"/>
      <point x="162" y="694" type="curve"/>
      <point x="153" y="645" type="line"/>
      <point x="223" y="645" type="line" smooth="yes"/>
      <point x="253" y="645"/>
      <point x="265" y="625"/>
      <point x="261" y="605" type="curve" smooth="yes"/>
      <point x="255" y="570"/>
      <point x="191" y="520"/>
      <point x="111" y="465" type="curve"/>
    </contour>
  </outline>
</glyph>
<glyph name="micro" format="2">
  <advance width="505"/>
  <unicode hex="00B5"/>
  <outline>
    <contour>
      <point x="29" y="-200" type="line"/>
      <point x="149" y="-200" type="line"/>
      <point x="187" y="15" type="line"/>
      <point x="195" y="5"/>
      <point x="213" y="-10"/>
      <point x="243" y="-10" type="curve" smooth="yes"/>
      <point x="283" y="-10"/>
      <point x="310" y="5"/>
      <point x="340" y="30" type="curve"/>
      <point x="345" y="30" type="line"/>
      <point x="355" y="0" type="line"/>
      <point x="440" y="0" type="line"/>
      <point x="528" y="500" type="line"/>
      <point x="408" y="500" type="line"/>
      <point x="334" y="80" type="line"/>
      <point x="322" y="70"/>
      <point x="300" y="60"/>
      <point x="275" y="60" type="curve" smooth="yes"/>
      <point x="235" y="60"/>
      <point x="202" y="100"/>
      <point x="214" y="170" type="curve" smooth="yes"/>
      <point x="273" y="500" type="line"/>
      <point x="153" y="500" type="line"/>
    </contour>
  </outline>
</glyph>
<glyph name="paragraph" format="2">
  <advance width="565"/>
  <unicode hex="00B6"/>
  <outline>
    <contour>
      <point x="189" y="-200" type="line"/>
      <point x="299" y="-200" type="line"/>
      <point x="444" y="620" type="line"/>
      <point x="484" y="620" type="line"/>
      <point x="339" y="-200" type="line"/>
      <point x="449" y="-200" type="line"/>
      <point x="594" y="620" type="line"/>
      <point x="654" y="620" type="line"/>
      <point x="668" y="700" type="line"/>
      <point x="348" y="700" type="line" smooth="yes"/>
      <point x="223" y="700"/>
      <point x="137" y="610"/>
      <point x="120" y="515" type="curve" smooth="yes"/>
      <point x="100" y="400"/>
      <point x="158" y="330"/>
      <point x="283" y="330" type="curve"/>
    </contour>
  </outline>
</glyph>
<glyph name="periodcentered" format="2">
  <advance width="280"/>
  <unicode hex="00B7"/>
  <outline>
    <contour>
      <point x="131" y="290" type="line"/>
      <point x="251" y="290" type="line"/>
      <point x="272" y="410" type="line"/>
      <point x="152" y="410" type="line"/>
    </contour>
  </outline>
</glyph>
<glyph name="cedilla" format="2">
  <advance width="215"/>
  <unicode hex="00B8"/>
  <outline>
    <contour>
      <point x="65" y="-170" type="curve" smooth="yes"/>
      <point x="130" y="-170"/>
      <point x="170" y="-140"/>
      <point x="177" y="-100" type="curve" smooth="yes"/>
      <point x="184" y="-60"/>
      <point x="159" y="-30"/>
      <point x="99" y="-30" type="curve" smooth="yes"/>
      <point x="84" y="-30" type="line"/>
      <point x="92" y="15" type="line"/>
      <point x="37" y="15" type="line"/>
      <point x="21" y="-79" type="line"/>
      <point x="76" y="-79" type="line" smooth="yes"/>
      <point x="101" y="-79"/>
      <point x="104" y="-90"/>
      <point x="102" y="-100" type="curve" smooth="yes"/>
      <point x="100" y="-111"/>
      <point x="93" y="-121"/>
      <point x="63" y="-121" type="curve" smooth="yes"/>
      <point x="-1" y="-121" type="line"/>
      <point x="-7" y="-155" type="line"/>
      <point x="-7" y="-155"/>
      <point x="15" y="-170"/>
    </contour>
  </outline>
</glyph>
<glyph name="onesuperior" format="2">
  <advance width="200"/>
  <unicode hex="00B9"/>
  <outline>
    <contour>
      <point x="155" y="400" type="line"/>
      <point x="240" y="400" type="line"/>
      <point x="293" y="700" type="line"/>
      <point x="253" y="700" type="line"/>
      <point x="213" y="700"/>
      <point x="172" y="695"/>
      <point x="151" y="688" type="curve"/>
      <point x="142" y="640" type="line"/>
      <point x="197" y="640" type="line"/>
    </contour>
  </outline>
</glyph>
<glyph name="guillemetright" format="2">
  <advance width="510"/>
  <unicode hex="00BB"/>
  <outline>
    <contour>
      <point x="318" y="20" type="line"/>
      <point x="534" y="250" type="line"/>
      <point x="399" y="480" type="line"/>
      <point x="304" y="425" type="line"/>
      <point x="404" y="253" type="line"/>
      <point x="403" y="247" type="line"/>
      <point x="243" y="75" type="line"/>
    </contour>
    <contour>
      <point x="118" y="20" type="line"/>
      <point x="334" y="250" type="line"/>
      <point x="199" y="480" type="line"/>
      <point x="104" y="425" type="line"/>
      <point x="204" y="253" type="line"/>
      <point x="203" y="247" type="line"/>
      <point x="43" y="75" type="line"/>
    </contour>
  </outline>
</glyph>
<glyph name="onequarter" format="2">
  <advance width="590"/>
  <unicode hex="00BC"/>
  <outline>
    <contour>
      <point x="40" y="0" type="line"/>
      <point x="150" y="0" type="line"/>
      <point x="663" y="700" type="line"/>
      <point x="553" y="700" type="line"/>
    </contour>
    <contour>
      <point x="425" y="0" type="line"/>
      <point x="510" y="0" type="line"/>
      <point x="519" y="55" type="line"/>
      <point x="544" y="55" type="line"/>
      <point x="555" y="115" type="line"/>
      <point x="530" y="115" type="line"/>
      <point x="562" y="300" type="line"/>
      <point x="477" y="300" type="line"/>
      <point x="305" y="115" type="line"/>
      <point x="294" y="55" type="line"/>
      <point x="434" y="55" type="line"/>
    </contour>
    <contour>
      <point x="380" y="115" type="line"/>
      <point x="460" y="200" type="line"/>
      <point x="445" y="115" type="line"/>
    </contour>
    <contour>
      <point x="175" y="400" type="line"/>
      <point x="260" y="400" type="line"/>
      <point x="313" y="700" type="line"/>
      <point x="273" y="700" type="line" smooth="yes"/>
      <point x="233" y="700"/>
      <point x="192" y="695"/>
      <point x="171" y="688" type="curve"/>
      <point x="162" y="640" type="line"/>
      <point x="217" y="640" type="line"/>
    </contour>
  </outline>
</glyph>
<glyph name="onehalf" format="2">
  <advance width="620"/>
  <unicode hex="00BD"/>
  <outline>
    <contour>
      <point x="50" y="0" type="line"/>
      <point x="160" y="0" type="line"/>
      <point x="673" y="700" type="line"/>
      <point x="563" y="700" type="line"/>
    </contour>
    <contour>
      <point x="350" y="0" type="line"/>
      <point x="560" y="0" type="line"/>
      <point x="570" y="60" type="line"/>
      <point x="455" y="60" type="line"/>
      <point x="546" y="120"/>
      <point x="588" y="160"/>
      <point x="596" y="205" type="curve" smooth="yes"/>
      <point x="607" y="270"/>
      <point x="578" y="305"/>
      <point x="498" y="305" type="curve" smooth="yes"/>
      <point x="468" y="305"/>
      <point x="432" y="300"/>
      <point x="411" y="294" type="curve"/>
      <point x="403" y="245" type="line"/>
      <point x="473" y="245" type="line" smooth="yes"/>
      <point x="503" y="245"/>
      <point x="514" y="225"/>
      <point x="511" y="205" type="curve" smooth="yes"/>
      <point x="504" y="170"/>
      <point x="441" y="120"/>
      <point x="361" y="65" type="curve"/>
    </contour>
    <contour>
      <point x="190" y="400" type="line"/>
      <point x="275" y="400" type="line"/>
      <point x="328" y="700" type="line"/>
      <point x="288" y="700" type="line" smooth="yes"/>
      <point x="248" y="700"/>
      <point x="207" y="695"/>
      <point x="186" y="688" type="curve"/>
      <point x="177" y="640" type="line"/>
      <point x="232" y="640" type="line"/>
    </contour>
  </outline>
</glyph>
<glyph name="threequarters" format="2">
  <advance width="605"/>
  <unicode hex="00BE"/>
  <outline>
    <contour>
      <point x="55" y="0" type="line"/>
      <point x="165" y="0" type="line"/>
      <point x="678" y="700" type="line"/>
      <point x="568" y="700" type="line"/>
    </contour>
    <contour>
      <point x="440" y="0" type="line"/>
      <point x="525" y="0" type="line"/>
      <point x="534" y="55" type="line"/>
      <point x="559" y="55" type="line"/>
      <point x="570" y="115" type="line"/>
      <point x="545" y="115" type="line"/>
      <point x="577" y="300" type="line"/>
      <point x="492" y="300" type="line"/>
      <point x="320" y="115" type="line"/>
      <point x="309" y="55" type="line"/>
      <point x="449" y="55" type="line"/>
    </contour>
    <contour>
      <point x="395" y="115" type="line"/>
      <point x="475" y="200" type="line"/>
      <point x="460" y="115" type="line"/>
    </contour>
    <contour>
      <point x="189" y="395" type="curve" smooth="yes"/>
      <point x="274" y="395"/>
      <point x="323" y="415"/>
      <point x="335" y="485" type="curve" smooth="yes"/>
      <point x="343" y="530"/>
      <point x="317" y="555"/>
      <point x="293" y="560" type="curve"/>
      <point x="314" y="565"/>
      <point x="343" y="585"/>
      <point x="349" y="620" type="curve" smooth="yes"/>
      <point x="360" y="685"/>
      <point x="319" y="705"/>
      <point x="249" y="705" type="curve" smooth="yes"/>
      <point x="214" y="705"/>
      <point x="182" y="700"/>
      <point x="162" y="694" type="curve"/>
      <point x="153" y="645" type="line"/>
      <point x="227" y="645" type="line" smooth="yes"/>
      <point x="258" y="645"/>
      <point x="266" y="630"/>
      <point x="263" y="615" type="curve" smooth="yes"/>
      <point x="260" y="600"/>
      <point x="248" y="585"/>
      <point x="223" y="585" type="curve" smooth="yes"/>
      <point x="178" y="585" type="line"/>
      <point x="167" y="525" type="line"/>
      <point x="217" y="525" type="line" smooth="yes"/>
      <point x="242" y="525"/>
      <point x="254" y="510"/>
      <point x="251" y="490" type="curve" smooth="yes"/>
      <point x="247" y="470"/>
      <point x="230" y="455"/>
      <point x="200" y="455" type="curve" smooth="yes"/>
      <point x="120" y="455" type="line"/>
      <point x="111" y="406" type="line"/>
      <point x="130" y="400"/>
      <point x="159" y="395"/>
    </contour>
  </outline>
</glyph>
<glyph name="questiondown" format="2">
  <advance width="395"/>
  <unicode hex="00BF"/>
  <outline>
    <contour>
      <point x="223" y="-10" type="curve" smooth="yes"/>
      <point x="293" y="-10"/>
      <point x="355" y="0"/>
      <point x="386" y="10" type="curve"/>
      <point x="396" y="65" type="line"/>
      <point x="266" y="65" type="line" smooth="yes"/>
      <point x="201" y="65"/>
      <point x="168" y="105"/>
      <point x="181" y="180" type="curve" smooth="yes"/>
      <point x="206" y="320"/>
      <point x="348" y="330"/>
      <point x="380" y="515" type="curve"/>
      <point x="280" y="515" type="line"/>
      <point x="245" y="370"/>
      <point x="91" y="350"/>
      <point x="61" y="180" type="curve" smooth="yes"/>
      <point x="40" y="60"/>
      <point x="98" y="-10"/>
    </contour>
    <contour>
      <point x="284" y="590" type="line"/>
      <point x="404" y="590" type="line"/>
      <point x="425" y="710" type="line"/>
      <point x="305" y="710" type="line"/>
    </contour>
  </outline>
</glyph>
<glyph name="Aacute" format="2">
  <advance width="540"/>
  <unicode hex="00C1"/>
  <outline>
    <contour>
      <point x="15" y="0" type="line"/>
      <point x="140" y="0" type="line"/>
      <point x="214" y="175" type="line"/>
      <point x="386" y="175" type="line"/>
      <point x="400" y="0" type="line"/>
      <point x="525" y="0" type="line"/>
      <point x="468" y="700" type="line"/>
      <point x="318" y="700" type="line"/>
    </contour>
    <contour>
      <point x="244" y="255" type="line"/>
      <point x="363" y="540" type="line"/>
      <point x="367" y="540" type="line"/>
      <point x="383" y="255" type="line"/>
    </contour>
    <contour>
      <point x="362" y="750" type="line"/>
      <point x="437" y="750" type="line"/>
      <point x="535" y="880" type="line"/>
      <point x="420" y="880" type="line"/>
    </contour>
  </outline>
</glyph>
<glyph name="Adieresis" format="2">
  <advance width="540"/>
  <unicode hex="00C4"/>
  <outline>
    <contour>
      <point x="15" y="0" type="line"/>
      <point x="140" y="0" type="line"/>
      <point x="214" y="175" type="line"/>
      <point x="386" y="175" type="line"/>
      <point x="400" y="0" type="line"/>
      <point x="525" y="0" type="line"/>
      <point x="468" y="700" type="line"/>
      <point x="318" y="700" type="line"/>
    </contour>
    <contour>
      <point x="244" y="255" type="line"/>
      <point x="363" y="540" type="line"/>
      <point x="367" y="540" type="line"/>
      <point x="383" y="255" type="line"/>
    </contour>
    <contour>
      <point x="267" y="750" type="line"/>
      <point x="377" y="750" type="line"/>
      <point x="398" y="870" type="line"/>
      <point x="288" y="870" type="line"/>
    </contour>
    <contour>
      <point x="427" y="750" type="line"/>
      <point x="537" y="750" type="line"/>
      <point x="558" y="870" type="line"/>
      <point x="448" y="870" type="line"/>
    </contour>
  </outline>
</glyph>
<glyph name="Aring" format="2">
  <advance width="540"/>
  <unicode hex="00C5"/>
  <outline>
    <contour>
      <point x="15" y="0" type="line"/>
      <point x="140" y="0" type="line"/>
      <point x="214" y="175" type="line"/>
      <point x="386" y="175" type="line"/>
      <point x="400" y="0" type="line"/>
      <point x="525" y="0" type="line"/>
      <point x="468" y="700" type="line"/>
      <point x="318" y="700" type="line"/>
    </contour>
    <contour>
      <point x="244" y="255" type="line"/>
      <point x="363" y="540" type="line"/>
      <point x="367" y="540" type="line"/>
      <point x="383" y="255" type="line"/>
    </contour>
    <contour>
      <point x="397" y="725" type="curve" smooth="yes"/>
      <point x="452" y="725"/>
      <point x="499" y="760"/>
      <point x="507" y="810" type="curve" smooth="yes"/>
      <point x="516" y="860"/>
      <point x="482" y="895"/>
      <point x="427" y="895" type="curve" smooth="yes"/>
      <point x="372" y="895"/>
      <point x="326" y="860"/>
      <point x="317" y="810" type="curve" smooth="yes"/>
      <point x="309" y="760"/>
      <point x="342" y="725"/>
    </contour>
    <contour>
      <point x="407" y="780" type="curve" smooth="yes"/>
      <point x="392" y="780"/>
      <point x="379" y="790"/>
      <point x="382" y="810" type="curve" smooth="yes"/>
      <point x="386" y="830"/>
      <point x="403" y="840"/>
      <point x="418" y="840" type="curve" smooth="yes"/>
      <point x="433" y="840"/>
      <point x="446" y="830"/>
      <point x="442" y="810" type="curve" smooth="yes"/>
      <point x="439" y="790"/>
      <point x="422" y="780"/>
    </contour>
  </outline>
</glyph>
<glyph name="AE" format="2">
  <advance width="755"/>
  <unicode hex="00C6"/>
  <outline>
    <contour>
      <point x="0" y="0" type="line"/>
      <point x="119" y="0" type="line"/>
      <point x="210" y="175" type="line"/>
      <point x="380" y="175" type="line"/>
      <point x="350" y="0" type="line"/>
      <point x="715" y="0" type="line"/>
      <point x="729" y="80" type="line"/>
      <point x="484" y="80" type="line"/>
      <point x="527" y="325" type="line"/>
      <point x="742" y="325" type="line"/>
      <point x="756" y="405" type="line"/>
      <point x="541" y="405" type="line"/>
      <point x="579" y="620" type="line"/>
      <point x="824" y="620" type="line"/>
      <point x="838" y="700" type="line"/>
      <point x="363" y="700" type="line"/>
    </contour>
    <contour>
      <point x="251" y="255" type="line"/>
      <point x="440" y="620" type="line"/>
      <point x="459" y="620" type="line"/>
      <point x="394" y="255" type="line"/>
    </contour>
  </outline>
</glyph>
<glyph name="Ccedilla" format="2">
  <advance width="455"/>
  <unicode hex="00C7"/>
  <outline>
    <contour>
      <point x="250" y="-170" type="curve" smooth="yes"/>
      <point x="315" y="-170"/>
      <point x="355" y="-140"/>
      <point x="362" y="-100" type="curve" smooth="yes"/>
      <point x="369" y="-60"/>
      <point x="344" y="-30"/>
      <point x="284" y="-30" type="curve" smooth="yes"/>
      <point x="269" y="-30" type="line"/>
      <point x="273" y="-10" type="line"/>
      <point x="283" y="-10" type="line" smooth="yes"/>
      <point x="353" y="-10"/>
      <point x="410" y="0"/>
      <point x="441" y="10" type="curve"/>
      <point x="451" y="65" type="line"/>
      <point x="331" y="65" type="line" smooth="yes"/>
      <point x="236" y="65"/>
      <point x="187" y="125"/>
      <point x="226" y="350" type="curve" smooth="yes"/>
      <point x="266" y="575"/>
      <point x="336" y="635"/>
      <point x="421" y="635" type="curve" smooth="yes"/>
      <point x="541" y="635" type="line"/>
      <point x="551" y="690" type="line"/>
      <point x="523" y="700"/>
      <point x="465" y="710"/>
      <point x="395" y="710" type="curve" smooth="yes"/>
      <point x="250" y="710"/>
      <point x="156" y="630"/>
      <point x="106" y="350" type="curve" smooth="yes"/>
      <point x="64" y="112"/>
      <point x="109" y="18"/>
      <point x="219" y="-4" type="curve"/>
      <point x="206" y="-79" type="line"/>
      <point x="261" y="-79" type="line" smooth="yes"/>
      <point x="286" y="-79"/>
      <point x="289" y="-90"/>
      <point x="287" y="-100" type="curve" smooth="yes"/>
      <point x="285" y="-111"/>
      <point x="278" y="-121"/>
      <point x="248" y="-121" type="curve" smooth="yes"/>
      <point x="183" y="-121" type="line"/>
      <point x="177" y="-155" type="line"/>
      <point x="177" y="-155"/>
      <point x="200" y="-170"/>
    </contour>
  </outline>
</glyph>
<glyph name="Igrave" format="2">
  <advance width="255"/>
  <unicode hex="00CC"/>
  <outline>
    <contour>
      <point x="65" y="0" type="line"/>
      <point x="185" y="0" type="line"/>
      <point x="308" y="700" type="line"/>
      <point x="188" y="700" type="line"/>
    </contour>
    <contour>
      <point x="222" y="750" type="line"/>
      <point x="297" y="750" type="line"/>
      <point x="285" y="880" type="line"/>
      <point x="170" y="880" type="line"/>
    </contour>
  </outline>
</glyph>
<glyph name="Iacute" format="2">
  <advance width="255"/>
  <unicode hex="00CD"/>
  <outline>
    <contour>
      <point x="70" y="0" type="line"/>
      <point x="190" y="0" type="line"/>
      <point x="313" y="700" type="line"/>
      <point x="193" y="700" type="line"/>
    </contour>
    <contour>
      <point x="222" y="750" type="line"/>
      <point x="297" y="750" type="line"/>
      <point x="395" y="880" type="line"/>
      <point x="280" y="880" type="line"/>
    </contour>
  </outline>
</glyph>
<glyph name="Icircumflex" format="2">
  <advance width="235"/>
  <unicode hex="00CE"/>
  <outline>
    <contour>
      <point x="55" y="0" type="line"/>
      <point x="175" y="0" type="line"/>
      <point x="298" y="700" type="line"/>
      <point x="178" y="700" type="line"/>
    </contour>
    <contour>
      <point x="117" y="750" type="line"/>
      <point x="193" y="750" type="line"/>
      <point x="261" y="820" type="line"/>
      <point x="305" y="750" type="line"/>
      <point x="382" y="750" type="line"/>
      <point x="325" y="880" type="line"/>
      <point x="220" y="880" type="line"/>
    </contour>
  </outline>
</glyph>
<glyph name="Idieresis" format="2">
  <advance width="250"/>
  <unicode hex="00CF"/>
  <outline>
    <contour>
      <point x="65" y="0" type="line"/>
      <point x="185" y="0" type="line"/>
      <point x="308" y="700" type="line"/>
      <point x="188" y="700" type="line"/>
    </contour>
    <contour>
      <point x="124" y="760" type="line"/>
      <point x="234" y="760" type="line"/>
      <point x="255" y="880" type="line"/>
      <point x="145" y="880" type="line"/>
    </contour>
    <contour>
      <point x="284" y="760" type="line"/>
      <point x="394" y="760" type="line"/>
      <point x="415" y="880" type="line"/>
      <point x="305" y="880" type="line"/>
    </contour>
  </outline>
</glyph>
<glyph name="Eth" format="2">
  <advance width="560"/>
  <unicode hex="00D0"/>
  <outline>
    <contour>
      <point x="258" y="-10" type="curve" smooth="yes"/>
      <point x="423" y="-10"/>
      <point x="529" y="80"/>
      <point x="576" y="350" type="curve" smooth="yes"/>
      <point x="624" y="620"/>
      <point x="550" y="710"/>
      <point x="385" y="710" type="curve" smooth="yes"/>
      <point x="310" y="710"/>
      <point x="259" y="705"/>
      <point x="206" y="690" type="curve"/>
      <point x="154" y="395" type="line"/>
      <point x="79" y="395" type="line"/>
      <point x="65" y="315" type="line"/>
      <point x="140" y="315" type="line"/>
      <point x="86" y="10" type="line"/>
      <point x="134" y="-5"/>
      <point x="183" y="-10"/>
    </contour>
    <contour>
      <point x="216" y="65" type="line"/>
      <point x="260" y="315" type="line"/>
      <point x="365" y="315" type="line"/>
      <point x="379" y="395" type="line"/>
      <point x="274" y="395" type="line"/>
      <point x="316" y="635" type="line"/>
      <point x="371" y="635" type="line"/>
      <point x="451" y="635"/>
      <point x="496" y="575"/>
      <point x="456" y="350" type="curve" smooth="yes"/>
      <point x="417" y="125"/>
      <point x="351" y="65"/>
      <point x="271" y="65" type="curve"/>
    </contour>
  </outline>
</glyph>
<glyph name="Oacute" format="2">
  <advance width="550"/>
  <unicode hex="00D3"/>
  <outline>
    <contour>
      <point x="273" y="-10" type="curve"/>
      <point x="413" y="-10"/>
      <point x="519" y="80"/>
      <point x="566" y="350" type="curve" smooth="yes"/>
      <point x="614" y="620"/>
      <point x="540" y="710"/>
      <point x="400" y="710" type="curve"/>
      <point x="260" y="710"/>
      <point x="154" y="620"/>
      <point x="106" y="350" type="curve"/>
      <point x="59" y="80"/>
      <point x="133" y="-10"/>
    </contour>
    <contour>
      <point x="285" y="60" type="curve" smooth="yes"/>
      <point x="230" y="60"/>
      <point x="186" y="120"/>
      <point x="226" y="350" type="curve"/>
      <point x="267" y="580"/>
      <point x="332" y="640"/>
      <point x="387" y="640" type="curve"/>
      <point x="442" y="640"/>
      <point x="487" y="580"/>
      <point x="446" y="350" type="curve" smooth="yes"/>
      <point x="406" y="120"/>
      <point x="340" y="60"/>
    </contour>
    <contour>
      <point x="364" y="760" type="line"/>
      <point x="439" y="760" type="line"/>
      <point x="536" y="890" type="line"/>
      <point x="421" y="890" type="line"/>
    </contour>
  </outline>
</glyph>
<glyph name="Odieresis" format="2">
  <advance width="550"/>
  <unicode hex="00D6"/>
  <outline>
    <contour>
      <point x="273" y="-10" type="curve"/>
      <point x="413" y="-10"/>
      <point x="519" y="80"/>
      <point x="566" y="350" type="curve" smooth="yes"/>
      <point x="614" y="620"/>
      <point x="540" y="710"/>
      <point x="400" y="710" type="curve"/>
      <point x="260" y="710"/>
      <point x="154" y="620"/>
      <point x="106" y="350" type="curve"/>
      <point x="59" y="80"/>
      <point x="133" y="-10"/>
    </contour>
    <contour>
      <point x="285" y="60" type="curve" smooth="yes"/>
      <point x="230" y="60"/>
      <point x="186" y="120"/>
      <point x="226" y="350" type="curve"/>
      <point x="267" y="580"/>
      <point x="332" y="640"/>
      <point x="387" y="640" type="curve"/>
      <point x="442" y="640"/>
      <point x="487" y="580"/>
      <point x="446" y="350" type="curve" smooth="yes"/>
      <point x="406" y="120"/>
      <point x="340" y="60"/>
    </contour>
    <contour>
      <point x="274" y="760" type="line"/>
      <point x="384" y="760" type="line"/>
      <point x="405" y="880" type="line"/>
      <point x="295" y="880" type="line"/>
    </contour>
    <contour>
      <point x="434" y="760" type="line"/>
      <point x="544" y="760" type="line"/>
      <point x="565" y="880" type="line"/>
      <point x="455" y="880" type="line"/>
    </contour>
  </outline>
</glyph>
<glyph name="multiply" format="2">
  <advance width="420"/>
  <unicode hex="00D7"/>
  <outline>
    <contour>
      <point x="128" y="160" type="line"/>
      <point x="257" y="270" type="line"/>
      <point x="348" y="160" type="line"/>
      <point x="418" y="220" type="line"/>
      <point x="328" y="330" type="line"/>
      <point x="457" y="440" type="line"/>
      <point x="408" y="500" type="line"/>
      <point x="278" y="390" type="line"/>
      <point x="188" y="500" type="line"/>
      <point x="117" y="440" type="line"/>
      <point x="208" y="330" type="line"/>
      <point x="78" y="220" type="line"/>
    </contour>
  </outline>
</glyph>
<glyph name="Oslash" format="2">
  <advance width="550"/>
  <unicode hex="00D8"/>
  <outline>
    <contour>
      <point x="273" y="-10" type="curve" smooth="yes"/>
      <point x="413" y="-10"/>
      <point x="519" y="80"/>
      <point x="566" y="350" type="curve" smooth="yes"/>
      <point x="583" y="447"/>
      <point x="584" y="520"/>
      <point x="573" y="575" type="curve"/>
      <point x="639" y="650" type="line"/>
      <point x="596" y="690" type="line"/>
      <point x="550" y="637" type="line"/>
      <point x="519" y="689"/>
      <point x="467" y="710"/>
      <point x="400" y="710" type="curve" smooth="yes"/>
      <point x="260" y="710"/>
      <point x="154" y="620"/>
      <point x="106" y="350" type="curve" smooth="yes"/>
      <point x="89" y="253"/>
      <point x="88" y="180"/>
      <point x="100" y="125" type="curve"/>
      <point x="33" y="50" type="line"/>
      <point x="76" y="10" type="line"/>
      <point x="122" y="62" type="line"/>
      <point x="153" y="11"/>
      <point x="205" y="-10"/>
    </contour>
    <contour>
      <point x="285" y="60" type="curve" smooth="yes"/>
      <point x="249" y="60"/>
      <point x="218" y="85"/>
      <point x="211" y="164" type="curve"/>
      <point x="459" y="445" type="line"/>
      <point x="456" y="417"/>
      <point x="453" y="386"/>
      <point x="446" y="350" type="curve" smooth="yes"/>
      <point x="406" y="120"/>
      <point x="340" y="60"/>
    </contour>
    <contour>
      <point x="213" y="254" type="line"/>
      <point x="215" y="282"/>
      <point x="220" y="314"/>
      <point x="226" y="350" type="curve" smooth="yes"/>
      <point x="267" y="580"/>
      <point x="332" y="640"/>
      <point x="387" y="640" type="curve" smooth="yes"/>
      <point x="422" y="640"/>
      <point x="454" y="615"/>
      <point x="460" y="535" type="curve"/>
    </contour>
  </outline>
</glyph>
<glyph name="Ugrave" format="2">
  <advance width="550"/>
  <unicode hex="00D9"/>
  <outline>
    <contour>
      <point x="273" y="-10" type="curve" smooth="yes"/>
      <point x="418" y="-10"/>
      <point x="500" y="60"/>
      <point x="532" y="240" type="curve" smooth="yes"/>
      <point x="613" y="700" type="line"/>
      <point x="493" y="700" type="line"/>
      <point x="412" y="240" type="line" smooth="yes"/>
      <point x="387" y="100"/>
      <point x="340" y="60"/>
      <point x="285" y="60" type="curve" smooth="yes"/>
      <point x="230" y="60"/>
      <point x="197" y="100"/>
      <point x="222" y="240" type="curve" smooth="yes"/>
      <point x="303" y="700" type="line"/>
      <point x="183" y="700" type="line"/>
      <point x="102" y="240" type="line" smooth="yes"/>
      <point x="70" y="60"/>
      <point x="128" y="-10"/>
    </contour>
    <contour>
      <point x="375" y="740" type="line"/>
      <point x="450" y="740" type="line"/>
      <point x="438" y="870" type="line"/>
      <point x="323" y="870" type="line"/>
    </contour>
  </outline>
</glyph>
<glyph name="Uacute" format="2">
  <advance width="550"/>
  <unicode hex="00DA"/>
  <outline>
    <contour>
      <point x="273" y="-10" type="curve" smooth="yes"/>
      <point x="418" y="-10"/>
      <point x="500" y="60"/>
      <point x="532" y="240" type="curve" smooth="yes"/>
      <point x="613" y="700" type="line"/>
      <point x="493" y="700" type="line"/>
      <point x="412" y="240" type="line" smooth="yes"/>
      <point x="387" y="100"/>
      <point x="340" y="60"/>
      <point x="285" y="60" type="curve" smooth="yes"/>
      <point x="230" y="60"/>
      <point x="197" y="100"/>
      <point x="222" y="240" type="curve" smooth="yes"/>
      <point x="303" y="700" type="line"/>
      <point x="183" y="700" type="line"/>
      <point x="102" y="240" type="line" smooth="yes"/>
      <point x="70" y="60"/>
      <point x="128" y="-10"/>
    </contour>
    <contour>
      <point x="360" y="740" type="line"/>
      <point x="435" y="740" type="line"/>
      <point x="533" y="870" type="line"/>
      <point x="418" y="870" type="line"/>
    </contour>
  </outline>
</glyph>
<glyph name="Ucircumflex" format="2">
  <advance width="550"/>
  <unicode hex="00DB"/>
  <outline>
    <contour>
      <point x="273" y="-10" type="curve" smooth="yes"/>
      <point x="418" y="-10"/>
      <point x="500" y="60"/>
      <point x="532" y="240" type="curve" smooth="yes"/>
      <point x="613" y="700" type="line"/>
      <point x="493" y="700" type="line"/>
      <point x="412" y="240" type="line" smooth="yes"/>
      <point x="387" y="100"/>
      <point x="340" y="60"/>
      <point x="285" y="60" type="curve" smooth="yes"/>
      <point x="230" y="60"/>
      <point x="197" y="100"/>
      <point x="222" y="240" type="curve" smooth="yes"/>
      <point x="303" y="700" type="line"/>
      <point x="183" y="700" type="line"/>
      <point x="102" y="240" type="line" smooth="yes"/>
      <point x="70" y="60"/>
      <point x="128" y="-10"/>
    </contour>
    <contour>
      <point x="273" y="740" type="line"/>
      <point x="349" y="740" type="line"/>
      <point x="417" y="810" type="line"/>
      <point x="461" y="740" type="line"/>
      <point x="538" y="740" type="line"/>
      <point x="481" y="870" type="line"/>
      <point x="376" y="870" type="line"/>
    </contour>
  </outline>
</glyph>
<glyph name="Yacute" format="2">
  <advance width="480"/>
  <unicode hex="00DD"/>
  <outline>
    <contour>
      <point x="180" y="0" type="line"/>
      <point x="300" y="0" type="line"/>
      <point x="337" y="210" type="line"/>
      <point x="598" y="700" type="line"/>
      <point x="473" y="700" type="line"/>
      <point x="303" y="358" type="line"/>
      <point x="253" y="700" type="line"/>
      <point x="128" y="700" type="line"/>
      <point x="217" y="210" type="line"/>
    </contour>
    <contour>
      <point x="329" y="740" type="line"/>
      <point x="404" y="740" type="line"/>
      <point x="502" y="870" type="line"/>
      <point x="387" y="870" type="line"/>
    </contour>
  </outline>
</glyph>
<glyph name="Thorn" format="2">
  <advance width="525"/>
  <unicode hex="00DE"/>
  <outline>
    <contour>
      <point x="68" y="-10" type="line"/>
      <point x="188" y="-10" type="line"/>
      <point x="201" y="65" type="line"/>
      <point x="413" y="75"/>
      <point x="520" y="175"/>
      <point x="551" y="350" type="curve" smooth="yes"/>
      <point x="582" y="525"/>
      <point x="510" y="625"/>
      <point x="301" y="635" type="curve"/>
      <point x="315" y="710" type="line"/>
      <point x="195" y="710" type="line"/>
    </contour>
    <contour>
      <point x="214" y="140" type="curve"/>
      <point x="288" y="560" type="line"/>
      <point x="397" y="555"/>
      <point x="454" y="480"/>
      <point x="431" y="350" type="curve" smooth="yes"/>
      <point x="408" y="220"/>
      <point x="325" y="145"/>
    </contour>
  </outline>
</glyph>
<glyph name="germandbls" format="2">
  <advance width="550"/>
  <unicode hex="00DF"/>
  <outline>
    <contour>
      <point x="338" y="-10" type="curve" smooth="yes"/>
      <point x="453" y="-10"/>
      <point x="528" y="20"/>
      <point x="548" y="135" type="curve" smooth="yes"/>
      <point x="573" y="275"/>
      <point x="412" y="295"/>
      <point x="424" y="365" type="curve" smooth="yes"/>
      <point x="436" y="435"/>
      <point x="543" y="445"/>
      <point x="561" y="550" type="curve" smooth="yes"/>
      <point x="577" y="640"/>
      <point x="520" y="710"/>
      <point x="395" y="710" type="curve" smooth="yes"/>
      <point x="260" y="710"/>
      <point x="177" y="640"/>
      <point x="152" y="495" type="curve" smooth="yes"/>
      <point x="65" y="0" type="line"/>
      <point x="185" y="0" type="line"/>
      <point x="272" y="495" type="line" smooth="yes"/>
      <point x="289" y="595"/>
      <point x="336" y="635"/>
      <point x="381" y="635" type="curve" smooth="yes"/>
      <point x="416" y="635"/>
      <point x="452" y="610"/>
      <point x="441" y="550" type="curve" smooth="yes"/>
      <point x="428" y="475"/>
      <point x="320" y="455"/>
      <point x="304" y="365" type="curve" smooth="yes"/>
      <point x="281" y="235"/>
      <point x="446" y="235"/>
      <point x="428" y="135" type="curve" smooth="yes"/>
      <point x="419" y="80"/>
      <point x="375" y="60"/>
      <point x="330" y="60" type="curve" smooth="yes"/>
      <point x="245" y="60" type="line"/>
      <point x="236" y="10" type="line"/>
      <point x="265" y="0"/>
      <point x="308" y="-10"/>
    </contour>
  </outline>
</glyph>
<glyph name="aacute" format="2">
  <advance width="490"/>
  <unicode hex="00E1"/>
  <outline>
    <contour>
      <point x="208" y="-10" type="curve" smooth="yes"/>
      <point x="263" y="-10"/>
      <point x="300" y="10"/>
      <point x="325" y="30" type="curve"/>
      <point x="330" y="30" type="line"/>
      <point x="340" y="0" type="line"/>
      <point x="425" y="0" type="line"/>
      <point x="509" y="480" type="line"/>
      <point x="463" y="500"/>
      <point x="419" y="510"/>
      <point x="349" y="510" type="curve" smooth="yes"/>
      <point x="199" y="510"/>
      <point x="117" y="440"/>
      <point x="84" y="250" type="curve" smooth="yes"/>
      <point x="50" y="60"/>
      <point x="108" y="-10"/>
    </contour>
    <contour>
      <point x="260" y="60" type="curve" smooth="yes"/>
      <point x="210" y="60"/>
      <point x="177" y="100"/>
      <point x="204" y="250" type="curve" smooth="yes"/>
      <point x="230" y="400"/>
      <point x="277" y="440"/>
      <point x="337" y="440" type="curve" smooth="yes"/>
      <point x="382" y="440" type="line"/>
      <point x="319" y="80" type="line"/>
      <point x="307" y="70"/>
      <point x="285" y="60"/>
    </contour>
    <contour>
      <point x="308" y="560" type="line"/>
      <point x="383" y="560" type="line"/>
      <point x="481" y="690" type="line"/>
      <point x="366" y="690" type="line"/>
    </contour>
  </outline>
</glyph>
<glyph name="ccedilla" format="2">
  <advance width="395"/>
  <unicode hex="00E7"/>
  <outline>
    <contour>
      <point x="210" y="-170" type="curve" smooth="yes"/>
      <point x="275" y="-170"/>
      <point x="315" y="-140"/>
      <point x="322" y="-100" type="curve" smooth="yes"/>
      <point x="329" y="-60"/>
      <point x="304" y="-30"/>
      <point x="244" y="-30" type="curve" smooth="yes"/>
      <point x="229" y="-30" type="line"/>
      <point x="233" y="-10" type="line"/>
      <point x="232" y="-9" type="line"/>
      <point x="237" y="-9"/>
      <point x="242" y="-10"/>
      <point x="248" y="-10" type="curve" smooth="yes"/>
      <point x="298" y="-10"/>
      <point x="350" y="0"/>
      <point x="381" y="10" type="curve"/>
      <point x="390" y="60" type="line"/>
      <point x="280" y="60" type="line" smooth="yes"/>
      <point x="210" y="60"/>
      <point x="177" y="100"/>
      <point x="204" y="250" type="curve" smooth="yes"/>
      <point x="230" y="400"/>
      <point x="277" y="440"/>
      <point x="337" y="440" type="curve" smooth="yes"/>
      <point x="447" y="440" type="line"/>
      <point x="456" y="490" type="line"/>
      <point x="428" y="500"/>
      <point x="379" y="510"/>
      <point x="329" y="510" type="curve" smooth="yes"/>
      <point x="199" y="510"/>
      <point x="117" y="440"/>
      <point x="84" y="250" type="curve" smooth="yes"/>
      <point x="56" y="95"/>
      <point x="90" y="20"/>
      <point x="179" y="-2" type="curve"/>
      <point x="166" y="-79" type="line"/>
      <point x="221" y="-79" type="line" smooth="yes"/>
      <point x="246" y="-79"/>
      <point x="249" y="-90"/>
      <point x="247" y="-100" type="curve" smooth="yes"/>
      <point x="245" y="-111"/>
      <point x="238" y="-121"/>
      <point x="208" y="-121" type="curve" smooth="yes"/>
      <point x="143" y="-121" type="line"/>
      <point x="137" y="-155" type="line"/>
      <point x="137" y="-155"/>
      <point x="160" y="-170"/>
    </contour>
  </outline>
</glyph>
<glyph name="edieresis" format="2">
  <advance width="465"/>
  <unicode hex="00EB"/>
  <outline>
    <contour>
      <point x="263" y="-10" type="curve" smooth="yes"/>
      <point x="313" y="-10"/>
      <point x="365" y="0"/>
      <point x="396" y="10" type="curve"/>
      <point x="405" y="60" type="line"/>
      <point x="295" y="60" type="line" smooth="yes"/>
      <point x="210" y="60"/>
      <point x="177" y="100"/>
      <point x="196" y="205" type="curve"/>
      <point x="276" y="205" type="line" smooth="yes"/>
      <point x="401" y="205"/>
      <point x="479" y="255"/>
      <point x="497" y="355" type="curve" smooth="yes"/>
      <point x="514" y="450"/>
      <point x="454" y="510"/>
      <point x="339" y="510" type="curve" smooth="yes"/>
      <point x="199" y="510"/>
      <point x="117" y="440"/>
      <point x="84" y="250" type="curve" smooth="yes"/>
      <point x="50" y="60"/>
      <point x="108" y="-10"/>
    </contour>
    <contour>
      <point x="208" y="275" type="line"/>
      <point x="233" y="415"/>
      <point x="268" y="445"/>
      <point x="323" y="445" type="curve" smooth="yes"/>
      <point x="363" y="445"/>
      <point x="388" y="415"/>
      <point x="377" y="355" type="curve" smooth="yes"/>
      <point x="368" y="305"/>
      <point x="333" y="275"/>
      <point x="288" y="275" type="curve" smooth="yes"/>
    </contour>
    <contour>
      <point x="193" y="560" type="line"/>
      <point x="303" y="560" type="line"/>
      <point x="324" y="680" type="line"/>
      <point x="214" y="680" type="line"/>
    </contour>
    <contour>
      <point x="353" y="560" type="line"/>
      <point x="463" y="560" type="line"/>
      <point x="484" y="680" type="line"/>
      <point x="374" y="680" type="line"/>
    </contour>
  </outline>
</glyph>
<glyph name="igrave" format="2">
  <advance width="260"/>
  <unicode hex="00EC"/>
  <outline>
    <contour>
      <point x="70" y="0" type="line"/>
      <point x="190" y="0" type="line"/>
      <point x="278" y="500" type="line"/>
      <point x="158" y="500" type="line"/>
    </contour>
    <contour>
      <point x="193" y="560" type="line"/>
      <point x="268" y="560" type="line"/>
      <point x="256" y="690" type="line"/>
      <point x="141" y="690" type="line"/>
    </contour>
  </outline>
</glyph>
<glyph name="iacute" format="2">
  <advance width="260"/>
  <unicode hex="00ED"/>
  <outline>
    <contour>
      <point x="70" y="0" type="line"/>
      <point x="190" y="0" type="line"/>
      <point x="278" y="500" type="line"/>
      <point x="158" y="500" type="line"/>
    </contour>
    <contour>
      <point x="188" y="560" type="line"/>
      <point x="263" y="560" type="line"/>
      <point x="361" y="690" type="line"/>
      <point x="246" y="690" type="line"/>
    </contour>
  </outline>
</glyph>
<glyph name="icircumflex" format="2">
  <advance width="245"/>
  <unicode hex="00EE"/>
  <outline>
    <contour>
      <point x="65" y="0" type="line"/>
      <point x="185" y="0" type="line"/>
      <point x="273" y="500" type="line"/>
      <point x="153" y="500" type="line"/>
    </contour>
    <contour>
      <point x="86" y="550" type="line"/>
      <point x="162" y="550" type="line"/>
      <point x="231" y="620" type="line"/>
      <point x="274" y="550" type="line"/>
      <point x="351" y="550" type="line"/>
      <point x="294" y="680" type="line"/>
      <point x="189" y="680" type="line"/>
    </contour>
  </outline>
</glyph>
<glyph name="idieresis" format="2">
  <advance width="250"/>
  <unicode hex="00EF"/>
  <outline>
    <contour>
      <point x="65" y="0" type="line"/>
      <point x="185" y="0" type="line"/>
      <point x="273" y="500" type="line"/>
      <point x="153" y="500" type="line"/>
    </contour>
    <contour>
      <point x="88" y="560" type="line"/>
      <point x="198" y="560" type="line"/>
      <point x="219" y="680" type="line"/>
      <point x="109" y="680" type="line"/>
    </contour>
    <contour>
      <point x="248" y="560" type="line"/>
      <point x="358" y="560" type="line"/>
      <point x="379" y="680" type="line"/>
      <point x="269" y="680" type="line"/>
    </contour>
  </outline>
</glyph>
<glyph name="eth" format="2">
  <advance width="485"/>
  <unicode hex="00F0"/>
  <outline>
    <contour>
      <point x="238" y="-10" type="curve" smooth="yes"/>
      <point x="368" y="-10"/>
      <point x="450" y="60"/>
      <point x="477" y="215" type="curve" smooth="yes"/>
      <point x="501" y="350" type="line" smooth="yes"/>
      <point x="522" y="466"/>
      <point x="503" y="560"/>
      <point x="462" y="611" type="curve"/>
      <point x="529" y="676" type="line"/>
      <point x="486" y="717" type="line"/>
      <point x="419" y="650" type="line"/>
      <point x="375" y="685"/>
      <point x="299" y="705"/>
      <point x="210" y="710" type="curve"/>
      <point x="195" y="660" type="line"/>
      <point x="264" y="650"/>
      <point x="324" y="620"/>
      <point x="354" y="590" type="curve"/>
      <point x="286" y="520" type="line"/>
      <point x="329" y="479" type="line"/>
      <point x="390" y="539" type="line"/>
      <point x="404" y="510"/>
      <point x="402" y="466"/>
      <point x="393" y="415" type="curve"/>
      <point x="375" y="430"/>
      <point x="347" y="440"/>
      <point x="307" y="440" type="curve" smooth="yes"/>
      <point x="187" y="440"/>
      <point x="105" y="370"/>
      <point x="77" y="215" type="curve" smooth="yes"/>
      <point x="50" y="60"/>
      <point x="108" y="-10"/>
    </contour>
    <contour>
      <point x="249" y="55" type="curve" smooth="yes"/>
      <point x="209" y="55"/>
      <point x="176" y="95"/>
      <point x="197" y="215" type="curve" smooth="yes"/>
      <point x="218" y="330"/>
      <point x="265" y="370"/>
      <point x="325" y="370" type="curve" smooth="yes"/>
      <point x="355" y="370"/>
      <point x="373" y="360"/>
      <point x="381" y="350" type="curve"/>
      <point x="357" y="215" type="line" smooth="yes"/>
      <point x="336" y="95"/>
      <point x="289" y="55"/>
    </contour>
  </outline>
</glyph>
<glyph name="ograve" format="2">
  <advance width="480"/>
  <unicode hex="00F2"/>
  <outline>
    <contour>
      <point x="238" y="-10" type="curve"/>
      <point x="368" y="-10"/>
      <point x="450" y="60"/>
      <point x="484" y="250" type="curve"/>
      <point x="517" y="440"/>
      <point x="459" y="510"/>
      <point x="329" y="510" type="curve"/>
      <point x="199" y="510"/>
      <point x="117" y="440"/>
      <point x="84" y="250" type="curve" smooth="yes"/>
      <point x="50" y="60"/>
      <point x="108" y="-10"/>
    </contour>
    <contour>
      <point x="249" y="55" type="curve"/>
      <point x="204" y="55"/>
      <point x="176" y="95"/>
      <point x="204" y="250" type="curve" smooth="yes"/>
      <point x="231" y="405"/>
      <point x="273" y="445"/>
      <point x="318" y="445" type="curve"/>
      <point x="363" y="445"/>
      <point x="391" y="405"/>
      <point x="364" y="250" type="curve"/>
      <point x="336" y="95"/>
      <point x="294" y="55"/>
    </contour>
    <contour>
      <point x="303" y="560" type="line"/>
      <point x="378" y="560" type="line"/>
      <point x="366" y="690" type="line"/>
      <point x="251" y="690" type="line"/>
    </contour>
  </outline>
</glyph>
<glyph name="ocircumflex" format="2">
  <advance width="480"/>
  <unicode hex="00F4"/>
  <outline>
    <contour>
      <point x="238" y="-10" type="curve"/>
      <point x="368" y="-10"/>
      <point x="450" y="60"/>
      <point x="484" y="250" type="curve"/>
      <point x="517" y="440"/>
      <point x="459" y="510"/>
      <point x="329" y="510" type="curve"/>
      <point x="199" y="510"/>
      <point x="117" y="440"/>
      <point x="84" y="250" type="curve" smooth="yes"/>
      <point x="50" y="60"/>
      <point x="108" y="-10"/>
    </contour>
    <contour>
      <point x="249" y="55" type="curve"/>
      <point x="204" y="55"/>
      <point x="176" y="95"/>
      <point x="204" y="250" type="curve" smooth="yes"/>
      <point x="231" y="405"/>
      <point x="273" y="445"/>
      <point x="318" y="445" type="curve"/>
      <point x="363" y="445"/>
      <point x="391" y="405"/>
      <point x="364" y="250" type="curve"/>
      <point x="336" y="95"/>
      <point x="294" y="55"/>
    </contour>
    <contour>
      <point x="205" y="550" type="line"/>
      <point x="281" y="550" type="line"/>
      <point x="350" y="620" type="line"/>
      <point x="393" y="550" type="line"/>
      <point x="470" y="550" type="line"/>
      <point x="413" y="680" type="line"/>
      <point x="308" y="680" type="line"/>
    </contour>
  </outline>
</glyph>
<glyph name="odieresis" format="2">
  <advance width="480"/>
  <unicode hex="00F6"/>
  <outline>
    <contour>
      <point x="238" y="-10" type="curve"/>
      <point x="368" y="-10"/>
      <point x="450" y="60"/>
      <point x="484" y="250" type="curve"/>
      <point x="517" y="440"/>
      <point x="459" y="510"/>
      <point x="329" y="510" type="curve"/>
      <point x="199" y="510"/>
      <point x="117" y="440"/>
      <point x="84" y="250" type="curve" smooth="yes"/>
      <point x="50" y="60"/>
      <point x="108" y="-10"/>
    </contour>
    <contour>
      <point x="249" y="55" type="curve"/>
      <point x="204" y="55"/>
      <point x="176" y="95"/>
      <point x="204" y="250" type="curve" smooth="yes"/>
      <point x="231" y="405"/>
      <point x="273" y="445"/>
      <point x="318" y="445" type="curve"/>
      <point x="363" y="445"/>
      <point x="391" y="405"/>
      <point x="364" y="250" type="curve"/>
      <point x="336" y="95"/>
      <point x="294" y="55"/>
    </contour>
    <contour>
      <point x="203" y="560" type="line"/>
      <point x="313" y="560" type="line"/>
      <point x="334" y="680" type="line"/>
      <point x="224" y="680" type="line"/>
    </contour>
    <contour>
      <point x="363" y="560" type="line"/>
      <point x="473" y="560" type="line"/>
      <point x="494" y="680" type="line"/>
      <point x="384" y="680" type="line"/>
    </contour>
  </outline>
</glyph>
<glyph name="divide" format="2">
  <advance width="450"/>
  <unicode hex="00F7"/>
  <outline>
    <contour>
      <point x="74" y="255" type="line"/>
      <point x="464" y="255" type="line"/>
      <point x="480" y="345" type="line"/>
      <point x="90" y="345" type="line"/>
    </contour>
    <contour>
      <point x="189" y="85" type="line"/>
      <point x="289" y="85" type="line"/>
      <point x="309" y="195" type="line"/>
      <point x="209" y="195" type="line"/>
    </contour>
    <contour>
      <point x="246" y="405" type="line"/>
      <point x="346" y="405" type="line"/>
      <point x="365" y="515" type="line"/>
      <point x="265" y="515" type="line"/>
    </contour>
  </outline>
</glyph>
<glyph name="oslash" format="2">
  <advance width="490"/>
  <unicode hex="00F8"/>
  <outline>
    <contour>
      <point x="243" y="-10" type="curve" smooth="yes"/>
      <point x="373" y="-10"/>
      <point x="455" y="60"/>
      <point x="489" y="250" type="curve" smooth="yes"/>
      <point x="499" y="310"/>
      <point x="501" y="358"/>
      <point x="493" y="395" type="curve"/>
      <point x="542" y="440" type="line"/>
      <point x="506" y="490" type="line"/>
      <point x="469" y="456" type="line"/>
      <point x="443" y="494"/>
      <point x="396" y="510"/>
      <point x="334" y="510" type="curve" smooth="yes"/>
      <point x="204" y="510"/>
      <point x="122" y="440"/>
      <point x="89" y="250" type="curve" smooth="yes"/>
      <point x="78" y="190"/>
      <point x="77" y="142"/>
      <point x="83" y="104" type="curve"/>
      <point x="35" y="60" type="line"/>
      <point x="71" y="10" type="line"/>
      <point x="107" y="43" type="line"/>
      <point x="135" y="6"/>
      <point x="180" y="-10"/>
    </contour>
    <contour>
      <point x="254" y="55" type="curve" smooth="yes"/>
      <point x="224" y="55"/>
      <point x="202" y="72"/>
      <point x="198" y="126" type="curve"/>
      <point x="374" y="287" type="line"/>
      <point x="373" y="275"/>
      <point x="371" y="263"/>
      <point x="369" y="250" type="curve" smooth="yes"/>
      <point x="341" y="95"/>
      <point x="299" y="55"/>
    </contour>
    <contour>
      <point x="202" y="213" type="line"/>
      <point x="204" y="225"/>
      <point x="207" y="238"/>
      <point x="209" y="250" type="curve" smooth="yes"/>
      <point x="236" y="405"/>
      <point x="278" y="445"/>
      <point x="323" y="445" type="curve" smooth="yes"/>
      <point x="352" y="445"/>
      <point x="374" y="428"/>
      <point x="378" y="374" type="curve"/>
    </contour>
  </outline>
</glyph>
<glyph name="uacute" format="2">
  <advance width="505"/>
  <unicode hex="00FA"/>
  <outline>
    <contour>
      <point x="218" y="-10" type="curve" smooth="yes"/>
      <point x="278" y="-10"/>
      <point x="315" y="10"/>
      <point x="340" y="30" type="curve"/>
      <point x="345" y="30" type="line"/>
      <point x="355" y="0" type="line"/>
      <point x="440" y="0" type="line"/>
      <point x="528" y="500" type="line"/>
      <point x="408" y="500" type="line"/>
      <point x="334" y="80" type="line"/>
      <point x="322" y="70"/>
      <point x="300" y="60"/>
      <point x="275" y="60" type="curve" smooth="yes"/>
      <point x="235" y="60"/>
      <point x="199" y="80"/>
      <point x="211" y="150" type="curve" smooth="yes"/>
      <point x="273" y="500" type="line"/>
      <point x="153" y="500" type="line"/>
      <point x="91" y="150" type="line" smooth="yes"/>
      <point x="68" y="20"/>
      <point x="133" y="-10"/>
    </contour>
    <contour>
      <point x="308" y="560" type="line"/>
      <point x="383" y="560" type="line"/>
      <point x="481" y="690" type="line"/>
      <point x="366" y="690" type="line"/>
    </contour>
  </outline>
</glyph>
<glyph name="ucircumflex" format="2">
  <advance width="505"/>
  <unicode hex="00FB"/>
  <outline>
    <contour>
      <point x="218" y="-10" type="curve" smooth="yes"/>
      <point x="278" y="-10"/>
      <point x="315" y="10"/>
      <point x="340" y="30" type="curve"/>
      <point x="345" y="30" type="line"/>
      <point x="355" y="0" type="line"/>
      <point x="440" y="0" type="line"/>
      <point x="528" y="500" type="line"/>
      <point x="408" y="500" type="line"/>
      <point x="334" y="80" type="line"/>
      <point x="322" y="70"/>
      <point x="300" y="60"/>
      <point x="275" y="60" type="curve" smooth="yes"/>
      <point x="235" y="60"/>
      <point x="199" y="80"/>
      <point x="211" y="150" type="curve" smooth="yes"/>
      <point x="273" y="500" type="line"/>
      <point x="153" y="500" type="line"/>
      <point x="91" y="150" type="line" smooth="yes"/>
      <point x="68" y="20"/>
      <point x="133" y="-10"/>
    </contour>
    <contour>
      <point x="219" y="550" type="line"/>
      <point x="295" y="550" type="line"/>
      <point x="364" y="620" type="line"/>
      <point x="407" y="550" type="line"/>
      <point x="484" y="550" type="line"/>
      <point x="427" y="680" type="line"/>
      <point x="322" y="680" type="line"/>
    </contour>
  </outline>
</glyph>
<glyph name="udieresis" format="2">
  <advance width="505"/>
  <unicode hex="00FC"/>
  <outline>
    <contour>
      <point x="218" y="-10" type="curve" smooth="yes"/>
      <point x="278" y="-10"/>
      <point x="315" y="10"/>
      <point x="340" y="30" type="curve"/>
      <point x="345" y="30" type="line"/>
      <point x="355" y="0" type="line"/>
      <point x="440" y="0" type="line"/>
      <point x="528" y="500" type="line"/>
      <point x="408" y="500" type="line"/>
      <point x="334" y="80" type="line"/>
      <point x="322" y="70"/>
      <point x="300" y="60"/>
      <point x="275" y="60" type="curve" smooth="yes"/>
      <point x="235" y="60"/>
      <point x="199" y="80"/>
      <point x="211" y="150" type="curve" smooth="yes"/>
      <point x="273" y="500" type="line"/>
      <point x="153" y="500" type="line"/>
      <point x="91" y="150" type="line" smooth="yes"/>
      <point x="68" y="20"/>
      <point x="133" y="-10"/>
    </contour>
    <contour>
      <point x="218" y="560" type="line"/>
      <point x="328" y="560" type="line"/>
      <point x="349" y="680" type="line"/>
      <point x="239" y="680" type="line"/>
    </contour>
    <contour>
      <point x="378" y="560" type="line"/>
      <point x="488" y="560" type="line"/>
      <point x="509" y="680" type="line"/>
      <point x="399" y="680" type="line"/>
    </contour>
  </outline>
</glyph>
<glyph name="ydieresis" format="2">
  <advance width="505"/>
  <unicode hex="00FF"/>
  <outline>
    <contour>
      <point x="187" y="-210" type="curve" smooth="yes"/>
      <point x="332" y="-210"/>
      <point x="415" y="-140"/>
      <point x="447" y="40" type="curve" smooth="yes"/>
      <point x="528" y="500" type="line"/>
      <point x="408" y="500" type="line"/>
      <point x="334" y="80" type="line"/>
      <point x="322" y="70"/>
      <point x="300" y="60"/>
      <point x="275" y="60" type="curve" smooth="yes"/>
      <point x="235" y="60"/>
      <point x="199" y="80"/>
      <point x="211" y="150" type="curve"/>
      <point x="273" y="500" type="line"/>
      <point x="153" y="500" type="line"/>
      <point x="91" y="150" type="line" smooth="yes"/>
      <point x="68" y="20"/>
      <point x="133" y="-10"/>
      <point x="218" y="-10" type="curve" smooth="yes"/>
      <point x="258" y="-10"/>
      <point x="295" y="0"/>
      <point x="323" y="20" type="curve"/>
      <point x="302" y="-100"/>
      <point x="255" y="-140"/>
      <point x="180" y="-140" type="curve" smooth="yes"/>
      <point x="70" y="-140" type="line"/>
      <point x="61" y="-190" type="line"/>
      <point x="89" y="-200"/>
      <point x="137" y="-210"/>
    </contour>
    <contour>
      <point x="218" y="560" type="line"/>
      <point x="328" y="560" type="line"/>
      <point x="349" y="680" type="line"/>
      <point x="239" y="680" type="line"/>
    </contour>
    <contour>
      <point x="378" y="560" type="line"/>
      <point x="488" y="560" type="line"/>
      <point x="509" y="680" type="line"/>
      <point x="399" y="680" type="line"/>
    </contour>
  </outline>
</glyph>
<glyph name="Amacron" format="2">
  <advance width="540"/>
  <unicode hex="0100"/>
  <outline>
    <contour>
      <point x="15" y="0" type="line"/>
      <point x="140" y="0" type="line"/>
      <point x="214" y="175" type="line"/>
      <point x="386" y="175" type="line"/>
      <point x="400" y="0" type="line"/>
      <point x="525" y="0" type="line"/>
      <point x="468" y="700" type="line"/>
      <point x="318" y="700" type="line"/>
    </contour>
    <contour>
      <point x="244" y="255" type="line"/>
      <point x="363" y="540" type="line"/>
      <point x="367" y="540" type="line"/>
      <point x="383" y="255" type="line"/>
    </contour>
    <contour>
      <point x="284" y="760" type="line"/>
      <point x="524" y="760" type="line"/>
      <point x="536" y="830" type="line"/>
      <point x="296" y="830" type="line"/>
    </contour>
  </outline>
</glyph>
<glyph name="Aogonek" format="2">
  <advance width="540"/>
  <unicode hex="0104"/>
  <outline>
    <contour>
      <point x="454" y="-160" type="curve" smooth="yes"/>
      <point x="499" y="-160"/>
      <point x="533" y="-145"/>
      <point x="533" y="-145" type="curve"/>
      <point x="541" y="-100" type="line"/>
      <point x="505" y="-100" type="line" smooth="yes"/>
      <point x="470" y="-100"/>
      <point x="454" y="-80"/>
      <point x="461" y="-45" type="curve" smooth="yes"/>
      <point x="469" y="0" type="line"/>
      <point x="524" y="0" type="line"/>
      <point x="467" y="700" type="line"/>
      <point x="317" y="700" type="line"/>
      <point x="14" y="0" type="line"/>
      <point x="139" y="0" type="line"/>
      <point x="213" y="175" type="line"/>
      <point x="385" y="175" type="line"/>
      <point x="399" y="0" type="line"/>
      <point x="419" y="0" type="line"/>
      <point x="419" y="0"/>
      <point x="387" y="-30"/>
      <point x="378" y="-80" type="curve" smooth="yes"/>
      <point x="370" y="-125"/>
      <point x="399" y="-160"/>
    </contour>
    <contour>
      <point x="243" y="255" type="line"/>
      <point x="362" y="540" type="line"/>
      <point x="366" y="540" type="line"/>
      <point x="382" y="255" type="line"/>
    </contour>
  </outline>
</glyph>
<glyph name="aogonek" format="2">
  <advance width="486"/>
  <unicode hex="0105"/>
  <outline>
    <contour>
      <point x="386" y="-160" type="curve" smooth="yes"/>
      <point x="431" y="-160"/>
      <point x="465" y="-145"/>
      <point x="465" y="-145" type="curve"/>
      <point x="473" y="-100" type="line"/>
      <point x="437" y="-100" type="line" smooth="yes"/>
      <point x="402" y="-100"/>
      <point x="386" y="-80"/>
      <point x="393" y="-45" type="curve" smooth="yes"/>
      <point x="401" y="0" type="line"/>
      <point x="425" y="0" type="line"/>
      <point x="509" y="480" type="line"/>
      <point x="463" y="500"/>
      <point x="419" y="510"/>
      <point x="349" y="510" type="curve" smooth="yes"/>
      <point x="199" y="510"/>
      <point x="117" y="440"/>
      <point x="84" y="250" type="curve" smooth="yes"/>
      <point x="50" y="60"/>
      <point x="108" y="-10"/>
      <point x="208" y="-10" type="curve" smooth="yes"/>
      <point x="263" y="-10"/>
      <point x="300" y="10"/>
      <point x="325" y="30" type="curve"/>
      <point x="330" y="30" type="line"/>
      <point x="340" y="0" type="line"/>
      <point x="351" y="0" type="line"/>
      <point x="351" y="0"/>
      <point x="319" y="-30"/>
      <point x="310" y="-80" type="curve" smooth="yes"/>
      <point x="302" y="-125"/>
      <point x="331" y="-160"/>
    </contour>
    <contour>
      <point x="260" y="60" type="curve" smooth="yes"/>
      <point x="210" y="60"/>
      <point x="177" y="100"/>
      <point x="204" y="250" type="curve" smooth="yes"/>
      <point x="230" y="400"/>
      <point x="277" y="440"/>
      <point x="337" y="440" type="curve" smooth="yes"/>
      <point x="382" y="440" type="line"/>
      <point x="319" y="80" type="line"/>
      <point x="307" y="70"/>
      <point x="285" y="60"/>
    </contour>
  </outline>
</glyph>
<glyph name="cacute" format="2">
  <advance width="395"/>
  <unicode hex="0107"/>
  <outline>
    <contour>
      <point x="248" y="-10" type="curve" smooth="yes"/>
      <point x="298" y="-10"/>
      <point x="350" y="0"/>
      <point x="381" y="10" type="curve"/>
      <point x="390" y="60" type="line"/>
      <point x="280" y="60" type="line" smooth="yes"/>
      <point x="210" y="60"/>
      <point x="177" y="100"/>
      <point x="204" y="250" type="curve" smooth="yes"/>
      <point x="230" y="400"/>
      <point x="277" y="440"/>
      <point x="337" y="440" type="curve" smooth="yes"/>
      <point x="447" y="440" type="line"/>
      <point x="456" y="490" type="line"/>
      <point x="428" y="500"/>
      <point x="379" y="510"/>
      <point x="329" y="510" type="curve" smooth="yes"/>
      <point x="199" y="510"/>
      <point x="117" y="440"/>
      <point x="84" y="250" type="curve" smooth="yes"/>
      <point x="50" y="60"/>
      <point x="108" y="-10"/>
    </contour>
    <contour>
      <point x="288" y="560" type="line"/>
      <point x="363" y="560" type="line"/>
      <point x="461" y="690" type="line"/>
      <point x="346" y="690" type="line"/>
    </contour>
  </outline>
</glyph>
<glyph name="Emacron" format="2">
  <advance width="475"/>
  <unicode hex="0112"/>
  <outline>
    <contour>
      <point x="70" y="0" type="line"/>
      <point x="435" y="0" type="line"/>
      <point x="449" y="80" type="line"/>
      <point x="204" y="80" type="line"/>
      <point x="247" y="325" type="line"/>
      <point x="462" y="325" type="line"/>
      <point x="476" y="405" type="line"/>
      <point x="261" y="405" type="line"/>
      <point x="299" y="620" type="line"/>
      <point x="544" y="620" type="line"/>
      <point x="558" y="700" type="line"/>
      <point x="193" y="700" type="line"/>
    </contour>
    <contour>
      <point x="269" y="760" type="line"/>
      <point x="509" y="760" type="line"/>
      <point x="521" y="830" type="line"/>
      <point x="281" y="830" type="line"/>
    </contour>
  </outline>
</glyph>
<glyph name="edotaccent" format="2">
  <advance width="465"/>
  <unicode hex="0117"/>
  <outline>
    <contour>
      <point x="263" y="-10" type="curve" smooth="yes"/>
      <point x="313" y="-10"/>
      <point x="365" y="0"/>
      <point x="396" y="10" type="curve"/>
      <point x="405" y="60" type="line"/>
      <point x="295" y="60" type="line" smooth="yes"/>
      <point x="210" y="60"/>
      <point x="177" y="100"/>
      <point x="196" y="205" type="curve"/>
      <point x="276" y="205" type="line" smooth="yes"/>
      <point x="401" y="205"/>
      <point x="479" y="255"/>
      <point x="497" y="355" type="curve" smooth="yes"/>
      <point x="514" y="450"/>
      <point x="454" y="510"/>
      <point x="339" y="510" type="curve" smooth="yes"/>
      <point x="199" y="510"/>
      <point x="117" y="440"/>
      <point x="84" y="250" type="curve" smooth="yes"/>
      <point x="50" y="60"/>
      <point x="108" y="-10"/>
    </contour>
    <contour>
      <point x="208" y="275" type="line"/>
      <point x="233" y="415"/>
      <point x="268" y="445"/>
      <point x="323" y="445" type="curve" smooth="yes"/>
      <point x="363" y="445"/>
      <point x="388" y="415"/>
      <point x="377" y="355" type="curve" smooth="yes"/>
      <point x="368" y="305"/>
      <point x="333" y="275"/>
      <point x="288" y="275" type="curve" smooth="yes"/>
    </contour>
    <contour>
      <point x="273" y="560" type="line"/>
      <point x="383" y="560" type="line"/>
      <point x="404" y="680" type="line"/>
      <point x="294" y="680" type="line"/>
    </contour>
  </outline>
</glyph>
<glyph name="eogonek" format="2">
  <advance width="465"/>
  <unicode hex="0119"/>
  <outline>
    <contour>
      <point x="255" y="-160" type="curve" smooth="yes"/>
      <point x="300" y="-160"/>
      <point x="334" y="-145"/>
      <point x="334" y="-145" type="curve"/>
      <point x="342" y="-100" type="line"/>
      <point x="306" y="-100" type="line" smooth="yes"/>
      <point x="271" y="-100"/>
      <point x="255" y="-80"/>
      <point x="262" y="-45" type="curve" smooth="yes"/>
      <point x="268" y="-10" type="line"/>
      <point x="316" y="-9"/>
      <point x="366" y="0"/>
      <point x="396" y="10" type="curve"/>
      <point x="405" y="60" type="line"/>
      <point x="295" y="60" type="line" smooth="yes"/>
      <point x="210" y="60"/>
      <point x="177" y="100"/>
      <point x="196" y="205" type="curve"/>
      <point x="276" y="205" type="line" smooth="yes"/>
      <point x="401" y="205"/>
      <point x="479" y="255"/>
      <point x="497" y="355" type="curve" smooth="yes"/>
      <point x="514" y="450"/>
      <point x="454" y="510"/>
      <point x="339" y="510" type="curve" smooth="yes"/>
      <point x="199" y="510"/>
      <point x="117" y="440"/>
      <point x="84" y="250" type="curve" smooth="yes"/>
      <point x="54" y="82"/>
      <point x="95" y="8"/>
      <point x="212" y="-7" type="curve"/>
      <point x="203" y="-18"/>
      <point x="186" y="-44"/>
      <point x="179" y="-80" type="curve" smooth="yes"/>
      <point x="171" y="-125"/>
      <point x="200" y="-160"/>
    </contour>
    <contour>
      <point x="208" y="275" type="line"/>
      <point x="233" y="415"/>
      <point x="268" y="445"/>
      <point x="323" y="445" type="curve" smooth="yes"/>
      <point x="363" y="445"/>
      <point x="388" y="415"/>
      <point x="377" y="355" type="curve" smooth="yes"/>
      <point x="368" y="305"/>
      <point x="333" y="275"/>
      <point x="288" y="275" type="curve" smooth="yes"/>
    </contour>
  </outline>
</glyph>
<glyph name="Gbreve" format="2">
  <advance width="530"/>
  <unicode hex="011E"/>
  <outline>
    <contour>
      <point x="298" y="-10" type="curve" smooth="yes"/>
      <point x="373" y="-10"/>
      <point x="435" y="0"/>
      <point x="466" y="10" type="curve"/>
      <point x="532" y="380" type="line"/>
      <point x="412" y="380" type="line"/>
      <point x="356" y="65" type="line"/>
      <point x="331" y="65" type="line" smooth="yes"/>
      <point x="236" y="65"/>
      <point x="187" y="125"/>
      <point x="226" y="350" type="curve" smooth="yes"/>
      <point x="266" y="575"/>
      <point x="336" y="635"/>
      <point x="421" y="635" type="curve" smooth="yes"/>
      <point x="551" y="635" type="line"/>
      <point x="561" y="690" type="line"/>
      <point x="533" y="700"/>
      <point x="475" y="710"/>
      <point x="405" y="710" type="curve" smooth="yes"/>
      <point x="250" y="710"/>
      <point x="156" y="630"/>
      <point x="106" y="350" type="curve" smooth="yes"/>
      <point x="57" y="70"/>
      <point x="123" y="-10"/>
    </contour>
    <contour>
      <point x="413" y="755" type="curve" smooth="yes"/>
      <point x="478" y="755"/>
      <point x="533" y="785"/>
      <point x="572" y="835" type="curve"/>
      <point x="531" y="885" type="line"/>
      <point x="507" y="865"/>
      <point x="468" y="840"/>
      <point x="428" y="840" type="curve" smooth="yes"/>
      <point x="388" y="840"/>
      <point x="357" y="865"/>
      <point x="341" y="885" type="curve"/>
      <point x="282" y="835" type="line"/>
      <point x="303" y="785"/>
      <point x="348" y="755"/>
    </contour>
  </outline>
</glyph>
<glyph name="gbreve" format="2">
  <advance width="490"/>
  <unicode hex="011F"/>
  <outline>
    <contour>
      <point x="172" y="-210" type="curve" smooth="yes"/>
      <point x="317" y="-210"/>
      <point x="400" y="-140"/>
      <point x="432" y="40" type="curve" smooth="yes"/>
      <point x="509" y="480" type="line"/>
      <point x="463" y="500"/>
      <point x="419" y="510"/>
      <point x="349" y="510" type="curve" smooth="yes"/>
      <point x="199" y="510"/>
      <point x="117" y="440"/>
      <point x="84" y="250" type="curve" smooth="yes"/>
      <point x="50" y="60"/>
      <point x="108" y="-10"/>
      <point x="218" y="-10" type="curve" smooth="yes"/>
      <point x="253" y="-10"/>
      <point x="285" y="0"/>
      <point x="307" y="15" type="curve"/>
      <point x="287" y="-100"/>
      <point x="240" y="-140"/>
      <point x="165" y="-140" type="curve" smooth="yes"/>
      <point x="55" y="-140" type="line"/>
      <point x="46" y="-190" type="line"/>
      <point x="74" y="-200"/>
      <point x="122" y="-210"/>
    </contour>
    <contour>
      <point x="260" y="60" type="curve" smooth="yes"/>
      <point x="210" y="60"/>
      <point x="177" y="100"/>
      <point x="204" y="250" type="curve" smooth="yes"/>
      <point x="230" y="400"/>
      <point x="277" y="440"/>
      <point x="337" y="440" type="curve" smooth="yes"/>
      <point x="382" y="440" type="line"/>
      <point x="319" y="80" type="line"/>
      <point x="307" y="70"/>
      <point x="285" y="60"/>
    </contour>
    <contour>
      <point x="339" y="565" type="curve" smooth="yes"/>
      <point x="404" y="565"/>
      <point x="454" y="595"/>
      <point x="492" y="640" type="curve"/>
      <point x="451" y="690" type="line"/>
      <point x="428" y="670"/>
      <point x="394" y="650"/>
      <point x="354" y="650" type="curve" smooth="yes"/>
      <point x="314" y="650"/>
      <point x="288" y="670"/>
      <point x="271" y="690" type="curve"/>
      <point x="212" y="640" type="line"/>
      <point x="234" y="595"/>
      <point x="274" y="565"/>
    </contour>
  </outline>
</glyph>
<glyph name="Imacron" format="2">
  <advance width="230"/>
  <unicode hex="012A"/>
  <outline>
    <contour>
      <point x="55" y="0" type="line"/>
      <point x="175" y="0" type="line"/>
      <point x="298" y="700" type="line"/>
      <point x="178" y="700" type="line"/>
    </contour>
    <contour>
      <point x="127" y="750" type="line"/>
      <point x="367" y="750" type="line"/>
      <point x="379" y="820" type="line"/>
      <point x="139" y="820" type="line"/>
    </contour>
  </outline>
</glyph>
<glyph name="imacron" format="2">
  <advance width="240"/>
  <unicode hex="012B"/>
  <outline>
    <contour>
      <point x="60" y="0" type="line"/>
      <point x="180" y="0" type="line"/>
      <point x="268" y="500" type="line"/>
      <point x="148" y="500" type="line"/>
    </contour>
    <contour>
      <point x="100" y="570" type="line"/>
      <point x="340" y="570" type="line"/>
      <point x="352" y="640" type="line"/>
      <point x="112" y="640" type="line"/>
    </contour>
  </outline>
</glyph>
<glyph name="Iogonek" format="2">
  <advance width="226"/>
  <unicode hex="012E"/>
  <outline>
    <contour>
      <point x="111" y="-160" type="curve" smooth="yes"/>
      <point x="156" y="-160"/>
      <point x="190" y="-145"/>
      <point x="190" y="-145" type="curve"/>
      <point x="198" y="-100" type="line"/>
      <point x="162" y="-100" type="line" smooth="yes"/>
      <point x="127" y="-100"/>
      <point x="111" y="-80"/>
      <point x="118" y="-45" type="curve" smooth="yes"/>
      <point x="126" y="0" type="line"/>
      <point x="176" y="0" type="line"/>
      <point x="299" y="700" type="line"/>
      <point x="179" y="700" type="line"/>
      <point x="56" y="0" type="line"/>
      <point x="76" y="0" type="line"/>
      <point x="76" y="0"/>
      <point x="44" y="-30"/>
      <point x="35" y="-80" type="curve" smooth="yes"/>
      <point x="27" y="-125"/>
      <point x="56" y="-160"/>
    </contour>
  </outline>
</glyph>
<glyph name="iogonek" format="2">
  <advance width="226"/>
  <unicode hex="012F"/>
  <outline>
    <contour>
      <point x="111" y="-160" type="curve" smooth="yes"/>
      <point x="156" y="-160"/>
      <point x="190" y="-145"/>
      <point x="190" y="-145" type="curve"/>
      <point x="198" y="-100" type="line"/>
      <point x="162" y="-100" type="line" smooth="yes"/>
      <point x="127" y="-100"/>
      <point x="111" y="-80"/>
      <point x="118" y="-45" type="curve" smooth="yes"/>
      <point x="126" y="0" type="line"/>
      <point x="176" y="0" type="line"/>
      <point x="264" y="500" type="line"/>
      <point x="144" y="500" type="line"/>
      <point x="56" y="0" type="line"/>
      <point x="76" y="0" type="line"/>
      <point x="76" y="0"/>
      <point x="44" y="-30"/>
      <point x="35" y="-80" type="curve" smooth="yes"/>
      <point x="27" y="-125"/>
      <point x="56" y="-160"/>
    </contour>
    <contour>
      <point x="154" y="560" type="line"/>
      <point x="274" y="560" type="line"/>
      <point x="295" y="680" type="line"/>
      <point x="175" y="680" type="line"/>
    </contour>
  </outline>
</glyph>
<glyph name="Idotaccent" format="2">
  <advance width="260"/>
  <unicode hex="0130"/>
  <outline>
    <contour>
      <point x="70" y="0" type="line"/>
      <point x="190" y="0" type="line"/>
      <point x="313" y="700" type="line"/>
      <point x="193" y="700" type="line"/>
    </contour>
    <contour>
      <point x="209" y="760" type="line"/>
      <point x="319" y="760" type="line"/>
      <point x="340" y="880" type="line"/>
      <point x="230" y="880" type="line"/>
    </contour>
  </outline>
</glyph>
<glyph name="idotless" format="2">
  <advance width="260"/>
  <unicode hex="0131"/>
  <anchor x="86" y="0" name="bottom"/>
  <anchor x="190" y="10" name="ogonek"/>
  <anchor x="216" y="500" name="top"/>
  <outline>
    <contour>
      <point x="70" y="0" type="line"/>
      <point x="190" y="0" type="line"/>
      <point x="278" y="500" type="line"/>
      <point x="158" y="500" type="line"/>
    </contour>
  </outline>
</glyph>
<glyph name="Jcircumflex" format="2">
  <advance width="373"/>
  <unicode hex="0134"/>
  <outline>
    <contour>
      <point x="98" y="-10" type="curve" smooth="yes"/>
      <point x="243" y="-10"/>
      <point x="325" y="60"/>
      <point x="357" y="240" type="curve" smooth="yes"/>
      <point x="438" y="700" type="line"/>
      <point x="318" y="700" type="line"/>
      <point x="237" y="240" type="line" smooth="yes"/>
      <point x="213" y="105"/>
      <point x="166" y="65"/>
      <point x="111" y="65" type="curve" smooth="yes"/>
      <point x="11" y="65" type="line"/>
      <point x="1" y="10" type="line"/>
      <point x="25" y="0"/>
      <point x="58" y="-10"/>
    </contour>
    <contour>
      <point x="253" y="740" type="line"/>
      <point x="329" y="740" type="line"/>
      <point x="397" y="810" type="line"/>
      <point x="441" y="740" type="line"/>
      <point x="518" y="740" type="line"/>
      <point x="461" y="870" type="line"/>
      <point x="356" y="870" type="line"/>
    </contour>
  </outline>
</glyph>
<glyph name="jcircumflex" format="2">
  <advance width="260"/>
  <unicode hex="0135"/>
  <outline>
    <contour>
      <point x="2" y="-210" type="curve" smooth="yes"/>
      <point x="87" y="-210"/>
      <point x="163" y="-180"/>
      <point x="187" y="-40" type="curve" smooth="yes"/>
      <point x="283" y="500" type="line"/>
      <point x="163" y="500" type="line"/>
      <point x="67" y="-40" type="line" smooth="yes"/>
      <point x="55" y="-110"/>
      <point x="20" y="-140"/>
      <point x="-14" y="-140" type="curve" smooth="yes"/>
      <point x="-84" y="-140" type="line"/>
      <point x="-93" y="-190" type="line"/>
      <point x="-70" y="-200"/>
      <point x="-37" y="-210"/>
    </contour>
    <contour>
      <point x="96" y="550" type="line"/>
      <point x="172" y="550" type="line"/>
      <point x="241" y="620" type="line"/>
      <point x="284" y="550" type="line"/>
      <point x="361" y="550" type="line"/>
      <point x="304" y="680" type="line"/>
      <point x="199" y="680" type="line"/>
    </contour>
  </outline>
</glyph>
<glyph name="Kcommaaccent" format="2">
  <advance width="520"/>
  <unicode hex="0136"/>
  <outline>
    <contour>
      <point x="70" y="0" type="line"/>
      <point x="190" y="0" type="line"/>
      <point x="248" y="330" type="line"/>
      <point x="375" y="0" type="line"/>
      <point x="510" y="0" type="line"/>
      <point x="367" y="355" type="line"/>
      <point x="613" y="700" type="line"/>
      <point x="478" y="700" type="line"/>
      <point x="257" y="380" type="line"/>
      <point x="313" y="700" type="line"/>
      <point x="193" y="700" type="line"/>
    </contour>
    <contour>
      <point x="179" y="-200" type="line"/>
      <point x="254" y="-200" type="line"/>
      <point x="316" y="-50" type="line"/>
      <point x="206" y="-50" type="line"/>
    </contour>
  </outline>
</glyph>
<glyph name="kcommaaccent" format="2">
  <advance width="460"/>
  <unicode hex="0137"/>
  <outline>
    <contour>
      <point x="70" y="0" type="line"/>
      <point x="190" y="0" type="line"/>
      <point x="233" y="245" type="line"/>
      <point x="320" y="0" type="line"/>
      <point x="450" y="0" type="line"/>
      <point x="351" y="265" type="line"/>
      <point x="528" y="500" type="line"/>
      <point x="398" y="500" type="line"/>
      <point x="240" y="285" type="line"/>
      <point x="313" y="700" type="line"/>
      <point x="193" y="700" type="line"/>
    </contour>
    <contour>
      <point x="157" y="-210" type="line"/>
      <point x="232" y="-210" type="line"/>
      <point x="294" y="-60" type="line"/>
      <point x="184" y="-60" type="line"/>
    </contour>
  </outline>
</glyph>
<glyph name="kgreenlandic" format="2">
  <advance width="460"/>
  <unicode hex="0138"/>
  <outline>
    <contour>
      <point x="70" y="0" type="line"/>
      <point x="190" y="0" type="line"/>
      <point x="233" y="245" type="line"/>
      <point x="320" y="0" type="line"/>
      <point x="450" y="0" type="line"/>
      <point x="351" y="265" type="line"/>
      <point x="528" y="500" type="line"/>
      <point x="398" y="500" type="line"/>
      <point x="240" y="285" type="line"/>
      <point x="278" y="500" type="line"/>
      <point x="158" y="500" type="line"/>
    </contour>
  </outline>
</glyph>
<glyph name="Lcommaaccent" format="2">
  <advance width="445"/>
  <unicode hex="013B"/>
  <outline>
    <contour>
      <point x="70" y="0" type="line"/>
      <point x="435" y="0" type="line"/>
      <point x="449" y="80" type="line"/>
      <point x="204" y="80" type="line"/>
      <point x="313" y="700" type="line"/>
      <point x="193" y="700" type="line"/>
    </contour>
    <contour>
      <point x="167" y="-210" type="line"/>
      <point x="242" y="-210" type="line"/>
      <point x="304" y="-60" type="line"/>
      <point x="194" y="-60" type="line"/>
    </contour>
  </outline>
</glyph>
<glyph name="lcommaaccent" format="2">
  <advance width="260"/>
  <unicode hex="013C"/>
  <outline>
    <contour>
      <point x="70" y="0" type="line"/>
      <point x="190" y="0" type="line"/>
      <point x="313" y="700" type="line"/>
      <point x="193" y="700" type="line"/>
    </contour>
    <contour>
      <point x="37" y="-210" type="line"/>
      <point x="112" y="-210" type="line"/>
      <point x="174" y="-60" type="line"/>
      <point x="64" y="-60" type="line"/>
    </contour>
  </outline>
</glyph>
<glyph name="ldot" format="2">
  <advance width="430"/>
  <unicode hex="0140"/>
  <outline>
    <contour>
      <point x="70" y="0" type="line"/>
      <point x="190" y="0" type="line"/>
      <point x="313" y="700" type="line"/>
      <point x="193" y="700" type="line"/>
    </contour>
    <contour>
      <point x="311" y="290" type="line"/>
      <point x="431" y="290" type="line"/>
      <point x="452" y="410" type="line"/>
      <point x="332" y="410" type="line"/>
    </contour>
  </outline>
</glyph>
<glyph name="Lslash" format="2">
  <advance width="445"/>
  <unicode hex="0141"/>
  <outline>
    <contour>
      <point x="70" y="0" type="line"/>
      <point x="435" y="0" type="line"/>
      <point x="449" y="80" type="line"/>
      <point x="204" y="80" type="line"/>
      <point x="252" y="355" type="line"/>
      <point x="354" y="420" type="line"/>
      <point x="319" y="480" type="line"/>
      <point x="268" y="448" type="line"/>
      <point x="313" y="700" type="line"/>
      <point x="193" y="700" type="line"/>
      <point x="133" y="362" type="line"/>
      <point x="43" y="305" type="line"/>
      <point x="78" y="245" type="line"/>
      <point x="117" y="270" type="line"/>
    </contour>
  </outline>
</glyph>
<glyph name="lslash" format="2">
  <advance width="290"/>
  <unicode hex="0142"/>
  <outline>
    <contour>
      <point x="80" y="0" type="line"/>
      <point x="200" y="0" type="line"/>
      <point x="262" y="355" type="line"/>
      <point x="364" y="420" type="line"/>
      <point x="329" y="480" type="line"/>
      <point x="278" y="448" type="line"/>
      <point x="323" y="700" type="line"/>
      <point x="203" y="700" type="line"/>
      <point x="143" y="362" type="line"/>
      <point x="53" y="305" type="line"/>
      <point x="88" y="245" type="line"/>
      <point x="127" y="270" type="line"/>
    </contour>
  </outline>
</glyph>
<glyph name="nacute" format="2">
  <advance width="505"/>
  <unicode hex="0144"/>
  <outline>
    <contour>
      <point x="65" y="0" type="line"/>
      <point x="185" y="0" type="line"/>
      <point x="259" y="420" type="line"/>
      <point x="270" y="430"/>
      <point x="292" y="440"/>
      <point x="317" y="440" type="curve" smooth="yes"/>
      <point x="357" y="440"/>
      <point x="394" y="420"/>
      <point x="381" y="350" type="curve" smooth="yes"/>
      <point x="320" y="0" type="line"/>
      <point x="440" y="0" type="line"/>
      <point x="501" y="350" type="line" smooth="yes"/>
      <point x="524" y="480"/>
      <point x="459" y="510"/>
      <point x="374" y="510" type="curve" smooth="yes"/>
      <point x="314" y="510"/>
      <point x="277" y="490"/>
      <point x="252" y="470" type="curve"/>
      <point x="247" y="470" type="line"/>
      <point x="238" y="500" type="line"/>
      <point x="153" y="500" type="line"/>
    </contour>
    <contour>
      <point x="308" y="560" type="line"/>
      <point x="383" y="560" type="line"/>
      <point x="481" y="690" type="line"/>
      <point x="366" y="690" type="line"/>
    </contour>
  </outline>
</glyph>
<glyph name="Ncommaaccent" format="2">
  <advance width="570"/>
  <unicode hex="0145"/>
  <outline>
    <contour>
      <point x="70" y="0" type="line"/>
      <point x="185" y="0" type="line"/>
      <point x="266" y="460" type="line"/>
      <point x="271" y="460" type="line"/>
      <point x="380" y="0" type="line"/>
      <point x="500" y="0" type="line"/>
      <point x="623" y="700" type="line"/>
      <point x="508" y="700" type="line"/>
      <point x="427" y="240" type="line"/>
      <point x="422" y="240" type="line"/>
      <point x="313" y="700" type="line"/>
      <point x="193" y="700" type="line"/>
    </contour>
    <contour>
      <point x="189" y="-200" type="line"/>
      <point x="264" y="-200" type="line"/>
      <point x="326" y="-50" type="line"/>
      <point x="216" y="-50" type="line"/>
    </contour>
  </outline>
</glyph>
<glyph name="oe" format="2">
  <advance width="745"/>
  <unicode hex="0153"/>
  <outline>
    <contour>
      <point x="238" y="-10" type="curve" smooth="yes"/>
      <point x="303" y="-10"/>
      <point x="347" y="15"/>
      <point x="383" y="50" type="curve"/>
      <point x="407" y="15"/>
      <point x="448" y="-10"/>
      <point x="543" y="-10" type="curve" smooth="yes"/>
      <point x="593" y="-10"/>
      <point x="645" y="0"/>
      <point x="676" y="10" type="curve"/>
      <point x="685" y="60" type="line"/>
      <point x="575" y="60" type="line" smooth="yes"/>
      <point x="490" y="60"/>
      <point x="457" y="100"/>
      <point x="477" y="215" type="curve"/>
      <point x="557" y="215" type="line" smooth="yes"/>
      <point x="682" y="215"/>
      <point x="760" y="260"/>
      <point x="778" y="360" type="curve" smooth="yes"/>
      <point x="795" y="455"/>
      <point x="734" y="510"/>
      <point x="609" y="510" type="curve"/>
      <point x="539" y="510"/>
      <point x="490" y="485"/>
      <point x="454" y="450" type="curve"/>
      <point x="430" y="485"/>
      <point x="394" y="510"/>
      <point x="329" y="510" type="curve" smooth="yes"/>
      <point x="199" y="510"/>
      <point x="117" y="440"/>
      <point x="84" y="250" type="curve" smooth="yes"/>
      <point x="50" y="60"/>
      <point x="108" y="-10"/>
    </contour>
    <contour>
      <point x="249" y="55" type="curve" smooth="yes"/>
      <point x="204" y="55"/>
      <point x="176" y="95"/>
      <point x="204" y="250" type="curve" smooth="yes"/>
      <point x="231" y="405"/>
      <point x="273" y="445"/>
      <point x="318" y="445" type="curve" smooth="yes"/>
      <point x="363" y="445"/>
      <point x="391" y="405"/>
      <point x="364" y="250" type="curve" smooth="yes"/>
      <point x="336" y="95"/>
      <point x="294" y="55"/>
    </contour>
    <contour>
      <point x="490" y="285" type="line"/>
      <point x="513" y="415"/>
      <point x="548" y="445"/>
      <point x="603" y="445" type="curve" smooth="yes"/>
      <point x="643" y="445"/>
      <point x="669" y="420"/>
      <point x="658" y="360" type="curve" smooth="yes"/>
      <point x="649" y="310"/>
      <point x="615" y="285"/>
      <point x="570" y="285" type="curve" smooth="yes"/>
    </contour>
  </outline>
</glyph>
<glyph name="Rcommaaccent" format="2">
  <advance width="535"/>
  <unicode hex="0156"/>
  <outline>
    <contour>
      <point x="70" y="0" type="line"/>
      <point x="190" y="0" type="line"/>
      <point x="229" y="225" type="line"/>
      <point x="294" y="225" type="line"/>
      <point x="370" y="0" type="line"/>
      <point x="505" y="0" type="line"/>
      <point x="414" y="250" type="line"/>
      <point x="484" y="280"/>
      <point x="539" y="335"/>
      <point x="562" y="470" type="curve" smooth="yes"/>
      <point x="592" y="640"/>
      <point x="535" y="710"/>
      <point x="370" y="710" type="curve" smooth="yes"/>
      <point x="295" y="710"/>
      <point x="244" y="705"/>
      <point x="191" y="690" type="curve"/>
    </contour>
    <contour>
      <point x="189" y="-200" type="line"/>
      <point x="264" y="-200" type="line"/>
      <point x="326" y="-50" type="line"/>
      <point x="216" y="-50" type="line"/>
    </contour>
    <contour>
      <point x="243" y="305" type="line"/>
      <point x="301" y="635" type="line"/>
      <point x="356" y="635" type="line" smooth="yes"/>
      <point x="431" y="635"/>
      <point x="464" y="595"/>
      <point x="442" y="470" type="curve" smooth="yes"/>
      <point x="420" y="345"/>
      <point x="373" y="305"/>
      <point x="298" y="305" type="curve" smooth="yes"/>
    </contour>
  </outline>
</glyph>
<glyph name="rcommaaccent" format="2">
  <advance width="360"/>
  <unicode hex="0157"/>
  <outline>
    <contour>
      <point x="65" y="0" type="line"/>
      <point x="185" y="0" type="line"/>
      <point x="254" y="395" type="line"/>
      <point x="266" y="405"/>
      <point x="288" y="415"/>
      <point x="313" y="415" type="curve" smooth="yes"/>
      <point x="423" y="415" type="line"/>
      <point x="438" y="500" type="line"/>
      <point x="373" y="500" type="line"/>
      <point x="313" y="500"/>
      <point x="275" y="480"/>
      <point x="251" y="460" type="curve"/>
      <point x="246" y="460" type="line"/>
      <point x="238" y="500" type="line"/>
      <point x="153" y="500" type="line"/>
    </contour>
    <contour>
      <point x="33" y="-210" type="line"/>
      <point x="108" y="-210" type="line"/>
      <point x="170" y="-60" type="line"/>
      <point x="60" y="-60" type="line"/>
    </contour>
  </outline>
</glyph>
<glyph name="rcaron" format="2">
  <advance width="360"/>
  <unicode hex="0159"/>
  <outline>
    <contour>
      <point x="65" y="0" type="line"/>
      <point x="185" y="0" type="line"/>
      <point x="254" y="395" type="line"/>
      <point x="266" y="405"/>
      <point x="288" y="415"/>
      <point x="313" y="415" type="curve" smooth="yes"/>
      <point x="423" y="415" type="line"/>
      <point x="438" y="500" type="line"/>
      <point x="373" y="500" type="line" smooth="yes"/>
      <point x="313" y="500"/>
      <point x="275" y="480"/>
      <point x="251" y="460" type="curve"/>
      <point x="246" y="460" type="line"/>
      <point x="238" y="500" type="line"/>
      <point x="153" y="500" type="line"/>
    </contour>
    <contour>
      <point x="251" y="550" type="line"/>
      <point x="356" y="550" type="line"/>
      <point x="459" y="680" type="line"/>
      <point x="382" y="680" type="line"/>
      <point x="314" y="610" type="line"/>
      <point x="270" y="680" type="line"/>
      <point x="194" y="680" type="line"/>
    </contour>
  </outline>
</glyph>
<glyph name="Scedilla" format="2">
  <advance width="465"/>
  <unicode hex="015E"/>
  <outline>
    <contour>
      <point x="215" y="-170" type="curve" smooth="yes"/>
      <point x="280" y="-170"/>
      <point x="320" y="-140"/>
      <point x="327" y="-100" type="curve" smooth="yes"/>
      <point x="334" y="-60"/>
      <point x="309" y="-30"/>
      <point x="249" y="-30" type="curve" smooth="yes"/>
      <point x="234" y="-30" type="line"/>
      <point x="238" y="-8" type="line"/>
      <point x="377" y="3"/>
      <point x="447" y="71"/>
      <point x="466" y="180" type="curve" smooth="yes"/>
      <point x="509" y="425"/>
      <point x="212" y="355"/>
      <point x="243" y="530" type="curve" smooth="yes"/>
      <point x="254" y="595"/>
      <point x="301" y="635"/>
      <point x="366" y="635" type="curve" smooth="yes"/>
      <point x="506" y="635" type="line"/>
      <point x="516" y="690" type="line"/>
      <point x="488" y="700"/>
      <point x="430" y="710"/>
      <point x="360" y="710" type="curve" smooth="yes"/>
      <point x="225" y="710"/>
      <point x="142" y="640"/>
      <point x="123" y="530" type="curve" smooth="yes"/>
      <point x="78" y="275"/>
      <point x="375" y="345"/>
      <point x="346" y="180" type="curve" smooth="yes"/>
      <point x="333" y="105"/>
      <point x="286" y="65"/>
      <point x="186" y="65" type="curve" smooth="yes"/>
      <point x="46" y="65" type="line"/>
      <point x="36" y="10" type="line"/>
      <point x="63" y="0"/>
      <point x="117" y="-9"/>
      <point x="183" y="-10" type="curve"/>
      <point x="171" y="-79" type="line"/>
      <point x="226" y="-79" type="line" smooth="yes"/>
      <point x="251" y="-79"/>
      <point x="254" y="-90"/>
      <point x="252" y="-100" type="curve" smooth="yes"/>
      <point x="250" y="-111"/>
      <point x="243" y="-121"/>
      <point x="213" y="-121" type="curve" smooth="yes"/>
      <point x="148" y="-121" type="line"/>
      <point x="142" y="-155" type="line"/>
      <point x="142" y="-155"/>
      <point x="165" y="-170"/>
    </contour>
  </outline>
</glyph>
<glyph name="scedilla" format="2">
  <advance width="415"/>
  <unicode hex="015F"/>
  <outline>
    <contour>
      <point x="195" y="-170" type="curve" smooth="yes"/>
      <point x="260" y="-170"/>
      <point x="300" y="-140"/>
      <point x="307" y="-100" type="curve" smooth="yes"/>
      <point x="314" y="-60"/>
      <point x="289" y="-30"/>
      <point x="229" y="-30" type="curve" smooth="yes"/>
      <point x="214" y="-30" type="line"/>
      <point x="218" y="-8" type="line"/>
      <point x="330" y="-1"/>
      <point x="390" y="34"/>
      <point x="409" y="140" type="curve" smooth="yes"/>
      <point x="439" y="310"/>
      <point x="198" y="275"/>
      <point x="217" y="380" type="curve" smooth="yes"/>
      <point x="224" y="420"/>
      <point x="267" y="440"/>
      <point x="322" y="440" type="curve" smooth="yes"/>
      <point x="432" y="440" type="line"/>
      <point x="441" y="490" type="line"/>
      <point x="413" y="500"/>
      <point x="364" y="510"/>
      <point x="314" y="510" type="curve" smooth="yes"/>
      <point x="189" y="510"/>
      <point x="114" y="480"/>
      <point x="95" y="370" type="curve" smooth="yes"/>
      <point x="65" y="200"/>
      <point x="306" y="235"/>
      <point x="287" y="130" type="curve" smooth="yes"/>
      <point x="279" y="80"/>
      <point x="235" y="60"/>
      <point x="160" y="60" type="curve" smooth="yes"/>
      <point x="50" y="60" type="line"/>
      <point x="41" y="10" type="line"/>
      <point x="69" y="0"/>
      <point x="114" y="-9"/>
      <point x="163" y="-10" type="curve"/>
      <point x="151" y="-79" type="line"/>
      <point x="206" y="-79" type="line" smooth="yes"/>
      <point x="231" y="-79"/>
      <point x="234" y="-90"/>
      <point x="232" y="-100" type="curve" smooth="yes"/>
      <point x="230" y="-111"/>
      <point x="223" y="-121"/>
      <point x="193" y="-121" type="curve" smooth="yes"/>
      <point x="128" y="-121" type="line"/>
      <point x="122" y="-155" type="line"/>
      <point x="122" y="-155"/>
      <point x="145" y="-170"/>
    </contour>
  </outline>
</glyph>
<glyph name="scaron" format="2">
  <advance width="415"/>
  <unicode hex="0161"/>
  <outline>
    <contour>
      <point x="168" y="-10" type="curve" smooth="yes"/>
      <point x="313" y="-10"/>
      <point x="388" y="20"/>
      <point x="409" y="140" type="curve" smooth="yes"/>
      <point x="439" y="310"/>
      <point x="198" y="275"/>
      <point x="217" y="380" type="curve" smooth="yes"/>
      <point x="224" y="420"/>
      <point x="267" y="440"/>
      <point x="322" y="440" type="curve" smooth="yes"/>
      <point x="432" y="440" type="line"/>
      <point x="441" y="490" type="line"/>
      <point x="413" y="500"/>
      <point x="364" y="510"/>
      <point x="314" y="510" type="curve" smooth="yes"/>
      <point x="189" y="510"/>
      <point x="114" y="480"/>
      <point x="95" y="370" type="curve" smooth="yes"/>
      <point x="65" y="200"/>
      <point x="306" y="235"/>
      <point x="287" y="130" type="curve" smooth="yes"/>
      <point x="279" y="80"/>
      <point x="235" y="60"/>
      <point x="160" y="60" type="curve" smooth="yes"/>
      <point x="50" y="60" type="line"/>
      <point x="41" y="10" type="line"/>
      <point x="70" y="0"/>
      <point x="118" y="-10"/>
    </contour>
    <contour>
      <point x="246" y="560" type="line"/>
      <point x="351" y="560" type="line"/>
      <point x="454" y="690" type="line"/>
      <point x="377" y="690" type="line"/>
      <point x="309" y="620" type="line"/>
      <point x="265" y="690" type="line"/>
      <point x="189" y="690" type="line"/>
    </contour>
  </outline>
</glyph>
<glyph name="Umacron" format="2">
  <advance width="550"/>
  <unicode hex="016A"/>
  <outline>
    <contour>
      <point x="273" y="-10" type="curve" smooth="yes"/>
      <point x="418" y="-10"/>
      <point x="500" y="60"/>
      <point x="532" y="240" type="curve" smooth="yes"/>
      <point x="613" y="700" type="line"/>
      <point x="493" y="700" type="line"/>
      <point x="412" y="240" type="line" smooth="yes"/>
      <point x="387" y="100"/>
      <point x="340" y="60"/>
      <point x="285" y="60" type="curve" smooth="yes"/>
      <point x="230" y="60"/>
      <point x="197" y="100"/>
      <point x="222" y="240" type="curve" smooth="yes"/>
      <point x="303" y="700" type="line"/>
      <point x="183" y="700" type="line"/>
      <point x="102" y="240" type="line" smooth="yes"/>
      <point x="70" y="60"/>
      <point x="128" y="-10"/>
    </contour>
    <contour>
      <point x="289" y="760" type="line"/>
      <point x="529" y="760" type="line"/>
      <point x="541" y="830" type="line"/>
      <point x="301" y="830" type="line"/>
    </contour>
  </outline>
</glyph>
<glyph name="Uogonek" format="2">
  <advance width="550"/>
  <unicode hex="0172"/>
  <outline>
    <contour>
      <point x="285" y="-160" type="curve" smooth="yes"/>
      <point x="330" y="-160"/>
      <point x="364" y="-145"/>
      <point x="364" y="-145" type="curve"/>
      <point x="372" y="-100" type="line"/>
      <point x="336" y="-100" type="line" smooth="yes"/>
      <point x="301" y="-100"/>
      <point x="285" y="-80"/>
      <point x="292" y="-45" type="curve" smooth="yes"/>
      <point x="298" y="-9" type="line"/>
      <point x="427" y="-1"/>
      <point x="502" y="70"/>
      <point x="532" y="240" type="curve" smooth="yes"/>
      <point x="613" y="700" type="line"/>
      <point x="493" y="700" type="line"/>
      <point x="412" y="240" type="line" smooth="yes"/>
      <point x="387" y="100"/>
      <point x="340" y="60"/>
      <point x="285" y="60" type="curve" smooth="yes"/>
      <point x="230" y="60"/>
      <point x="197" y="100"/>
      <point x="222" y="240" type="curve" smooth="yes"/>
      <point x="303" y="700" type="line"/>
      <point x="183" y="700" type="line"/>
      <point x="102" y="240" type="line" smooth="yes"/>
      <point x="72" y="73"/>
      <point x="120" y="1"/>
      <point x="241" y="-9" type="curve"/>
      <point x="232" y="-21"/>
      <point x="215" y="-46"/>
      <point x="209" y="-80" type="curve" smooth="yes"/>
      <point x="201" y="-125"/>
      <point x="230" y="-160"/>
    </contour>
  </outline>
</glyph>
<glyph name="Ydieresis" format="2">
  <advance width="480"/>
  <unicode hex="0178"/>
  <outline>
    <contour>
      <point x="180" y="0" type="line"/>
      <point x="300" y="0" type="line"/>
      <point x="337" y="210" type="line"/>
      <point x="598" y="700" type="line"/>
      <point x="473" y="700" type="line"/>
      <point x="303" y="358" type="line"/>
      <point x="253" y="700" type="line"/>
      <point x="128" y="700" type="line"/>
      <point x="217" y="210" type="line"/>
    </contour>
    <contour>
      <point x="239" y="760" type="line"/>
      <point x="349" y="760" type="line"/>
      <point x="370" y="880" type="line"/>
      <point x="260" y="880" type="line"/>
    </contour>
    <contour>
      <point x="399" y="760" type="line"/>
      <point x="509" y="760" type="line"/>
      <point x="530" y="880" type="line"/>
      <point x="420" y="880" type="line"/>
    </contour>
  </outline>
</glyph>
<glyph name="Zacute" format="2">
  <advance width="435"/>
  <unicode hex="0179"/>
  <outline>
    <contour>
      <point x="20" y="0" type="line"/>
      <point x="410" y="0" type="line"/>
      <point x="424" y="80" type="line"/>
      <point x="169" y="80" type="line"/>
      <point x="525" y="625" type="line"/>
      <point x="538" y="700" type="line"/>
      <point x="148" y="700" type="line"/>
      <point x="134" y="620" type="line"/>
      <point x="389" y="620" type="line"/>
      <point x="33" y="75" type="line"/>
    </contour>
    <contour>
      <point x="307" y="750" type="line"/>
      <point x="382" y="750" type="line"/>
      <point x="480" y="880" type="line"/>
      <point x="365" y="880" type="line"/>
    </contour>
  </outline>
</glyph>
<glyph name="zacute" format="2">
  <advance width="400"/>
  <unicode hex="017A"/>
  <outline>
    <contour>
      <point x="20" y="0" type="line"/>
      <point x="375" y="0" type="line"/>
      <point x="388" y="75" type="line"/>
      <point x="173" y="75" type="line"/>
      <point x="455" y="430" type="line"/>
      <point x="468" y="500" type="line"/>
      <point x="118" y="500" type="line"/>
      <point x="104" y="425" type="line"/>
      <point x="314" y="425" type="line"/>
      <point x="32" y="70" type="line"/>
    </contour>
    <contour>
      <point x="253" y="560" type="line"/>
      <point x="328" y="560" type="line"/>
      <point x="426" y="690" type="line"/>
      <point x="311" y="690" type="line"/>
    </contour>
  </outline>
</glyph>
<glyph name="Zdotaccent" format="2">
  <advance width="435"/>
  <unicode hex="017B"/>
  <outline>
    <contour>
      <point x="20" y="0" type="line"/>
      <point x="410" y="0" type="line"/>
      <point x="424" y="80" type="line"/>
      <point x="169" y="80" type="line"/>
      <point x="525" y="625" type="line"/>
      <point x="538" y="700" type="line"/>
      <point x="148" y="700" type="line"/>
      <point x="134" y="620" type="line"/>
      <point x="389" y="620" type="line"/>
      <point x="33" y="75" type="line"/>
    </contour>
    <contour>
      <point x="299" y="760" type="line"/>
      <point x="409" y="760" type="line"/>
      <point x="430" y="880" type="line"/>
      <point x="320" y="880" type="line"/>
    </contour>
  </outline>
</glyph>
<glyph name="zdotaccent" format="2">
  <advance width="400"/>
  <unicode hex="017C"/>
  <outline>
    <contour>
      <point x="20" y="0" type="line"/>
      <point x="375" y="0" type="line"/>
      <point x="388" y="75" type="line"/>
      <point x="173" y="75" type="line"/>
      <point x="455" y="430" type="line"/>
      <point x="468" y="500" type="line"/>
      <point x="118" y="500" type="line"/>
      <point x="104" y="425" type="line"/>
      <point x="314" y="425" type="line"/>
      <point x="32" y="70" type="line"/>
    </contour>
    <contour>
      <point x="253" y="560" type="line"/>
      <point x="363" y="560" type="line"/>
      <point x="384" y="680" type="line"/>
      <point x="274" y="680" type="line"/>
    </contour>
  </outline>
</glyph>
<glyph name="zcaron" format="2">
  <advance width="400"/>
  <unicode hex="017E"/>
  <outline>
    <contour>
      <point x="20" y="0" type="line"/>
      <point x="375" y="0" type="line"/>
      <point x="388" y="75" type="line"/>
      <point x="173" y="75" type="line"/>
      <point x="455" y="430" type="line"/>
      <point x="468" y="500" type="line"/>
      <point x="118" y="500" type="line"/>
      <point x="104" y="425" type="line"/>
      <point x="314" y="425" type="line"/>
      <point x="32" y="70" type="line"/>
    </contour>
    <contour>
      <point x="256" y="560" type="line"/>
      <point x="361" y="560" type="line"/>
      <point x="464" y="690" type="line"/>
      <point x="387" y="690" type="line"/>
      <point x="319" y="620" type="line"/>
      <point x="275" y="690" type="line"/>
      <point x="199" y="690" type="line"/>
    </contour>
  </outline>
</glyph>
<glyph name="florin" format="2">
  <advance width="340"/>
  <unicode hex="0192"/>
  <outline>
    <contour>
      <point x="2" y="-210" type="curve" smooth="yes"/>
      <point x="87" y="-210"/>
      <point x="163" y="-180"/>
      <point x="187" y="-40" type="curve"/>
      <point x="268" y="415" type="line"/>
      <point x="273" y="415" type="line" smooth="yes"/>
      <point x="323" y="415"/>
      <point x="374" y="425"/>
      <point x="406" y="435" type="curve"/>
      <point x="416" y="490" type="line"/>
      <point x="281" y="490" type="line"/>
      <point x="288" y="530" type="line" smooth="yes"/>
      <point x="302" y="610"/>
      <point x="341" y="630"/>
      <point x="381" y="630" type="curve" smooth="yes"/>
      <point x="461" y="630" type="line"/>
      <point x="469" y="680" type="line"/>
      <point x="446" y="690"/>
      <point x="393" y="700"/>
      <point x="353" y="700" type="curve" smooth="yes"/>
      <point x="268" y="700"/>
      <point x="193" y="670"/>
      <point x="168" y="530" type="curve" smooth="yes"/>
      <point x="161" y="490" type="line"/>
      <point x="106" y="490" type="line"/>
      <point x="93" y="415" type="line"/>
      <point x="148" y="415" type="line"/>
      <point x="67" y="-40" type="line" smooth="yes"/>
      <point x="53" y="-120"/>
      <point x="15" y="-140"/>
      <point x="-24" y="-140" type="curve" smooth="yes"/>
      <point x="-94" y="-140" type="line"/>
      <point x="-103" y="-190" type="line"/>
      <point x="-80" y="-200"/>
      <point x="-37" y="-210"/>
    </contour>
  </outline>
</glyph>
<glyph name="jdotless" format="2">
  <advance width="260"/>
  <unicode hex="0237"/>
  <anchor x="223" y="500" name="top"/>
  <outline>
    <contour>
      <point x="2" y="-210" type="curve" smooth="yes"/>
      <point x="87" y="-210"/>
      <point x="163" y="-180"/>
      <point x="187" y="-40" type="curve" smooth="yes"/>
      <point x="283" y="500" type="line"/>
      <point x="163" y="500" type="line"/>
      <point x="67" y="-40" type="line" smooth="yes"/>
      <point x="55" y="-110"/>
      <point x="20" y="-140"/>
      <point x="-14" y="-140" type="curve" smooth="yes"/>
      <point x="-84" y="-140" type="line"/>
      <point x="-93" y="-190" type="line"/>
      <point x="-70" y="-200"/>
      <point x="-37" y="-210"/>
    </contour>
  </outline>
</glyph>
<glyph name="circumflex" format="2">
  <advance width="305"/>
  <unicode hex="02C6"/>
  <outline>
    <contour>
      <point x="116" y="550" type="line"/>
      <point x="192" y="550" type="line"/>
      <point x="261" y="620" type="line"/>
      <point x="304" y="550" type="line"/>
      <point x="381" y="550" type="line"/>
      <point x="324" y="680" type="line"/>
      <point x="219" y="680" type="line"/>
    </contour>
  </outline>
</glyph>
<glyph name="caron" format="2">
  <advance width="305"/>
  <unicode hex="02C7"/>
  <outline>
    <contour>
      <point x="198" y="560" type="line"/>
      <point x="303" y="560" type="line"/>
      <point x="406" y="690" type="line"/>
      <point x="329" y="690" type="line"/>
      <point x="261" y="620" type="line"/>
      <point x="217" y="690" type="line"/>
      <point x="141" y="690" type="line"/>
    </contour>
  </outline>
</glyph>
<glyph name="dotaccent" format="2">
  <advance width="150"/>
  <unicode hex="02D9"/>
  <outline>
    <contour>
      <point x="118" y="560" type="line"/>
      <point x="228" y="560" type="line"/>
      <point x="249" y="680" type="line"/>
      <point x="139" y="680" type="line"/>
    </contour>
  </outline>
</glyph>
<glyph name="ring" format="2">
  <advance width="290"/>
  <unicode hex="02DA"/>
  <outline>
    <contour>
      <point x="195" y="535" type="curve" smooth="yes"/>
      <point x="250" y="535"/>
      <point x="296" y="570"/>
      <point x="305" y="620" type="curve" smooth="yes"/>
      <point x="314" y="670"/>
      <point x="280" y="705"/>
      <point x="225" y="705" type="curve" smooth="yes"/>
      <point x="170" y="705"/>
      <point x="124" y="670"/>
      <point x="115" y="620" type="curve" smooth="yes"/>
      <point x="106" y="570"/>
      <point x="140" y="535"/>
    </contour>
    <contour>
      <point x="205" y="590" type="curve" smooth="yes"/>
      <point x="190" y="590"/>
      <point x="176" y="600"/>
      <point x="180" y="620" type="curve" smooth="yes"/>
      <point x="183" y="640"/>
      <point x="200" y="650"/>
      <point x="215" y="650" type="curve" smooth="yes"/>
      <point x="230" y="650"/>
      <point x="243" y="640"/>
      <point x="240" y="620" type="curve" smooth="yes"/>
      <point x="236" y="600"/>
      <point x="220" y="590"/>
    </contour>
  </outline>
</glyph>
<glyph name="ogonek" format="2">
  <advance width="206"/>
  <unicode hex="02DB"/>
  <outline>
    <contour>
      <point x="81" y="-160" type="curve" smooth="yes"/>
      <point x="126" y="-160"/>
      <point x="160" y="-145"/>
      <point x="160" y="-145" type="curve"/>
      <point x="168" y="-100" type="line"/>
      <point x="132" y="-100" type="line" smooth="yes"/>
      <point x="97" y="-100"/>
      <point x="81" y="-80"/>
      <point x="88" y="-45" type="curve" smooth="yes"/>
      <point x="96" y="0" type="line"/>
      <point x="46" y="0" type="line"/>
      <point x="46" y="0"/>
      <point x="14" y="-30"/>
      <point x="5" y="-80" type="curve" smooth="yes"/>
      <point x="-2" y="-125"/>
      <point x="26" y="-160"/>
    </contour>
  </outline>
</glyph>
<glyph name="tilde" format="2">
  <advance width="290"/>
  <unicode hex="02DC"/>
  <outline>
    <contour>
      <point x="291" y="560" type="curve" smooth="yes"/>
      <point x="336" y="560"/>
      <point x="372" y="590"/>
      <point x="392" y="680" type="curve"/>
      <point x="332" y="680" type="line"/>
      <point x="326" y="655"/>
      <point x="313" y="640"/>
      <point x="298" y="640" type="curve" smooth="yes"/>
      <point x="273" y="640"/>
      <point x="264" y="690"/>
      <point x="219" y="690" type="curve" smooth="yes"/>
      <point x="174" y="690"/>
      <point x="137" y="660"/>
      <point x="118" y="570" type="curve"/>
      <point x="178" y="570" type="line"/>
      <point x="184" y="595"/>
      <point x="197" y="610"/>
      <point x="212" y="610" type="curve" smooth="yes"/>
      <point x="237" y="610"/>
      <point x="246" y="560"/>
    </contour>
  </outline>
</glyph>
<glyph name="brevecomb" format="2">
  <unicode hex="0306"/>
  <anchor x="289" y="500" name="_top"/>
  <anchor x="322" y="690" name="top"/>
  <outline>
    <contour>
      <point x="297" y="565" type="curve" smooth="yes"/>
      <point x="362" y="565"/>
      <point x="413" y="595"/>
      <point x="451" y="640" type="curve"/>
      <point x="411" y="690" type="line"/>
      <point x="387" y="670"/>
      <point x="353" y="650"/>
      <point x="313" y="650" type="curve" smooth="yes"/>
      <point x="273" y="650"/>
      <point x="247" y="670"/>
      <point x="231" y="690" type="curve"/>
      <point x="171" y="640" type="line"/>
      <point x="193" y="595"/>
      <point x="232" y="565"/>
    </contour>
  </outline>
</glyph>
<glyph name="hookabovecomb" format="2">
  <unicode hex="0309"/>
  <anchor x="250" y="500" name="_top"/>
  <anchor x="292" y="736" name="top"/>
  <outline>
    <contour>
      <point x="213" y="543" type="curve"/>
      <point x="280" y="543" type="line"/>
      <point x="286" y="574"/>
      <point x="349" y="595"/>
      <point x="357" y="632" type="curve" smooth="yes"/>
      <point x="375" y="726"/>
      <point x="331" y="736"/>
      <point x="260" y="736" type="curve" smooth="yes"/>
      <point x="237" y="736"/>
      <point x="213" y="732"/>
      <point x="201" y="728" type="curve"/>
      <point x="189" y="665" type="line"/>
      <point x="239" y="665" type="line" smooth="yes"/>
      <point x="265" y="665"/>
      <point x="279" y="654"/>
      <point x="274" y="628" type="curve" smooth="yes"/>
      <point x="269" y="602"/>
      <point x="221" y="585"/>
    </contour>
  </outline>
</glyph>
<glyph name="hungarumlautcomb" format="2">
  <unicode hex="030B"/>
  <anchor x="203" y="500" name="_top"/>
  <anchor x="259" y="690" name="top"/>
  <outline>
    <contour>
      <point x="235" y="560" type="line"/>
      <point x="300" y="560" type="line"/>
      <point x="399" y="690" type="line"/>
      <point x="294" y="690" type="line"/>
    </contour>
    <contour>
      <point x="105" y="560" type="line"/>
      <point x="170" y="560" type="line"/>
      <point x="269" y="690" type="line"/>
      <point x="164" y="690" type="line"/>
    </contour>
  </outline>
</glyph>
<glyph name="commaturnedabovecomb" format="2">
  <unicode hex="0312"/>
  <anchor x="149" y="500" name="_top"/>
  <anchor x="188" y="720" name="top"/>
  <outline>
    <contour>
      <point x="110" y="570" type="line"/>
      <point x="220" y="570" type="line"/>
      <point x="246" y="720" type="line"/>
      <point x="171" y="720" type="line"/>
    </contour>
  </outline>
</glyph>
<glyph name="horncomb" format="2">
  <unicode hex="031B"/>
  <anchor x="234" y="500" name="_topright"/>
  <anchor x="234" y="500" name="topright"/>
  <outline>
    <contour>
      <point x="130" y="435" type="line"/>
      <point x="209" y="435"/>
      <point x="317" y="475"/>
      <point x="337" y="574" type="curve"/>
      <point x="237" y="574" type="line"/>
      <point x="225" y="516"/>
      <point x="189" y="500"/>
      <point x="143" y="500" type="curve"/>
    </contour>
  </outline>
</glyph>
<glyph name="dotbelowcomb" format="2">
  <unicode hex="0323"/>
  <anchor x="51" y="0" name="_bottom"/>
  <anchor x="23" y="-161" name="bottom"/>
  <outline>
    <contour>
      <point x="-26.654" y="-161.249" type="line"/>
      <point x="72.334" y="-161.249" type="line"/>
      <point x="89.657" y="-62.261" type="line"/>
      <point x="-9.331" y="-62.261" type="line"/>
    </contour>
  </outline>
</glyph>
<glyph name="commaaccentcomb" format="2">
  <unicode hex="0326"/>
  <anchor x="66" y="0" name="_bottom"/>
  <anchor x="29" y="-210" name="bottom"/>
  <outline>
    <contour>
      <point x="-26" y="-210" type="line"/>
      <point x="49" y="-210" type="line"/>
      <point x="111" y="-60" type="line"/>
      <point x="1" y="-60" type="line"/>
    </contour>
  </outline>
</glyph>
